<?xml version="1.0" standalone="yes"?><svg version="1.1" xmlns = 'http://www.w3.org/2000/svg'><defs><font id='web' horiz-adv-x="1000">
<font-face font-family="web" descent="-410" cap-height="1434" units-per-em="2048" bbox="-375,-491,2662,2181" x-height="1075" ascent="1638" />
<missing-glyph horiz-adv-x="0" d="" /><glyph horiz-adv-x="864" d="M 104 676 L 104 821 L 760 821 L 760 676 L 104 676 Z" unicode="–" />
<glyph horiz-adv-x="1188" d="M 104 676 L 104 821 L 1083 821 L 1083 676 L 104 676 Z" unicode="—" />
<glyph horiz-adv-x="516" d="M 332 977 L 123 977 L 256 1434 L 362 1434 L 332 977 Z" unicode="‘" />
<glyph horiz-adv-x="516" d="M 260 977 L 154 977 L 184 1434 L 393 1434 L 260 977 Z" unicode="’" />
<glyph horiz-adv-x="516" d="M 260 -221 L 154 -221 L 184 236 L 393 236 L 260 -221 Z" unicode="‚" />
<glyph horiz-adv-x="961" d="M 776 977 L 567 977 L 700 1434 L 807 1434 L 776 977 Z M 332 977 L 123 977 L 256 1434 L 362 1434 L 332 977 Z" unicode="“" />
<glyph horiz-adv-x="961" d="M 705 977 L 598 977 L 629 1434 L 838 1434 L 705 977 Z M 260 977 L 154 977 L 184 1434 L 393 1434 L 260 977 Z" unicode="”" />
<glyph horiz-adv-x="961" d="M 705 -221 L 598 -221 L 629 236 L 838 236 L 705 -221 Z M 260 -221 L 154 -221 L 184 236 L 393 236 L 260 -221 Z" unicode="„" />
<glyph horiz-adv-x="532" d="" unicode=" " />
<glyph horiz-adv-x="539" d="M 311 385 L 225 385 L 190 760 L 190 1434 L 348 1434 L 348 760 L 311 385 Z M 393 102 C 393 85 389 69 382 54 C 375 39 366 26 355 14 C 343 2 330 -6 315 -13 C 300 -19 284 -23 268 -23 C 251 -23 235 -19 220 -13 C 205 -6 192 2 180 14 C 168 26 159 39 153 54 C 146 69 143 85 143 102 C 143 118 146 134 153 150 C 159 166 168 180 180 192 C 192 204 205 213 220 220 C 235 227 251 231 268 231 C 284 231 300 227 315 220 C 330 213 343 204 355 192 C 366 180 375 166 382 150 C 389 134 393 118 393 102 Z" unicode="!" />
<glyph horiz-adv-x="942" d="M 735 764 L 614 764 L 580 1434 L 770 1434 L 735 764 Z M 328 764 L 207 764 L 172 1434 L 362 1434 L 328 764 Z" unicode="&#x22;" />
<glyph horiz-adv-x="1270" d="M 946 362 L 946 0 L 803 0 L 803 362 L 467 362 L 467 0 L 324 0 L 324 362 L 102 362 L 102 496 L 324 496 L 324 938 L 102 938 L 102 1071 L 324 1071 L 324 1434 L 467 1434 L 467 1071 L 803 1071 L 803 1434 L 946 1434 L 946 1071 L 1167 1071 L 1167 938 L 946 938 L 946 496 L 1167 496 L 1167 362 L 946 362 Z M 803 938 L 467 938 L 467 496 L 803 496 L 803 938 Z" unicode="#" />
<glyph horiz-adv-x="1270" d="M 1120 397 C 1120 345 1110 296 1091 251 C 1072 206 1045 167 1009 133 C 973 99 928 71 876 49 C 824 27 764 12 698 6 L 698 -205 L 547 -205 L 547 6 C 505 10 464 17 424 28 C 384 38 345 51 309 67 C 273 83 239 100 207 120 C 175 139 145 160 119 182 L 217 307 C 247 283 278 262 310 242 C 342 222 376 204 410 190 C 444 176 480 165 516 157 C 552 149 590 145 629 145 C 733 145 815 166 874 210 C 933 253 963 313 963 391 C 963 423 957 452 945 477 C 933 502 914 525 886 547 C 858 568 820 588 773 608 C 726 628 668 648 598 670 C 516 696 447 721 391 747 C 335 772 290 800 256 830 C 222 860 197 895 182 934 C 167 972 160 1018 160 1071 C 160 1123 169 1171 188 1213 C 206 1255 233 1291 267 1321 C 301 1351 341 1375 389 1393 C 437 1411 490 1424 549 1430 L 549 1638 L 700 1638 L 700 1432 C 739 1429 776 1424 810 1416 C 844 1408 877 1399 909 1387 C 940 1375 970 1362 999 1347 C 1027 1331 1056 1314 1085 1296 L 991 1165 C 961 1184 932 1201 904 1217 C 876 1232 847 1245 818 1255 C 788 1265 757 1273 725 1279 C 693 1285 658 1288 621 1288 C 567 1288 521 1282 483 1272 C 445 1261 413 1246 389 1228 C 365 1210 347 1188 336 1163 C 324 1137 319 1110 319 1081 C 319 1051 323 1025 332 1002 C 341 979 359 957 385 937 C 411 916 448 895 496 875 C 544 855 606 833 684 809 C 768 781 838 755 894 729 C 950 703 994 674 1028 643 C 1061 611 1085 576 1099 537 C 1113 497 1120 451 1120 397 Z" unicode="$" />
<glyph horiz-adv-x="1270" d="M 512 1063 C 512 933 493 834 455 767 C 417 699 365 666 299 666 C 233 666 181 699 145 765 C 108 831 90 929 90 1059 C 90 1189 109 1287 147 1355 C 185 1422 237 1456 303 1456 C 369 1456 420 1423 457 1357 C 493 1291 512 1193 512 1063 Z M 393 1059 C 393 1149 385 1219 369 1268 C 353 1316 329 1341 299 1341 C 268 1341 245 1317 231 1270 C 216 1222 209 1153 209 1063 C 209 972 217 902 233 853 C 249 804 272 780 303 780 C 334 780 357 803 371 851 C 385 899 393 968 393 1059 Z M 360 0 L 240 0 L 909 1434 L 1030 1434 L 360 0 Z M 1180 375 C 1180 245 1161 146 1123 78 C 1085 10 1033 -23 967 -23 C 901 -23 849 10 813 76 C 776 142 758 241 758 371 C 758 501 777 599 815 667 C 853 734 905 768 971 768 C 1037 768 1088 735 1125 669 C 1161 603 1180 505 1180 375 Z M 1061 371 C 1061 461 1053 531 1037 580 C 1021 628 997 653 967 653 C 935 653 912 629 898 582 C 884 534 877 465 877 375 C 877 284 884 214 900 165 C 916 116 939 92 971 92 C 1001 92 1024 115 1039 163 C 1053 210 1061 279 1061 371 Z" unicode="%" />
<glyph horiz-adv-x="1319" d="M 1247 0 L 1059 0 L 944 150 C 892 96 833 53 769 23 C 705 -7 634 -23 557 -23 C 478 -23 411 -12 356 8 C 301 28 256 56 222 91 C 188 126 163 167 148 214 C 132 260 125 310 125 362 C 125 415 132 463 146 505 C 160 547 181 585 209 619 C 237 653 270 685 310 713 C 350 741 395 769 446 795 L 397 860 C 379 883 362 906 347 929 C 331 951 318 974 307 997 C 295 1020 286 1044 280 1068 C 273 1092 270 1119 270 1147 C 270 1191 278 1233 295 1271 C 312 1309 336 1341 368 1369 C 399 1396 437 1417 483 1433 C 528 1448 579 1456 635 1456 C 715 1456 785 1444 847 1422 C 908 1399 964 1367 1016 1327 L 934 1200 C 907 1220 881 1238 857 1253 C 833 1268 809 1280 785 1290 C 761 1299 736 1306 712 1310 C 687 1314 661 1317 633 1317 C 601 1317 572 1313 547 1305 C 521 1297 500 1286 482 1272 C 464 1258 451 1241 442 1221 C 432 1201 428 1179 428 1155 C 428 1117 435 1083 450 1053 C 464 1023 486 990 514 954 L 950 387 C 969 423 987 462 1003 504 C 1019 546 1034 591 1049 639 L 1184 598 C 1150 477 1102 368 1040 270 L 1247 0 Z M 860 256 L 528 690 C 483 669 445 647 414 624 C 382 601 357 576 337 550 C 317 523 302 494 293 464 C 283 434 279 401 279 367 C 279 331 285 298 297 268 C 309 238 327 211 351 189 C 375 167 404 149 439 136 C 474 123 515 117 561 117 C 623 117 678 129 727 153 C 776 177 820 212 860 256 Z" unicode="&#x26;" />
<glyph horiz-adv-x="526" d="M 326 764 L 201 764 L 166 1434 L 360 1434 L 326 764 Z" unicode="'" />
<glyph horiz-adv-x="1270" d="M 950 -225 C 911 -200 871 -171 830 -139 C 788 -107 748 -71 709 -32 C 670 7 633 50 598 97 C 563 144 533 194 507 248 C 481 302 460 359 445 420 C 429 480 422 544 422 612 C 422 683 429 750 445 813 C 460 876 481 935 507 991 C 533 1046 563 1097 598 1145 C 633 1192 670 1235 709 1275 C 748 1314 788 1350 830 1382 C 871 1414 911 1443 950 1468 L 1008 1401 C 948 1351 892 1300 842 1246 C 791 1192 747 1134 711 1072 C 674 1010 645 942 625 868 C 604 794 594 713 594 625 C 594 532 604 448 625 374 C 645 299 674 230 711 168 C 747 106 791 48 842 -4 C 892 -57 948 -108 1008 -158 L 950 -225 Z" unicode="(" />
<glyph horiz-adv-x="1270" d="M 848 631 C 848 559 840 492 825 429 C 809 366 789 307 763 252 C 737 196 706 145 671 98 C 636 50 599 7 560 -32 C 520 -71 480 -107 439 -139 C 398 -171 358 -200 319 -225 L 262 -158 C 322 -108 377 -57 428 -3 C 478 50 522 108 559 170 C 595 232 624 300 645 374 C 665 447 676 528 676 618 C 676 710 665 794 645 869 C 624 943 595 1012 559 1074 C 522 1136 478 1194 428 1247 C 377 1300 322 1351 262 1401 L 319 1468 C 357 1443 397 1414 439 1382 C 480 1350 520 1314 560 1275 C 599 1235 636 1192 671 1145 C 706 1098 737 1048 763 994 C 789 940 809 883 825 823 C 840 762 848 698 848 631 Z" unicode=")" />
<glyph horiz-adv-x="1024" d="M 829 979 L 774 883 L 537 1061 L 567 766 L 457 766 L 485 1061 L 250 883 L 195 979 L 459 1098 L 195 1221 L 250 1315 L 485 1139 L 457 1434 L 567 1434 L 537 1139 L 774 1315 L 829 1221 L 565 1098 L 829 979 Z" unicode="*" />
<glyph horiz-adv-x="1270" d="M 709 635 L 709 199 L 561 199 L 561 635 L 137 635 L 137 774 L 561 774 L 561 1210 L 709 1210 L 709 774 L 1133 774 L 1133 635 L 709 635 Z" unicode="+" />
<glyph horiz-adv-x="635" d="M 303 -242 L 193 -242 L 223 236 L 436 236 L 303 -242 Z" unicode="," />
<glyph horiz-adv-x="659" d="M 104 674 L 104 823 L 555 823 L 555 674 L 104 674 Z" unicode="-" />
<glyph horiz-adv-x="635" d="M 451 111 C 451 92 447 74 440 58 C 432 42 423 28 411 16 C 399 4 384 -5 368 -12 C 352 -19 335 -23 317 -23 C 299 -23 281 -19 265 -12 C 249 -5 235 4 223 16 C 211 28 201 42 194 58 C 187 74 184 92 184 111 C 184 129 187 146 194 163 C 201 179 211 194 223 207 C 235 219 249 229 265 237 C 281 244 299 248 317 248 C 335 248 352 244 368 237 C 384 229 399 219 411 207 C 423 194 432 179 440 163 C 447 146 451 129 451 111 Z" unicode="." />
<glyph horiz-adv-x="870" d="M 205 -184 L 53 -184 L 666 1618 L 817 1618 L 205 -184 Z" unicode="/" />
<glyph horiz-adv-x="1270" d="M 1157 717 C 1157 598 1144 493 1118 401 C 1092 309 1055 231 1009 169 C 963 106 908 58 844 26 C 780 -6 711 -23 635 -23 C 559 -23 489 -6 425 26 C 361 58 306 106 260 169 C 214 231 178 309 152 401 C 126 493 113 598 113 717 C 113 835 126 941 152 1033 C 178 1125 214 1202 260 1265 C 306 1327 361 1375 425 1407 C 489 1439 559 1456 635 1456 C 711 1456 780 1439 844 1407 C 908 1375 963 1327 1009 1265 C 1055 1202 1092 1125 1118 1033 C 1144 941 1157 835 1157 717 Z M 999 717 C 999 809 990 892 973 966 C 956 1040 932 1102 900 1154 C 868 1205 830 1244 786 1272 C 741 1299 691 1313 635 1313 C 579 1313 528 1299 483 1272 C 438 1244 400 1205 368 1154 C 336 1102 312 1040 295 966 C 278 892 270 809 270 717 C 270 624 278 541 295 467 C 312 393 336 331 368 280 C 400 228 438 189 483 162 C 528 134 579 121 635 121 C 691 121 741 134 786 162 C 830 189 868 228 900 280 C 932 331 956 393 973 467 C 990 541 999 624 999 717 Z" unicode="0" />
<glyph horiz-adv-x="1270" d="M 270 0 L 270 141 L 586 141 L 586 1147 L 305 1147 L 305 1247 C 349 1249 389 1254 425 1261 C 461 1268 493 1279 520 1294 C 547 1308 569 1327 587 1350 C 605 1372 617 1400 623 1434 L 743 1434 L 743 141 L 1030 141 L 1030 0 L 270 0 Z" unicode="1" />
<glyph horiz-adv-x="1270" d="M 113 0 C 117 88 133 168 161 240 C 189 312 227 376 276 431 C 324 486 378 535 437 577 C 496 619 550 656 598 686 C 666 730 722 769 766 802 C 810 835 844 866 868 894 C 892 922 909 950 918 977 C 927 1004 932 1035 932 1069 C 932 1145 904 1205 850 1248 C 796 1291 717 1313 614 1313 C 570 1313 531 1309 496 1301 C 460 1293 428 1283 399 1270 C 369 1257 342 1242 317 1225 C 292 1207 268 1189 246 1171 L 154 1286 C 183 1308 214 1330 247 1351 C 279 1371 315 1389 353 1405 C 391 1421 432 1433 476 1442 C 520 1451 569 1456 621 1456 C 686 1456 747 1448 804 1433 C 860 1418 910 1395 952 1364 C 994 1333 1027 1294 1051 1246 C 1075 1198 1087 1142 1087 1077 C 1087 1021 1080 973 1066 933 C 1052 893 1031 855 1001 821 C 971 786 931 751 883 716 C 835 681 776 641 707 596 C 655 562 606 528 559 494 C 511 460 469 424 432 388 C 394 351 365 314 343 276 C 321 238 305 196 297 152 L 1104 152 L 1104 0 L 113 0 Z" unicode="2" />
<glyph horiz-adv-x="1270" d="M 1094 412 C 1094 344 1082 283 1058 229 C 1034 175 999 129 954 92 C 909 54 854 26 789 6 C 724 -13 651 -23 569 -23 C 517 -23 469 -18 423 -8 C 377 1 335 14 295 31 C 255 47 218 67 184 89 C 150 111 120 135 94 160 L 197 272 C 254 220 314 182 378 158 C 441 133 507 121 575 121 C 693 121 783 145 844 193 C 905 241 936 313 936 408 C 936 452 927 490 910 524 C 892 558 868 586 837 609 C 805 631 768 648 724 660 C 680 672 631 678 578 678 L 477 678 L 477 815 L 580 815 C 674 815 746 837 796 881 C 846 925 872 985 872 1063 C 872 1098 866 1131 856 1161 C 845 1191 827 1218 802 1241 C 777 1263 744 1281 704 1294 C 663 1306 613 1313 553 1313 C 490 1313 433 1301 382 1278 C 331 1255 287 1227 250 1194 L 154 1303 C 174 1321 199 1339 228 1357 C 256 1375 288 1392 323 1407 C 357 1421 394 1433 434 1442 C 473 1451 514 1456 557 1456 C 622 1456 683 1448 741 1433 C 799 1418 849 1395 892 1365 C 934 1335 968 1296 993 1250 C 1017 1203 1030 1148 1030 1085 C 1030 1042 1025 1004 1015 970 C 1005 936 991 906 973 880 C 955 853 933 829 908 809 C 882 788 854 770 823 754 C 857 745 891 732 924 714 C 956 696 985 674 1011 646 C 1036 618 1056 584 1071 546 C 1086 507 1094 462 1094 412 Z" unicode="3" />
<glyph horiz-adv-x="1270" d="M 983 342 L 983 0 L 836 0 L 836 342 L 92 342 L 92 475 L 813 1434 L 983 1434 L 983 479 L 1171 479 L 1171 342 L 983 342 Z M 836 1229 L 270 479 L 836 479 L 836 1229 Z" unicode="4" />
<glyph horiz-adv-x="1270" d="M 1133 477 C 1133 390 1119 315 1093 253 C 1066 190 1029 138 981 97 C 933 56 877 26 811 6 C 745 -13 672 -23 594 -23 C 505 -23 423 -11 347 13 C 271 37 203 69 141 109 L 219 236 C 273 202 333 174 399 153 C 465 131 534 121 606 121 C 667 121 721 129 767 146 C 813 162 852 186 883 217 C 913 247 936 284 952 326 C 967 368 975 415 975 467 C 975 562 945 636 885 689 C 825 741 741 768 633 768 C 599 768 569 765 541 761 C 513 757 488 751 464 743 C 440 735 417 725 396 714 C 374 702 354 690 334 676 L 176 737 L 225 1434 L 1047 1434 L 1047 1282 L 362 1282 L 328 821 C 364 845 408 866 461 884 C 514 902 575 911 643 911 C 725 911 796 900 858 879 C 919 858 970 829 1011 791 C 1051 753 1082 707 1102 654 C 1122 600 1133 541 1133 477 Z" unicode="5" />
<glyph horiz-adv-x="1270" d="M 1174 442 C 1174 365 1160 298 1133 240 C 1106 182 1069 133 1021 94 C 973 55 917 26 853 6 C 789 -13 719 -23 645 -23 C 573 -23 506 -12 444 8 C 382 28 327 61 281 106 C 234 151 197 209 171 281 C 144 353 131 440 131 543 C 131 605 137 669 149 737 C 161 804 180 870 206 936 C 232 1002 267 1065 310 1125 C 352 1185 404 1238 466 1285 C 527 1332 599 1371 681 1401 C 763 1431 856 1450 961 1456 L 961 1315 C 771 1298 620 1239 508 1138 C 396 1036 321 895 285 713 C 307 737 332 760 359 780 C 386 800 416 818 450 833 C 483 848 520 860 561 868 C 601 876 647 881 698 881 C 764 881 825 872 883 854 C 941 836 991 808 1034 772 C 1077 736 1111 690 1136 635 C 1161 580 1174 516 1174 442 Z M 1016 434 C 1016 482 1007 524 991 562 C 975 600 951 632 921 658 C 890 684 852 703 808 717 C 764 730 713 737 657 737 C 600 737 549 729 504 715 C 458 700 420 679 388 653 C 356 627 331 595 314 558 C 297 520 289 479 289 434 C 289 389 297 348 315 310 C 332 272 356 239 388 211 C 420 183 458 161 503 145 C 547 129 597 121 651 121 C 710 121 762 128 808 144 C 854 159 892 180 923 208 C 953 236 976 269 992 307 C 1008 345 1016 388 1016 434 Z" unicode="6" />
<glyph horiz-adv-x="1270" d="M 1153 1284 C 1083 1206 1018 1121 956 1031 C 894 940 839 842 791 736 C 743 630 705 515 676 393 C 647 271 631 140 629 0 L 467 0 C 471 128 485 251 511 369 C 537 486 571 598 615 704 C 659 810 711 912 771 1008 C 831 1104 897 1195 969 1282 L 117 1282 L 117 1434 L 1153 1434 L 1153 1284 Z" unicode="7" />
<glyph horiz-adv-x="1270" d="M 1151 403 C 1151 333 1138 272 1114 219 C 1089 166 1054 122 1009 86 C 963 50 909 22 845 4 C 781 -13 709 -23 631 -23 C 552 -23 481 -14 418 4 C 355 22 301 48 257 84 C 213 120 179 164 155 216 C 131 268 119 329 119 399 C 119 447 125 491 138 530 C 150 569 168 603 190 632 C 212 660 239 686 273 710 C 307 734 347 754 393 770 C 361 782 331 798 305 816 C 279 834 256 856 237 881 C 217 906 202 934 192 966 C 181 998 176 1033 176 1073 C 176 1127 186 1178 206 1225 C 226 1271 255 1312 294 1346 C 333 1380 381 1407 438 1427 C 495 1446 561 1456 635 1456 C 709 1456 774 1446 831 1427 C 888 1408 936 1382 975 1348 C 1013 1314 1042 1274 1062 1228 C 1082 1181 1092 1130 1092 1075 C 1092 1037 1086 1002 1076 972 C 1066 941 1051 913 1032 889 C 1013 864 990 842 963 823 C 936 804 906 788 874 774 C 918 758 958 739 992 716 C 1026 692 1056 664 1081 632 C 1105 600 1123 565 1134 529 C 1145 492 1151 450 1151 403 Z M 936 1071 C 936 1101 930 1130 919 1160 C 908 1189 890 1215 866 1238 C 842 1261 810 1280 772 1294 C 734 1308 687 1315 633 1315 C 577 1315 530 1308 492 1294 C 454 1280 423 1262 399 1240 C 375 1218 358 1192 348 1163 C 337 1134 332 1105 332 1075 C 332 1041 339 1009 353 979 C 367 949 387 924 413 903 C 439 881 470 864 508 852 C 545 840 587 834 635 834 C 681 834 722 840 759 852 C 796 864 828 881 854 903 C 880 925 901 950 915 979 C 929 1007 936 1038 936 1071 Z M 993 399 C 993 440 985 478 969 514 C 953 550 929 581 899 607 C 868 633 830 653 786 668 C 741 682 690 690 633 690 C 575 690 523 682 479 668 C 434 654 396 634 366 608 C 336 582 313 552 297 517 C 281 482 274 444 274 403 C 274 361 281 322 296 288 C 311 253 334 223 364 198 C 394 173 432 154 478 140 C 523 126 576 119 637 119 C 697 119 749 125 794 139 C 838 152 875 171 905 196 C 934 220 956 250 971 284 C 985 318 993 357 993 399 Z" unicode="8" />
<glyph horiz-adv-x="1270" d="M 981 999 C 981 1043 972 1085 955 1123 C 937 1161 913 1195 881 1223 C 849 1251 811 1273 767 1289 C 722 1305 672 1313 618 1313 C 558 1313 506 1305 461 1290 C 415 1274 377 1253 347 1225 C 316 1197 293 1164 277 1126 C 261 1087 254 1045 254 999 C 254 903 285 828 349 775 C 413 722 500 696 612 696 C 668 696 719 703 765 717 C 811 731 850 752 882 779 C 914 805 938 837 955 875 C 972 912 981 953 981 999 Z M 1139 891 C 1139 829 1133 764 1121 696 C 1109 628 1089 562 1063 496 C 1037 430 1002 368 960 308 C 917 248 865 194 804 147 C 742 100 671 61 589 31 C 507 1 413 -17 309 -23 L 309 119 C 498 135 649 194 761 295 C 873 396 947 538 985 721 C 961 696 936 673 910 653 C 883 633 853 615 820 600 C 786 585 749 573 708 565 C 667 557 621 553 571 553 C 505 553 444 561 386 579 C 328 597 278 624 235 660 C 192 696 158 742 133 797 C 108 852 96 917 96 991 C 96 1067 109 1135 136 1193 C 163 1251 200 1299 248 1338 C 296 1377 352 1406 416 1426 C 480 1446 550 1456 625 1456 C 695 1456 762 1445 825 1425 C 887 1404 942 1371 988 1326 C 1034 1281 1071 1223 1098 1151 C 1125 1079 1139 993 1139 891 Z" unicode="9" />
<glyph horiz-adv-x="635" d="M 451 961 C 451 942 447 924 440 908 C 432 892 423 878 411 866 C 399 854 384 844 368 837 C 352 830 335 827 317 827 C 299 827 281 830 265 837 C 249 844 235 854 223 866 C 211 878 201 892 194 908 C 187 924 184 942 184 961 C 184 979 187 996 194 1013 C 201 1029 211 1044 223 1057 C 235 1069 249 1079 265 1087 C 281 1094 299 1098 317 1098 C 335 1098 352 1094 368 1087 C 384 1079 399 1069 411 1057 C 423 1044 432 1029 440 1013 C 447 996 451 979 451 961 Z M 451 111 C 451 92 447 74 440 58 C 432 42 423 28 411 16 C 399 4 384 -5 368 -12 C 352 -19 335 -23 317 -23 C 299 -23 281 -19 265 -12 C 249 -5 235 4 223 16 C 211 28 201 42 194 58 C 187 74 184 92 184 111 C 184 129 187 146 194 163 C 201 179 211 194 223 207 C 235 219 249 229 265 237 C 281 244 299 248 317 248 C 335 248 352 244 368 237 C 384 229 399 219 411 207 C 423 194 432 179 440 163 C 447 146 451 129 451 111 Z" unicode=":" />
<glyph horiz-adv-x="635" d="M 451 961 C 451 942 447 924 440 908 C 432 892 423 878 411 866 C 399 854 384 844 368 837 C 352 830 335 827 317 827 C 299 827 281 830 265 837 C 249 844 235 854 223 866 C 211 878 201 892 194 908 C 187 924 184 942 184 961 C 184 979 187 996 194 1013 C 201 1029 211 1044 223 1057 C 235 1069 249 1079 265 1087 C 281 1094 299 1098 317 1098 C 335 1098 352 1094 368 1087 C 384 1079 399 1069 411 1057 C 423 1044 432 1029 440 1013 C 447 996 451 979 451 961 Z M 289 -242 L 178 -242 L 209 236 L 422 236 L 289 -242 Z" unicode=";" />
<glyph horiz-adv-x="1270" d="M 184 621 L 184 788 L 1094 1356 L 1094 1190 L 319 707 L 1094 223 L 1094 53 L 184 621 Z" unicode="&#x3C;" />
<glyph horiz-adv-x="1270" d="M 178 856 L 178 999 L 1092 999 L 1092 856 L 178 856 Z M 178 410 L 178 553 L 1092 553 L 1092 410 L 178 410 Z" unicode="=" />
<glyph horiz-adv-x="1270" d="M 176 53 L 176 219 L 950 702 L 176 1186 L 176 1356 L 1085 788 L 1085 621 L 176 53 Z" unicode="&#x3E;" />
<glyph horiz-adv-x="1149" d="M 1012 1104 C 1012 1054 1006 1011 995 975 C 983 939 967 908 945 880 C 923 852 896 827 865 804 C 833 781 798 757 758 733 C 724 711 696 691 676 673 C 655 654 639 632 628 608 C 617 583 610 553 607 518 C 603 483 602 439 602 385 L 444 385 C 444 446 446 500 451 548 C 455 595 466 636 483 670 C 500 704 525 736 558 764 C 590 792 633 822 686 854 C 712 870 736 886 757 902 C 777 918 795 935 809 953 C 823 971 833 992 841 1014 C 848 1036 852 1062 852 1092 C 852 1157 825 1210 772 1250 C 718 1290 649 1311 563 1311 C 487 1311 420 1296 361 1268 C 301 1240 245 1201 193 1153 L 90 1266 C 117 1292 148 1317 182 1340 C 216 1363 253 1383 293 1400 C 333 1417 376 1431 422 1441 C 468 1451 517 1456 569 1456 C 633 1456 693 1448 747 1434 C 801 1419 848 1397 888 1367 C 927 1337 957 1301 979 1257 C 1001 1213 1012 1162 1012 1104 Z M 645 102 C 645 85 641 69 634 54 C 627 39 618 26 607 14 C 595 2 582 -6 567 -13 C 552 -19 536 -23 520 -23 C 503 -23 487 -19 472 -13 C 457 -6 444 2 432 14 C 420 26 411 39 405 54 C 398 69 395 85 395 102 C 395 118 398 134 405 150 C 411 166 420 180 432 192 C 444 204 457 213 472 220 C 487 227 503 231 520 231 C 536 231 552 227 567 220 C 582 213 595 204 607 192 C 618 180 627 166 634 150 C 641 134 645 118 645 102 Z" unicode="?" />
<glyph horiz-adv-x="1712" d="M 1595 737 C 1595 659 1587 594 1573 540 C 1559 486 1538 442 1512 408 C 1485 374 1453 349 1416 334 C 1379 318 1338 311 1292 311 C 1266 311 1242 314 1220 321 C 1197 327 1176 336 1158 348 C 1139 360 1122 373 1108 389 C 1094 405 1082 422 1073 440 C 1042 400 1004 369 959 346 C 914 322 863 311 807 311 C 762 311 721 316 683 328 C 645 339 612 356 584 380 C 556 403 534 432 518 467 C 502 502 494 544 494 592 C 494 635 502 673 519 707 C 536 740 559 768 589 791 C 619 813 654 830 694 842 C 734 854 778 860 825 860 C 879 860 924 854 960 844 C 996 833 1027 820 1053 805 L 1053 926 C 1053 970 1036 1002 1003 1024 C 970 1046 916 1057 842 1057 C 804 1057 768 1052 733 1044 C 698 1035 665 1023 633 1008 L 588 1096 C 629 1116 671 1132 715 1143 C 759 1153 806 1159 856 1159 C 901 1159 942 1155 980 1147 C 1017 1139 1049 1126 1075 1108 C 1101 1090 1122 1067 1137 1038 C 1151 1009 1159 974 1159 932 L 1159 537 C 1159 495 1171 462 1197 438 C 1223 414 1259 403 1305 403 C 1332 403 1357 408 1380 420 C 1403 432 1423 451 1440 477 C 1456 503 1469 538 1479 580 C 1488 622 1493 674 1493 735 C 1493 828 1477 913 1445 990 C 1413 1066 1368 1132 1312 1187 C 1255 1242 1188 1285 1110 1315 C 1032 1345 948 1360 856 1360 C 764 1360 679 1344 601 1314 C 523 1284 455 1241 399 1185 C 342 1129 298 1061 266 983 C 234 904 219 817 219 721 C 219 623 234 535 266 455 C 298 375 342 307 399 251 C 455 195 523 151 601 120 C 679 89 764 74 856 74 C 910 74 960 79 1004 89 C 1048 99 1091 115 1135 137 L 1171 47 C 1141 33 1114 22 1089 13 C 1063 4 1038 -2 1014 -8 C 989 -13 964 -17 938 -19 C 912 -21 885 -23 856 -23 C 784 -23 716 -14 652 2 C 588 18 528 42 474 73 C 419 104 370 142 326 186 C 282 230 244 280 213 335 C 182 389 158 449 142 513 C 125 577 117 645 117 717 C 117 788 125 856 142 920 C 158 984 182 1044 213 1099 C 244 1153 282 1203 326 1247 C 370 1291 419 1328 474 1359 C 528 1390 588 1414 652 1431 C 716 1447 784 1456 856 1456 C 928 1456 997 1447 1062 1430 C 1126 1412 1186 1388 1241 1356 C 1295 1324 1345 1286 1389 1242 C 1433 1198 1470 1149 1500 1096 C 1530 1042 1554 985 1570 925 C 1586 864 1595 801 1595 737 Z M 1053 702 C 1027 717 994 731 955 743 C 915 755 869 762 815 762 C 784 762 756 758 731 750 C 705 742 683 730 665 716 C 647 701 633 684 623 664 C 613 644 608 622 608 598 C 608 538 624 492 658 461 C 691 429 744 414 817 414 C 841 414 864 417 888 423 C 911 429 933 437 953 448 C 973 459 992 472 1009 487 C 1026 502 1041 519 1053 537 L 1053 702 Z" unicode="@" />
<glyph horiz-adv-x="1389" d="M 1280 0 L 1112 0 L 989 365 L 397 365 L 272 0 L 109 0 L 606 1434 L 782 1434 L 1280 0 Z M 940 510 L 694 1243 L 446 510 L 940 510 Z" unicode="A" />
<glyph horiz-adv-x="1282" d="M 1169 424 C 1169 282 1128 176 1048 106 C 968 35 852 0 702 0 L 188 0 L 188 1434 L 713 1434 C 769 1434 821 1426 869 1412 C 917 1398 958 1376 992 1346 C 1026 1316 1053 1279 1073 1234 C 1092 1189 1102 1136 1102 1075 C 1102 1035 1096 1000 1086 969 C 1076 937 1061 910 1043 886 C 1025 862 1003 841 978 824 C 952 806 925 792 895 782 C 943 769 984 751 1018 729 C 1052 707 1080 681 1102 651 C 1124 621 1140 588 1152 550 C 1163 512 1169 470 1169 424 Z M 942 1069 C 942 1101 937 1131 927 1158 C 917 1185 903 1208 884 1227 C 864 1246 840 1261 811 1272 C 781 1282 747 1288 707 1288 L 348 1288 L 348 842 L 694 842 C 738 842 776 848 808 860 C 839 872 865 888 885 908 C 905 928 919 952 928 980 C 937 1008 942 1037 942 1069 Z M 1010 416 C 1010 460 1002 500 988 535 C 974 570 953 600 927 624 C 901 648 869 666 831 679 C 793 691 751 698 705 698 L 348 698 L 348 145 L 713 145 C 767 145 812 151 850 164 C 888 177 918 195 942 219 C 966 242 983 270 994 304 C 1004 337 1010 374 1010 416 Z" unicode="B" />
<glyph horiz-adv-x="1286" d="M 1042 1130 C 1018 1161 995 1188 972 1211 C 949 1233 925 1252 899 1267 C 873 1282 844 1293 813 1300 C 782 1307 747 1311 709 1311 C 647 1311 591 1296 539 1267 C 487 1238 443 1197 406 1145 C 368 1093 339 1030 318 958 C 297 885 287 805 287 719 C 287 631 297 551 319 478 C 340 405 370 342 408 290 C 446 237 490 196 542 167 C 594 137 650 123 711 123 C 788 123 855 139 911 172 C 967 205 1019 251 1065 311 L 1176 215 C 1150 179 1120 147 1088 118 C 1055 89 1019 64 980 43 C 941 22 899 6 853 -5 C 807 -17 759 -23 707 -23 C 648 -23 593 -14 542 2 C 490 19 443 43 400 75 C 357 106 319 144 285 188 C 251 232 223 282 199 337 C 175 391 157 450 145 514 C 133 578 127 645 127 715 C 127 821 141 920 170 1010 C 198 1100 238 1179 290 1245 C 342 1311 403 1362 475 1400 C 547 1437 626 1456 713 1456 C 811 1456 898 1437 972 1400 C 1046 1362 1112 1305 1169 1227 L 1042 1130 Z" unicode="C" />
<glyph horiz-adv-x="1348" d="M 1221 727 C 1221 662 1216 603 1208 549 C 1200 495 1185 438 1163 378 C 1141 318 1108 263 1065 212 C 1021 161 972 120 916 89 C 860 57 801 35 739 21 C 676 7 609 0 539 0 L 188 0 L 188 1434 L 567 1434 C 661 1434 748 1420 828 1392 C 908 1364 977 1322 1035 1265 C 1093 1207 1139 1134 1172 1045 C 1204 955 1221 849 1221 727 Z M 1061 721 C 1061 812 1050 893 1028 964 C 1006 1034 974 1094 932 1142 C 889 1190 836 1226 773 1251 C 710 1275 637 1288 555 1288 L 348 1288 L 348 145 L 559 145 C 636 145 706 155 768 177 C 830 198 882 232 926 278 C 969 324 1002 384 1026 457 C 1049 529 1061 617 1061 721 Z" unicode="D" />
<glyph horiz-adv-x="1202" d="M 1085 0 L 188 0 L 188 1434 L 1055 1434 L 1055 1288 L 348 1288 L 348 838 L 920 838 L 920 692 L 348 692 L 348 145 L 1085 145 L 1085 0 Z" unicode="E" />
<glyph horiz-adv-x="1122" d="M 348 1288 L 348 813 L 741 813 L 741 668 L 348 668 L 348 0 L 188 0 L 188 1434 L 1030 1434 L 1030 1288 L 348 1288 Z" unicode="F" />
<glyph horiz-adv-x="1350" d="M 1237 571 C 1237 472 1223 385 1197 311 C 1170 237 1133 175 1086 126 C 1038 76 982 39 918 14 C 853 -10 783 -23 707 -23 C 615 -23 532 -2 458 39 C 384 80 323 134 276 200 C 228 266 192 342 167 426 C 141 510 128 607 127 715 C 127 821 141 920 170 1010 C 198 1100 238 1179 290 1245 C 342 1311 403 1362 475 1400 C 547 1437 626 1456 713 1456 C 811 1456 898 1437 972 1400 C 1046 1362 1112 1305 1169 1227 L 1042 1130 C 1018 1161 995 1188 972 1211 C 949 1233 925 1252 899 1267 C 873 1282 844 1293 813 1300 C 782 1307 747 1311 709 1311 C 647 1311 591 1296 539 1267 C 487 1238 443 1197 406 1145 C 368 1093 339 1030 318 958 C 297 885 287 805 287 719 C 287 631 297 551 319 478 C 341 405 371 342 409 290 C 447 237 491 196 543 167 C 595 137 651 123 711 123 C 831 123 922 159 986 231 C 1049 303 1081 409 1081 551 L 1081 563 L 823 563 L 823 711 L 1237 711 L 1237 571 Z" unicode="G" />
<glyph horiz-adv-x="1409" d="M 1061 0 L 1061 676 L 348 676 L 348 0 L 188 0 L 188 1434 L 348 1434 L 348 821 L 1061 821 L 1061 1434 L 1221 1434 L 1221 0 L 1061 0 Z" unicode="H" />
<glyph horiz-adv-x="557" d="M 199 0 L 199 1434 L 358 1434 L 358 0 L 199 0 Z" unicode="I" />
<glyph horiz-adv-x="1184" d="M 1006 549 C 1006 357 965 214 884 119 C 803 24 680 -23 516 -23 C 455 -23 401 -15 353 0 C 305 14 263 36 226 66 C 189 96 157 132 130 175 C 102 218 79 268 61 324 L 213 375 C 227 335 243 300 261 269 C 279 238 300 212 325 190 C 349 168 378 152 410 140 C 442 128 479 123 522 123 C 579 123 628 131 669 148 C 710 164 744 190 770 226 C 796 261 815 306 827 360 C 839 414 846 479 846 555 L 846 1434 L 1006 1434 L 1006 549 Z" unicode="J" />
<glyph horiz-adv-x="1315" d="M 1227 0 L 1044 0 L 621 764 L 348 412 L 348 0 L 188 0 L 188 1434 L 348 1434 L 348 625 L 973 1434 L 1147 1434 L 727 895 L 1227 0 Z" unicode="K" />
<glyph horiz-adv-x="1178" d="M 188 0 L 188 1434 L 348 1434 L 348 145 L 1057 145 L 1057 0 L 188 0 Z" unicode="L" />
<glyph horiz-adv-x="1614" d="M 1425 0 L 1272 0 L 1272 1094 L 803 -37 L 342 1094 L 342 0 L 188 0 L 188 1434 L 367 1434 L 807 317 L 1251 1434 L 1425 1434 L 1425 0 Z" unicode="M" />
<glyph horiz-adv-x="1409" d="M 1221 0 L 1071 0 L 342 1141 L 342 0 L 188 0 L 188 1434 L 344 1434 L 1067 270 L 1067 1434 L 1221 1434 L 1221 0 Z" unicode="N" />
<glyph horiz-adv-x="1444" d="M 1317 719 C 1317 611 1302 511 1273 421 C 1244 330 1203 252 1151 186 C 1099 120 1036 68 962 32 C 888 -4 807 -23 719 -23 C 629 -23 548 -4 476 31 C 403 67 341 118 289 184 C 237 249 197 327 169 417 C 141 507 127 607 127 715 C 127 823 141 922 170 1013 C 198 1103 239 1181 291 1247 C 343 1313 406 1364 479 1401 C 552 1437 633 1456 723 1456 C 811 1456 892 1437 965 1401 C 1038 1365 1101 1314 1153 1249 C 1205 1184 1245 1106 1274 1016 C 1302 926 1317 827 1317 719 Z M 1157 715 C 1157 805 1145 886 1123 960 C 1101 1033 1070 1096 1031 1148 C 991 1200 945 1240 891 1268 C 837 1296 779 1311 717 1311 C 655 1311 597 1297 545 1269 C 492 1241 447 1201 409 1150 C 371 1098 341 1036 319 963 C 297 890 287 809 287 719 C 287 629 298 547 320 474 C 342 400 373 338 412 286 C 451 234 497 193 551 165 C 604 137 662 123 725 123 C 787 123 844 136 897 164 C 949 192 995 231 1034 283 C 1072 335 1102 397 1124 470 C 1146 543 1157 625 1157 715 Z" unicode="O" />
<glyph horiz-adv-x="1266" d="M 1182 1006 C 1182 934 1170 871 1146 816 C 1122 761 1089 715 1046 677 C 1003 639 952 611 893 592 C 833 572 768 563 696 563 L 348 563 L 348 0 L 188 0 L 188 1434 L 725 1434 C 789 1434 850 1425 906 1408 C 962 1390 1010 1364 1051 1329 C 1091 1293 1123 1249 1147 1195 C 1170 1141 1182 1078 1182 1006 Z M 1022 999 C 1022 1058 1012 1107 992 1147 C 972 1186 946 1216 916 1236 C 885 1256 853 1269 820 1277 C 787 1284 753 1288 719 1288 L 348 1288 L 348 709 L 698 709 C 808 709 890 733 943 782 C 995 831 1022 903 1022 999 Z" unicode="P" />
<glyph horiz-adv-x="1444" d="M 1317 719 C 1317 652 1311 588 1299 528 C 1287 468 1271 411 1249 359 C 1227 306 1201 258 1170 215 C 1138 171 1103 134 1065 102 L 1157 -47 L 1026 -125 L 936 23 C 902 8 868 -3 832 -11 C 796 -19 758 -23 719 -23 C 629 -23 548 -4 476 31 C 403 67 341 118 289 184 C 237 249 197 327 169 417 C 141 507 127 607 127 715 C 127 823 141 922 170 1013 C 198 1103 239 1181 291 1247 C 343 1313 406 1364 479 1401 C 552 1437 633 1456 723 1456 C 811 1456 892 1437 965 1401 C 1038 1365 1101 1314 1153 1249 C 1205 1184 1245 1106 1274 1016 C 1302 926 1317 827 1317 719 Z M 1157 715 C 1157 805 1145 886 1123 960 C 1101 1033 1070 1096 1031 1148 C 991 1200 945 1240 891 1268 C 837 1296 779 1311 717 1311 C 655 1311 597 1297 545 1269 C 492 1241 447 1201 409 1150 C 371 1098 341 1036 319 963 C 297 890 287 809 287 719 C 287 629 298 547 320 474 C 342 400 373 338 412 286 C 451 234 497 193 551 165 C 604 137 662 123 725 123 C 773 123 818 131 860 147 L 743 338 L 874 416 L 989 227 C 1041 277 1082 342 1112 424 C 1142 506 1157 603 1157 715 Z" unicode="Q" />
<glyph horiz-adv-x="1331" d="M 995 0 L 688 610 L 348 610 L 348 0 L 188 0 L 188 1434 L 756 1434 C 818 1434 877 1425 931 1409 C 985 1393 1033 1368 1073 1335 C 1113 1301 1144 1259 1167 1208 C 1190 1157 1202 1097 1202 1028 C 1202 972 1194 921 1178 876 C 1162 831 1139 792 1110 758 C 1080 724 1045 695 1003 673 C 961 650 915 633 864 623 L 1180 0 L 995 0 Z M 750 1288 L 348 1288 L 348 754 L 729 754 C 775 754 816 758 854 767 C 892 775 925 790 955 812 C 984 833 1006 862 1020 898 C 1034 934 1042 975 1042 1022 C 1042 1068 1035 1108 1021 1143 C 1007 1178 985 1207 957 1229 C 928 1251 896 1267 860 1275 C 824 1283 788 1288 750 1288 Z" unicode="R" />
<glyph horiz-adv-x="1212" d="M 1069 377 C 1069 321 1058 268 1037 220 C 1015 171 984 129 944 93 C 903 57 853 28 794 8 C 735 -12 668 -23 594 -23 C 545 -23 498 -18 452 -8 C 406 2 363 15 322 33 C 281 51 243 72 208 96 C 172 120 141 147 113 176 L 219 295 C 273 242 332 200 395 169 C 457 138 526 123 600 123 C 648 123 691 128 729 140 C 767 151 799 167 826 189 C 852 210 873 236 887 266 C 901 296 909 331 909 369 C 909 402 903 432 892 459 C 881 486 862 511 836 535 C 810 559 775 582 731 604 C 687 626 632 648 567 672 C 489 699 424 726 372 754 C 319 782 276 812 244 844 C 212 876 189 912 175 952 C 161 992 154 1038 154 1090 C 154 1147 164 1198 186 1244 C 208 1289 238 1327 277 1359 C 316 1390 363 1414 418 1431 C 473 1447 534 1456 602 1456 C 650 1456 694 1452 734 1445 C 774 1438 812 1428 847 1415 C 882 1402 915 1386 946 1367 C 977 1348 1008 1327 1038 1303 L 936 1178 C 910 1199 884 1218 858 1235 C 832 1251 805 1265 778 1277 C 750 1288 721 1296 691 1302 C 661 1308 628 1311 592 1311 C 542 1311 500 1305 465 1294 C 429 1282 400 1267 378 1247 C 356 1227 339 1205 329 1180 C 318 1154 313 1128 313 1100 C 313 1070 317 1043 326 1019 C 334 995 351 971 376 949 C 400 927 435 904 479 882 C 523 860 581 836 653 811 C 732 782 798 753 852 724 C 905 695 948 664 980 630 C 1012 596 1034 559 1048 518 C 1062 477 1069 430 1069 377 Z" unicode="S" />
<glyph horiz-adv-x="1204" d="M 682 1288 L 682 0 L 522 0 L 522 1288 L 100 1288 L 100 1434 L 1104 1434 L 1104 1288 L 682 1288 Z" unicode="T" />
<glyph horiz-adv-x="1389" d="M 1210 582 C 1210 472 1197 378 1171 300 C 1145 222 1110 160 1066 114 C 1021 67 968 32 908 10 C 847 -11 776 -23 696 -23 C 615 -23 544 -11 483 10 C 421 32 368 67 323 114 C 277 160 242 222 216 300 C 190 378 178 472 178 582 L 178 1434 L 338 1434 L 338 586 C 338 430 368 313 428 237 C 488 161 580 123 705 123 C 827 123 915 160 969 234 C 1023 308 1051 424 1051 582 L 1051 1434 L 1210 1434 L 1210 582 Z" unicode="U" />
<glyph horiz-adv-x="1368" d="M 1260 1434 L 772 0 L 596 0 L 109 1434 L 276 1434 L 684 183 L 1096 1434 L 1260 1434 Z" unicode="V" />
<glyph horiz-adv-x="1753" d="M 1637 1434 L 1350 0 L 1169 0 L 875 1202 L 580 0 L 403 0 L 117 1434 L 276 1434 L 496 226 L 793 1434 L 965 1434 L 1260 226 L 1481 1434 L 1637 1434 Z" unicode="W" />
<glyph horiz-adv-x="1294" d="M 1178 0 L 997 0 L 647 597 L 293 0 L 117 0 L 563 745 L 154 1434 L 334 1434 L 649 897 L 965 1434 L 1141 1434 L 731 750 L 1178 0 Z" unicode="X" />
<glyph horiz-adv-x="1335" d="M 1239 1434 L 748 569 L 748 0 L 588 0 L 588 567 L 96 1434 L 279 1434 L 669 731 L 1061 1434 L 1239 1434 Z" unicode="Y" />
<glyph horiz-adv-x="1286" d="M 1149 0 L 125 0 L 125 139 L 973 1294 L 166 1294 L 166 1434 L 1149 1434 L 1149 1294 L 301 139 L 1149 139 L 1149 0 Z" unicode="Z" />
<glyph horiz-adv-x="721" d="M 195 -225 L 195 1434 L 592 1434 L 592 1309 L 344 1309 L 344 -100 L 592 -100 L 592 -225 L 195 -225 Z" unicode="[" />
<glyph horiz-adv-x="870" d="M 666 -184 L 53 1618 L 205 1618 L 817 -184 L 666 -184 Z" unicode="\" />
<glyph horiz-adv-x="721" d="M 129 -225 L 129 -100 L 377 -100 L 377 1309 L 129 1309 L 129 1434 L 526 1434 L 526 -225 L 129 -225 Z" unicode="]" />
<glyph horiz-adv-x="1143" d="M 870 782 L 569 1266 L 268 782 L 96 782 L 514 1434 L 629 1434 L 1047 782 L 870 782 Z" unicode="^" />
<glyph horiz-adv-x="1024" d="M 0 -313 L 0 -184 L 1024 -184 L 1024 -313 L 0 -313 Z" unicode="_" />
<glyph horiz-adv-x="1024" d="M 547 1219 L 238 1546 L 457 1546 L 668 1219 L 547 1219 Z" unicode="`" />
<glyph horiz-adv-x="1104" d="M 786 0 L 786 131 C 767 110 746 90 723 72 C 700 53 675 37 647 23 C 619 9 589 -2 557 -10 C 524 -18 489 -23 451 -23 C 409 -23 367 -17 326 -6 C 284 5 247 24 215 51 C 183 78 156 114 136 158 C 116 202 106 256 106 322 C 106 382 117 433 140 477 C 163 520 194 556 232 584 C 270 612 313 632 363 646 C 413 659 464 666 518 666 C 572 666 623 660 669 648 C 715 636 754 621 786 604 L 786 731 C 786 811 767 871 729 910 C 691 949 632 969 553 969 C 496 969 444 961 397 947 C 349 932 304 912 260 887 L 203 1012 C 250 1037 304 1058 366 1074 C 427 1090 493 1098 563 1098 C 621 1098 673 1091 720 1078 C 766 1065 806 1045 838 1017 C 870 989 895 953 913 909 C 931 865 940 812 940 750 L 940 0 L 786 0 Z M 786 481 C 768 491 750 499 732 507 C 713 515 693 521 671 527 C 649 532 624 536 598 539 C 572 541 542 543 510 543 C 430 543 368 524 324 488 C 280 452 258 400 258 332 C 258 292 263 257 274 228 C 284 199 299 175 318 157 C 337 138 360 124 387 115 C 414 106 444 102 477 102 C 511 102 544 106 574 114 C 604 122 633 134 659 149 C 685 163 708 180 730 200 C 751 220 770 241 786 264 L 786 481 Z" unicode="a" />
<glyph horiz-adv-x="1145" d="M 1032 555 C 1032 459 1021 376 1000 304 C 979 232 950 171 914 123 C 877 74 834 37 785 13 C 735 -10 683 -23 627 -23 C 559 -23 501 -9 453 16 C 404 42 361 77 324 121 L 324 0 L 170 0 L 170 1407 L 324 1493 L 324 944 C 342 964 363 984 385 1003 C 407 1021 432 1038 459 1052 C 485 1066 514 1077 546 1085 C 577 1093 611 1098 647 1098 C 701 1098 751 1087 798 1066 C 844 1045 885 1012 920 968 C 954 924 982 867 1002 799 C 1022 731 1032 649 1032 555 Z M 881 553 C 881 687 857 789 809 859 C 761 929 694 965 608 965 C 584 965 558 961 532 955 C 505 949 478 938 452 922 C 425 906 402 889 383 872 C 363 854 344 833 324 809 L 324 272 C 338 249 356 228 376 208 C 396 188 419 171 443 157 C 467 143 494 131 523 123 C 551 115 582 111 614 111 C 704 111 771 148 815 223 C 859 297 881 407 881 553 Z" unicode="b" />
<glyph horiz-adv-x="1014" d="M 911 127 C 888 103 864 82 840 64 C 815 46 789 30 761 17 C 733 4 702 -5 670 -12 C 638 -19 603 -23 565 -23 C 506 -23 449 -11 395 11 C 341 33 293 68 251 114 C 209 160 175 217 150 287 C 125 357 113 438 113 532 C 113 631 126 716 153 788 C 180 859 215 918 259 964 C 303 1010 352 1043 408 1065 C 463 1087 519 1098 575 1098 C 648 1098 712 1086 768 1062 C 824 1038 873 1007 915 971 L 823 856 C 803 873 784 888 765 902 C 745 916 725 927 705 937 C 685 946 663 953 640 958 C 617 962 592 965 565 965 C 523 965 483 955 447 937 C 411 918 379 891 353 855 C 327 819 306 775 291 723 C 275 671 268 611 268 545 C 268 479 274 419 288 366 C 302 312 322 267 348 229 C 374 191 405 161 443 141 C 481 121 523 111 571 111 C 597 111 621 113 643 119 C 665 124 686 131 706 141 C 726 151 745 163 763 177 C 781 191 800 207 819 225 L 911 127 Z" unicode="c" />
<glyph horiz-adv-x="1145" d="M 821 0 L 821 131 C 801 110 780 90 758 72 C 736 53 711 37 685 23 C 659 9 630 -2 599 -10 C 567 -18 534 -23 498 -23 C 444 -23 393 -12 347 8 C 300 29 259 62 225 106 C 190 150 163 207 143 275 C 123 343 113 425 113 520 C 113 615 123 699 144 771 C 165 843 194 903 231 952 C 267 1000 310 1037 360 1061 C 409 1085 462 1098 518 1098 C 552 1098 583 1094 612 1087 C 640 1080 667 1070 692 1058 C 716 1045 739 1030 760 1012 C 781 994 801 975 821 954 L 821 1407 L 975 1493 L 975 0 L 821 0 Z M 821 803 C 806 825 788 846 768 866 C 748 886 725 903 701 918 C 676 932 649 944 621 952 C 592 960 562 965 530 965 C 440 965 374 927 330 852 C 286 777 264 667 264 522 C 264 452 270 390 284 338 C 297 285 316 242 342 208 C 367 174 396 149 429 134 C 461 118 497 111 537 111 C 568 111 596 114 621 122 C 645 129 669 139 693 153 C 716 166 738 182 759 201 C 780 219 801 241 821 266 L 821 803 Z" unicode="d" />
<glyph horiz-adv-x="1106" d="M 989 569 C 989 550 988 534 987 522 C 986 510 985 497 983 485 L 266 485 C 270 427 279 376 294 330 C 309 284 329 244 355 212 C 380 179 410 154 446 137 C 481 119 521 111 565 111 C 596 111 624 113 650 117 C 676 121 700 128 723 137 C 746 145 769 156 791 169 C 813 181 837 196 862 213 L 934 102 C 902 81 871 63 842 47 C 813 31 784 18 754 8 C 724 -1 692 -9 659 -15 C 626 -20 589 -23 549 -23 C 516 -23 482 -18 448 -10 C 414 -2 380 11 348 30 C 316 48 285 72 257 102 C 228 131 203 167 182 209 C 160 251 143 299 131 355 C 119 410 113 473 113 543 C 113 628 124 705 146 774 C 168 842 199 901 239 949 C 278 997 325 1033 379 1059 C 433 1085 493 1098 557 1098 C 627 1098 689 1084 743 1058 C 797 1032 842 995 878 949 C 914 902 942 846 961 781 C 979 716 989 645 989 569 Z M 846 610 C 842 662 834 709 821 753 C 808 797 790 834 766 866 C 742 897 713 921 678 939 C 642 956 601 965 555 965 C 515 965 478 957 445 943 C 411 929 382 907 357 877 C 332 847 312 810 296 766 C 280 722 270 670 266 610 L 846 610 Z" unicode="e" />
<glyph horiz-adv-x="729" d="M 633 1323 C 615 1331 596 1337 576 1341 C 555 1345 532 1348 508 1348 C 492 1348 477 1346 463 1343 C 449 1339 438 1333 428 1325 C 418 1316 411 1304 405 1290 C 399 1276 397 1257 397 1235 L 397 1075 L 608 1075 L 608 946 L 397 946 L 397 0 L 244 0 L 244 946 L 96 946 L 96 1075 L 244 1075 L 244 1223 C 244 1271 250 1311 262 1345 C 274 1378 292 1405 314 1426 C 336 1447 363 1462 395 1472 C 426 1482 460 1487 498 1487 C 528 1487 554 1485 574 1482 C 594 1479 614 1474 633 1468 L 633 1323 Z" unicode="f" />
<glyph horiz-adv-x="1145" d="M 975 96 C 975 19 965 -49 946 -111 C 926 -173 894 -224 850 -266 C 808 -305 751 -335 677 -357 C 603 -379 509 -391 397 -395 L 358 -270 C 460 -270 541 -263 601 -250 C 661 -236 705 -218 733 -195 C 763 -169 785 -133 799 -88 C 813 -43 821 11 821 76 L 821 131 C 801 110 780 90 758 72 C 736 53 711 37 685 23 C 659 9 630 -2 599 -10 C 567 -18 534 -23 498 -23 C 444 -23 393 -12 347 8 C 300 29 259 62 225 106 C 190 150 163 207 143 275 C 123 343 113 425 113 520 C 113 615 123 699 144 771 C 165 843 194 903 231 952 C 267 1000 310 1037 360 1061 C 409 1085 462 1098 518 1098 C 552 1098 583 1094 612 1087 C 640 1080 667 1070 692 1058 C 716 1045 739 1030 760 1012 C 781 994 801 975 821 954 L 821 1075 L 975 1075 L 975 96 Z M 537 111 C 594 111 646 125 693 153 C 740 181 783 218 821 266 L 821 803 C 806 825 788 846 768 866 C 748 886 725 903 701 918 C 676 932 649 944 621 952 C 592 960 562 965 530 965 C 440 965 374 927 330 852 C 286 777 264 667 264 522 C 264 386 288 284 336 215 C 384 145 451 111 537 111 Z" unicode="g" />
<glyph horiz-adv-x="1161" d="M 844 0 L 844 629 C 844 745 823 830 782 884 C 740 938 676 965 590 965 C 552 965 517 958 485 945 C 453 932 425 912 401 885 C 377 857 358 822 344 780 C 330 738 324 687 324 629 L 324 0 L 170 0 L 170 1407 L 324 1493 L 324 944 C 339 966 357 987 377 1006 C 397 1024 419 1040 444 1054 C 469 1068 496 1078 526 1086 C 555 1094 587 1098 621 1098 C 677 1098 729 1089 775 1072 C 821 1055 861 1029 894 993 C 926 957 952 911 970 855 C 988 799 997 732 997 655 L 997 0 L 844 0 Z" unicode="h" />
<glyph horiz-adv-x="514" d="M 367 1376 C 367 1361 364 1347 358 1334 C 352 1321 345 1310 335 1300 C 325 1290 313 1282 300 1276 C 287 1270 274 1268 260 1268 C 244 1268 229 1270 215 1276 C 201 1282 190 1290 180 1300 C 170 1310 162 1321 156 1334 C 150 1347 147 1361 147 1376 C 147 1391 150 1405 156 1419 C 162 1433 170 1445 180 1455 C 190 1465 201 1472 215 1478 C 229 1484 244 1487 260 1487 C 274 1487 287 1484 300 1478 C 313 1472 325 1465 335 1455 C 345 1445 352 1433 358 1419 C 364 1405 367 1391 367 1376 Z M 180 0 L 180 1075 L 334 1075 L 334 0 L 180 0 Z" unicode="i" />
<glyph horiz-adv-x="514" d="M 367 1376 C 367 1361 364 1347 358 1334 C 352 1321 345 1310 335 1300 C 325 1290 313 1282 300 1276 C 287 1270 274 1268 260 1268 C 244 1268 229 1270 215 1276 C 201 1282 190 1290 180 1300 C 170 1310 162 1321 156 1334 C 150 1347 147 1361 147 1376 C 147 1391 150 1405 156 1419 C 162 1433 170 1445 180 1455 C 190 1465 201 1472 215 1478 C 229 1484 244 1487 260 1487 C 274 1487 287 1484 300 1478 C 313 1472 325 1465 335 1455 C 345 1445 352 1433 358 1419 C 364 1405 367 1391 367 1376 Z M 334 25 C 334 -36 330 -89 322 -135 C 314 -180 299 -219 276 -252 C 253 -285 221 -313 180 -336 C 138 -358 84 -378 16 -395 L -35 -281 C 13 -266 52 -251 81 -235 C 109 -219 131 -200 146 -178 C 160 -156 170 -128 174 -96 C 178 -63 180 -22 180 27 L 180 1075 L 334 1075 L 334 25 Z" unicode="j" />
<glyph horiz-adv-x="1034" d="M 782 0 L 510 565 L 324 309 L 324 0 L 170 0 L 170 1407 L 324 1493 L 324 513 L 719 1075 L 891 1075 L 608 694 L 948 0 L 782 0 Z" unicode="k" />
<glyph horiz-adv-x="514" d="M 180 0 L 180 1407 L 334 1493 L 334 0 L 180 0 Z" unicode="l" />
<glyph horiz-adv-x="1737" d="M 1419 0 L 1419 629 C 1419 690 1414 742 1404 785 C 1394 827 1380 862 1361 889 C 1342 915 1318 935 1289 947 C 1260 959 1226 965 1188 965 C 1151 965 1118 958 1089 946 C 1059 933 1034 913 1013 886 C 992 858 976 823 965 781 C 953 739 948 688 948 629 L 948 0 L 795 0 L 795 629 C 795 690 790 742 780 785 C 770 827 755 862 735 889 C 715 915 691 935 662 947 C 633 959 600 965 563 965 C 526 965 493 958 463 946 C 433 933 408 913 388 886 C 367 858 351 823 340 781 C 329 739 324 688 324 629 L 324 0 L 170 0 L 170 1075 L 324 1075 L 324 944 C 352 990 388 1027 433 1055 C 477 1083 532 1098 596 1098 C 662 1098 719 1082 769 1052 C 818 1022 859 975 891 913 C 907 939 924 963 944 985 C 963 1007 986 1027 1012 1044 C 1038 1060 1067 1073 1101 1083 C 1134 1093 1173 1098 1217 1098 C 1271 1098 1321 1089 1365 1073 C 1409 1056 1446 1030 1477 994 C 1507 958 1531 913 1548 857 C 1564 801 1573 733 1573 655 L 1573 0 L 1419 0 Z" unicode="m" />
<glyph horiz-adv-x="1165" d="M 844 0 L 844 629 C 844 745 823 830 782 884 C 740 938 676 965 590 965 C 552 965 517 958 485 945 C 453 932 425 912 401 885 C 377 857 358 822 344 780 C 330 738 324 687 324 629 L 324 0 L 170 0 L 170 1075 L 324 1075 L 324 944 C 339 966 357 987 377 1006 C 397 1024 419 1040 444 1054 C 469 1068 496 1078 526 1086 C 555 1094 587 1098 621 1098 C 677 1098 729 1089 775 1072 C 821 1055 861 1029 894 993 C 926 957 952 911 970 855 C 988 799 997 732 997 655 L 997 0 L 844 0 Z" unicode="n" />
<glyph horiz-adv-x="1159" d="M 1047 545 C 1047 453 1034 372 1010 302 C 985 231 951 172 909 124 C 867 76 817 39 760 14 C 702 -10 641 -23 575 -23 C 509 -23 448 -11 392 13 C 336 37 287 72 246 120 C 204 167 172 225 148 295 C 124 365 113 445 113 537 C 113 627 125 708 149 778 C 173 848 207 906 250 954 C 292 1001 342 1037 400 1061 C 457 1085 518 1098 584 1098 C 649 1098 710 1086 766 1063 C 822 1039 871 1004 913 958 C 955 911 987 853 1011 784 C 1035 715 1047 635 1047 545 Z M 893 541 C 893 611 885 673 870 726 C 854 779 833 823 806 859 C 778 894 745 920 707 938 C 669 956 626 965 580 965 C 533 965 490 956 452 938 C 414 920 381 894 354 859 C 326 823 305 779 290 726 C 275 673 268 611 268 541 C 268 470 275 408 290 354 C 305 300 326 256 354 220 C 381 184 414 156 452 138 C 490 120 533 111 580 111 C 626 111 669 120 707 138 C 745 156 778 184 806 220 C 833 256 854 300 870 354 C 885 408 893 470 893 541 Z" unicode="o" />
<glyph horiz-adv-x="1145" d="M 1032 555 C 1032 459 1021 376 1000 304 C 979 232 950 171 914 123 C 877 74 834 37 785 13 C 735 -10 683 -23 627 -23 C 559 -23 501 -9 453 16 C 404 42 361 77 324 121 L 324 -309 L 170 -395 L 170 1075 L 324 1075 L 324 944 C 367 992 416 1030 471 1057 C 525 1084 584 1098 647 1098 C 701 1098 751 1087 798 1066 C 844 1045 885 1012 920 968 C 954 924 982 867 1002 799 C 1022 731 1032 649 1032 555 Z M 881 553 C 881 685 857 786 809 858 C 761 929 694 965 608 965 C 552 965 501 951 453 923 C 405 895 362 857 324 809 L 324 272 C 338 249 356 228 376 208 C 396 188 419 171 443 157 C 467 143 494 131 523 123 C 551 115 582 111 614 111 C 704 111 771 148 815 223 C 859 297 881 407 881 553 Z" unicode="p" />
<glyph horiz-adv-x="1145" d="M 821 -395 L 821 131 C 775 81 726 43 674 17 C 621 -9 562 -23 498 -23 C 444 -23 393 -12 347 8 C 300 29 259 62 225 106 C 190 150 163 207 143 275 C 123 343 113 425 113 520 C 113 615 123 699 144 771 C 165 843 194 903 231 952 C 267 1000 310 1037 360 1061 C 409 1085 462 1098 518 1098 C 552 1098 583 1094 612 1087 C 640 1080 667 1070 692 1058 C 716 1045 739 1030 760 1012 C 781 994 801 975 821 954 L 821 1075 L 975 1075 L 975 -309 L 821 -395 Z M 821 803 C 806 825 788 846 768 866 C 748 886 725 903 701 918 C 676 932 649 944 621 952 C 592 960 562 965 530 965 C 440 965 374 927 330 852 C 286 777 264 667 264 522 C 264 386 288 284 336 215 C 384 145 451 111 537 111 C 594 111 646 125 693 153 C 740 181 783 218 821 266 L 821 803 Z" unicode="q" />
<glyph horiz-adv-x="834" d="M 719 915 C 697 927 674 937 649 945 C 623 952 593 956 557 956 C 482 956 424 927 384 870 C 344 813 324 733 324 631 L 324 0 L 170 0 L 170 1075 L 324 1075 L 324 942 C 336 963 351 983 370 1002 C 388 1021 409 1038 432 1052 C 455 1066 480 1077 507 1085 C 533 1093 561 1098 590 1098 C 630 1098 663 1095 690 1090 C 716 1085 739 1079 758 1071 L 719 915 Z" unicode="r" />
<glyph horiz-adv-x="956" d="M 809 983 L 723 870 C 677 906 634 931 595 945 C 556 959 509 967 455 967 C 398 967 354 954 323 929 C 291 904 276 872 276 834 C 276 811 279 791 287 774 C 295 757 308 741 326 726 C 344 710 369 695 400 679 C 430 663 468 645 514 625 C 564 601 610 579 650 559 C 690 538 723 515 751 490 C 778 464 799 435 814 402 C 828 369 836 329 836 281 C 836 228 825 182 804 144 C 783 106 755 74 721 50 C 686 25 647 7 603 -5 C 559 -17 513 -23 467 -23 C 392 -23 323 -10 260 15 C 196 40 139 73 88 115 L 178 227 C 221 189 267 159 317 139 C 366 119 417 109 471 109 C 545 109 599 123 635 152 C 670 181 688 222 688 274 C 688 296 683 316 675 334 C 666 352 652 369 632 386 C 612 403 586 420 554 437 C 522 454 482 473 434 494 C 380 516 333 538 295 560 C 257 581 225 604 201 628 C 176 652 158 680 146 711 C 134 742 129 779 129 823 C 129 863 137 901 154 935 C 170 969 194 998 224 1022 C 254 1046 289 1064 330 1078 C 371 1091 416 1098 465 1098 C 539 1098 604 1087 661 1066 C 718 1044 767 1017 809 983 Z" unicode="s" />
<glyph horiz-adv-x="762" d="M 616 14 C 586 2 555 -7 525 -13 C 495 -19 459 -23 418 -23 C 384 -23 355 -18 330 -10 C 304 -1 283 12 266 32 C 248 51 235 76 226 107 C 217 138 213 176 213 221 L 213 946 L 80 946 L 80 1075 L 213 1075 L 213 1407 L 367 1493 L 367 1075 L 633 1075 L 633 946 L 367 946 L 367 246 C 367 222 368 201 372 185 C 376 169 382 155 390 145 C 398 135 409 127 423 123 C 437 119 454 117 475 117 C 506 117 533 119 556 124 C 578 129 602 137 627 147 L 616 14 Z" unicode="t" />
<glyph horiz-adv-x="1161" d="M 838 0 L 838 131 C 806 85 766 47 716 19 C 666 -8 607 -23 541 -23 C 419 -23 326 14 261 89 C 196 164 164 274 164 420 L 164 1075 L 317 1075 L 317 446 C 317 330 337 245 379 191 C 420 137 484 111 571 111 C 653 111 718 139 766 197 C 814 254 838 337 838 446 L 838 1075 L 991 1075 L 991 0 L 838 0 Z" unicode="u" />
<glyph horiz-adv-x="1069" d="M 602 0 L 467 0 L 82 1075 L 246 1075 L 537 178 L 827 1075 L 987 1075 L 602 0 Z" unicode="v" />
<glyph horiz-adv-x="1495" d="M 1114 0 L 973 0 L 745 846 L 518 0 L 381 0 L 96 1075 L 254 1075 L 453 235 L 680 1075 L 819 1075 L 1047 235 L 1245 1075 L 1399 1075 L 1114 0 Z" unicode="w" />
<glyph horiz-adv-x="1032" d="M 758 0 L 512 430 L 264 0 L 104 0 L 436 555 L 127 1075 L 297 1075 L 520 683 L 745 1075 L 905 1075 L 596 559 L 928 0 L 758 0 Z" unicode="x" />
<glyph horiz-adv-x="1087" d="M 471 -379 L 317 -379 L 465 12 L 82 1075 L 244 1075 L 543 184 L 844 1075 L 1006 1075 L 471 -379 Z" unicode="y" />
<glyph horiz-adv-x="1008" d="M 111 0 L 111 113 L 698 946 L 158 946 L 158 1075 L 872 1075 L 872 963 L 285 129 L 872 129 L 872 0 L 111 0 Z" unicode="z" />
<glyph horiz-adv-x="813" d="M 705 -225 C 560 -221 454 -183 387 -112 C 320 -41 287 66 287 211 L 287 387 C 287 417 285 441 281 460 C 277 479 270 494 261 505 C 251 516 239 524 223 528 C 207 532 188 535 166 535 L 117 535 L 117 678 L 166 678 C 188 678 207 680 223 684 C 239 688 251 696 261 707 C 270 718 277 733 281 752 C 285 771 287 795 287 825 L 287 1008 C 287 1152 320 1259 387 1331 C 454 1402 560 1440 705 1444 L 705 1315 C 657 1309 616 1300 582 1287 C 548 1274 521 1256 500 1233 C 478 1210 463 1181 453 1147 C 443 1113 438 1072 438 1026 L 438 883 C 438 840 436 803 432 773 C 428 743 421 717 412 696 C 402 674 390 656 375 642 C 359 627 340 614 317 604 C 340 593 359 580 375 566 C 390 552 402 534 412 512 C 421 490 428 465 432 435 C 436 405 438 368 438 326 L 438 193 C 438 145 443 105 453 71 C 463 37 478 8 500 -14 C 521 -37 548 -55 582 -69 C 616 -82 657 -91 705 -96 L 705 -225 Z" unicode="{" />
<glyph horiz-adv-x="623" d="M 238 -379 L 238 1638 L 385 1638 L 385 -379 L 238 -379 Z" unicode="|" />
<glyph horiz-adv-x="813" d="M 647 541 C 623 541 604 538 589 534 C 573 530 561 522 552 511 C 542 500 536 485 532 466 C 528 447 526 423 526 393 L 526 211 C 526 66 492 -41 425 -112 C 358 -183 253 -221 109 -225 L 109 -96 C 156 -91 196 -82 230 -69 C 264 -55 291 -37 313 -14 C 334 8 350 37 360 71 C 370 105 375 145 375 193 L 375 336 C 375 378 377 415 381 445 C 385 475 391 500 401 522 C 410 544 422 562 438 576 C 453 590 472 603 496 614 C 472 624 453 637 438 652 C 422 666 410 684 401 706 C 391 727 385 753 381 783 C 377 813 375 850 375 893 L 375 1026 C 375 1072 370 1113 360 1147 C 350 1181 334 1210 313 1233 C 291 1256 264 1274 230 1287 C 196 1300 156 1309 109 1315 L 109 1444 C 253 1440 358 1402 425 1331 C 492 1259 526 1152 526 1008 L 526 831 C 526 801 528 777 532 758 C 536 739 542 724 552 713 C 561 702 573 694 589 690 C 604 686 623 684 647 684 L 696 684 L 696 541 L 647 541 Z" unicode="}" />
<glyph horiz-adv-x="1130" d="M 1042 864 C 1024 820 1006 783 987 751 C 968 719 947 692 924 670 C 901 648 875 632 847 622 C 818 611 786 606 750 606 C 729 606 710 607 693 611 C 676 614 660 619 645 625 C 630 631 615 639 601 648 C 587 656 572 666 557 676 C 515 704 480 724 453 737 C 425 749 401 756 381 756 C 362 756 346 753 332 747 C 318 741 305 731 293 718 C 281 705 269 688 258 668 C 247 648 235 623 223 594 L 88 655 C 105 697 123 735 143 767 C 162 799 183 826 206 848 C 229 870 255 886 284 897 C 312 907 345 913 381 913 C 400 913 418 911 434 908 C 450 905 466 901 481 895 C 496 889 511 881 526 873 C 541 864 557 854 573 844 C 597 828 626 810 658 792 C 690 774 721 764 750 764 C 768 764 783 766 797 772 C 811 777 823 786 835 799 C 847 811 858 828 869 849 C 880 869 893 895 907 926 L 1042 864 Z" unicode="~" />
<glyph horiz-adv-x="532" d="" unicode=" " />
<glyph horiz-adv-x="539" d="M 395 1331 C 395 1314 391 1298 385 1282 C 378 1266 369 1253 358 1241 C 346 1229 333 1219 318 1212 C 302 1205 286 1202 270 1202 C 254 1202 238 1205 223 1212 C 207 1219 194 1229 183 1241 C 171 1253 162 1266 155 1282 C 148 1298 145 1314 145 1331 C 145 1347 148 1363 155 1379 C 162 1394 171 1407 183 1419 C 194 1430 207 1439 223 1446 C 238 1452 254 1456 270 1456 C 286 1456 302 1452 318 1446 C 333 1439 346 1430 358 1419 C 369 1407 378 1394 385 1379 C 391 1363 395 1347 395 1331 Z M 190 0 L 190 674 L 227 1049 L 313 1049 L 348 674 L 348 0 L 190 0 Z" unicode="¡" />
<glyph horiz-adv-x="1270" d="M 1032 1032 C 1006 1054 981 1074 957 1090 C 932 1106 907 1119 881 1129 C 855 1139 827 1147 798 1152 C 768 1156 736 1159 702 1159 C 645 1159 592 1149 544 1130 C 495 1110 453 1083 417 1047 C 381 1011 353 967 333 916 C 313 865 303 808 303 745 C 303 676 312 614 332 560 C 352 505 379 459 415 421 C 451 383 493 353 543 333 C 593 313 648 303 709 303 C 777 303 838 314 890 337 C 942 360 986 392 1024 432 L 1122 344 C 1075 293 1023 254 967 228 C 911 202 845 185 770 178 L 770 -23 L 612 -23 L 612 178 C 540 186 475 206 418 236 C 360 266 311 304 271 352 C 231 400 200 455 179 519 C 157 582 147 651 147 727 C 147 805 159 877 183 941 C 207 1005 239 1060 281 1108 C 323 1155 372 1193 429 1223 C 485 1252 546 1272 612 1282 L 612 1475 L 770 1475 L 770 1288 C 851 1282 921 1265 981 1239 C 1040 1212 1091 1179 1133 1139 L 1032 1032 Z" unicode="¢" />
<glyph horiz-adv-x="1270" d="M 182 0 L 182 143 C 212 178 240 212 265 246 C 289 279 310 314 328 350 C 345 386 358 424 368 464 C 377 504 382 550 383 600 L 182 600 L 182 739 L 360 739 C 352 760 342 781 330 802 C 318 823 306 845 293 868 C 281 886 270 904 262 922 C 253 939 246 956 240 974 C 234 992 230 1011 227 1031 C 224 1051 223 1073 223 1098 C 223 1156 234 1207 258 1251 C 282 1295 314 1333 356 1363 C 397 1393 445 1416 501 1432 C 557 1448 617 1456 682 1456 C 770 1456 850 1440 922 1410 C 993 1379 1060 1335 1124 1278 L 1028 1161 C 976 1211 922 1248 864 1274 C 806 1300 744 1313 678 1313 C 628 1313 584 1307 547 1295 C 510 1283 479 1268 455 1249 C 430 1229 411 1207 399 1181 C 387 1155 381 1128 381 1100 C 381 1066 386 1035 397 1005 C 408 975 424 943 446 907 C 459 884 472 859 486 831 C 499 803 510 772 520 739 L 831 739 L 831 600 L 535 600 C 533 548 527 500 517 456 C 507 412 494 372 478 335 C 462 298 445 264 425 233 C 405 201 384 172 362 145 L 1141 145 L 1141 0 L 182 0 Z" unicode="£" />
<glyph horiz-adv-x="1219" d="M 670 -23 C 585 -23 509 -6 441 26 C 373 59 316 107 268 170 C 220 233 184 310 159 402 C 133 493 121 597 121 715 C 121 834 134 940 160 1032 C 186 1124 223 1201 271 1264 C 319 1327 378 1375 446 1407 C 514 1439 591 1456 676 1456 C 726 1456 771 1451 812 1442 C 852 1433 889 1419 923 1401 C 957 1382 988 1358 1017 1330 C 1046 1301 1074 1267 1102 1227 L 983 1135 C 961 1167 939 1194 918 1217 C 896 1239 874 1258 850 1272 C 826 1286 799 1297 771 1304 C 742 1311 709 1315 672 1315 C 569 1315 486 1282 423 1217 C 360 1151 317 1060 295 942 L 846 942 L 846 813 L 279 813 C 277 797 276 782 276 767 C 276 751 276 735 276 719 C 276 705 276 692 276 679 C 276 665 277 652 279 639 L 846 639 L 846 510 L 293 510 C 314 386 356 289 420 221 C 484 153 568 119 674 119 C 711 119 745 123 775 131 C 805 139 834 150 860 166 C 886 182 911 201 935 225 C 958 248 982 275 1006 305 L 1108 215 C 1080 179 1052 146 1023 117 C 993 88 961 63 926 42 C 891 21 853 5 811 -6 C 769 -17 722 -23 670 -23 Z" unicode="¤" />
<glyph horiz-adv-x="1270" d="M 715 567 L 715 410 L 1061 410 L 1061 268 L 715 268 L 715 0 L 555 0 L 555 268 L 209 268 L 209 410 L 555 410 L 555 565 L 70 1434 L 254 1434 L 636 713 L 1020 1434 L 1200 1434 L 715 567 Z" unicode="¥" />
<glyph horiz-adv-x="623" d="M 238 1638 L 385 1638 L 385 764 L 238 764 L 238 1638 Z M 238 496 L 385 496 L 385 -379 L 238 -379 L 238 496 Z" unicode="¦" />
<glyph horiz-adv-x="1286" d="M 1174 549 C 1174 507 1167 469 1154 434 C 1141 399 1123 367 1100 338 C 1077 309 1050 283 1020 259 C 989 235 956 213 920 193 C 954 165 981 134 1001 99 C 1020 64 1030 23 1030 -25 C 1030 -72 1020 -115 1000 -153 C 980 -191 953 -224 918 -251 C 883 -278 841 -299 793 -314 C 744 -328 691 -336 633 -336 C 555 -336 484 -323 420 -297 C 356 -271 296 -235 238 -188 L 332 -74 C 383 -118 433 -148 482 -166 C 531 -184 589 -193 657 -193 C 721 -193 772 -178 812 -149 C 852 -120 872 -83 872 -37 C 872 -14 867 7 858 27 C 849 47 834 65 812 83 C 790 100 760 116 722 132 C 684 147 637 162 580 176 C 490 198 415 222 355 247 C 295 271 248 299 212 330 C 176 361 150 396 135 435 C 120 474 113 519 113 571 C 113 612 119 650 132 685 C 145 720 163 752 186 782 C 208 811 235 838 266 862 C 297 886 331 908 367 928 C 331 954 304 985 285 1021 C 265 1056 256 1097 256 1145 C 256 1192 265 1235 285 1273 C 305 1311 332 1344 367 1371 C 402 1398 444 1419 493 1434 C 541 1448 595 1456 653 1456 C 731 1456 801 1443 865 1417 C 929 1391 990 1355 1049 1309 L 954 1194 C 906 1234 858 1264 810 1284 C 762 1303 701 1313 629 1313 C 597 1313 568 1309 542 1302 C 516 1294 493 1284 474 1270 C 455 1256 440 1240 430 1221 C 419 1201 414 1180 414 1157 C 414 1133 418 1112 427 1092 C 436 1072 452 1054 474 1037 C 496 1019 526 1003 564 988 C 602 972 649 958 707 944 C 796 921 871 897 931 873 C 991 848 1039 820 1075 789 C 1111 758 1136 723 1151 684 C 1166 645 1174 600 1174 549 Z M 1016 537 C 1016 565 1012 592 1004 616 C 996 640 980 663 956 684 C 932 704 899 724 857 742 C 815 760 760 777 692 795 C 656 804 621 813 589 823 C 557 832 526 843 496 856 C 424 823 369 783 329 737 C 289 690 270 639 270 584 C 270 554 274 527 282 503 C 290 479 306 456 330 436 C 353 415 386 396 428 378 C 470 360 526 342 594 326 C 630 316 664 307 697 297 C 729 287 761 276 791 264 C 861 297 916 337 956 383 C 996 429 1016 481 1016 537 Z" unicode="§" />
<glyph horiz-adv-x="1024" d="M 823 1348 C 823 1332 820 1318 814 1304 C 808 1290 800 1278 790 1268 C 780 1258 768 1250 754 1244 C 740 1238 726 1235 711 1235 C 695 1235 681 1238 667 1244 C 653 1250 641 1258 631 1268 C 621 1278 613 1290 607 1304 C 601 1318 598 1332 598 1348 C 598 1363 601 1377 607 1391 C 613 1405 621 1417 631 1428 C 641 1438 653 1447 667 1453 C 681 1459 695 1462 711 1462 C 726 1462 740 1459 754 1453 C 768 1447 780 1438 790 1428 C 800 1417 808 1405 814 1391 C 820 1377 823 1363 823 1348 Z M 426 1348 C 426 1332 423 1318 417 1304 C 411 1290 403 1278 393 1268 C 383 1258 371 1250 357 1244 C 343 1238 329 1235 315 1235 C 299 1235 284 1238 270 1244 C 256 1250 244 1258 234 1268 C 224 1278 216 1290 210 1304 C 204 1318 201 1332 201 1348 C 201 1363 204 1377 210 1391 C 216 1405 224 1417 234 1428 C 244 1438 256 1447 270 1453 C 284 1459 299 1462 315 1462 C 329 1462 343 1459 357 1453 C 371 1447 383 1438 393 1428 C 403 1417 411 1405 417 1391 C 423 1377 426 1363 426 1348 Z" unicode="¨" />
<glyph horiz-adv-x="1712" d="M 1595 717 C 1595 607 1576 506 1538 415 C 1500 324 1449 246 1383 181 C 1317 116 1238 66 1148 30 C 1058 -5 960 -23 856 -23 C 750 -23 653 -5 563 30 C 473 66 395 116 329 181 C 263 246 211 324 173 415 C 135 506 117 607 117 717 C 117 827 135 927 173 1018 C 211 1108 263 1186 329 1251 C 395 1316 473 1366 563 1402 C 653 1438 750 1456 856 1456 C 960 1456 1058 1438 1148 1402 C 1238 1366 1317 1316 1383 1251 C 1449 1186 1500 1108 1538 1018 C 1576 927 1595 827 1595 717 Z M 1495 717 C 1495 812 1478 899 1446 978 C 1413 1057 1368 1125 1311 1182 C 1254 1239 1187 1283 1109 1315 C 1031 1346 946 1362 856 1362 C 765 1362 681 1346 603 1315 C 525 1283 458 1239 401 1182 C 343 1125 298 1057 266 978 C 233 899 217 812 217 717 C 217 621 233 534 266 455 C 298 376 343 308 401 251 C 458 194 525 150 603 119 C 681 87 765 72 856 72 C 946 72 1031 87 1109 119 C 1187 150 1254 194 1311 251 C 1368 308 1413 376 1446 455 C 1478 534 1495 621 1495 717 Z M 1049 936 C 1022 970 994 996 966 1014 C 938 1031 902 1040 858 1040 C 824 1040 793 1032 765 1016 C 737 1000 712 978 692 950 C 671 921 655 887 644 848 C 632 808 627 765 627 719 C 627 671 632 627 644 587 C 656 547 672 513 692 484 C 712 455 737 433 765 417 C 793 401 824 393 858 393 C 901 393 938 402 969 420 C 1000 438 1031 466 1061 504 L 1141 434 C 1107 388 1066 353 1019 328 C 972 303 918 291 856 291 C 804 291 758 301 716 323 C 674 345 639 375 609 413 C 579 451 556 495 540 547 C 524 599 516 655 516 715 C 516 776 524 833 541 885 C 557 937 581 983 611 1021 C 641 1059 678 1088 720 1110 C 762 1132 809 1143 860 1143 C 918 1143 970 1131 1014 1109 C 1058 1086 1099 1051 1135 1004 L 1049 936 Z" unicode="©" />
<glyph horiz-adv-x="932" d="M 639 578 L 639 668 C 609 638 572 612 530 591 C 488 569 437 559 379 559 C 345 559 311 563 277 573 C 243 582 212 598 186 620 C 159 642 137 670 121 706 C 104 742 96 786 96 838 C 96 886 105 928 123 964 C 141 999 166 1028 197 1050 C 228 1072 264 1089 305 1100 C 345 1110 388 1116 432 1116 C 474 1116 512 1112 548 1104 C 583 1096 613 1085 639 1073 L 639 1161 C 639 1219 624 1264 595 1294 C 566 1324 521 1339 461 1339 C 417 1339 375 1333 337 1322 C 298 1311 261 1295 225 1274 L 170 1384 C 211 1405 257 1422 308 1436 C 358 1449 412 1456 469 1456 C 516 1456 559 1450 597 1440 C 635 1430 668 1413 695 1391 C 721 1369 742 1340 756 1305 C 770 1269 778 1226 778 1176 L 778 578 L 639 578 Z M 639 958 C 612 971 582 982 549 991 C 516 999 475 1004 426 1004 C 366 1004 318 990 284 962 C 250 934 233 896 233 846 C 233 786 248 743 279 715 C 309 687 349 674 399 674 C 453 674 501 685 541 709 C 581 732 613 761 639 795 L 639 958 Z" unicode="ª" />
<glyph horiz-adv-x="1180" d="M 913 0 L 498 537 L 913 1075 L 1087 1075 L 672 539 L 1087 0 L 913 0 Z M 477 0 L 61 537 L 477 1075 L 651 1075 L 236 539 L 651 0 L 477 0 Z" unicode="«" />
<glyph horiz-adv-x="1270" d="M 1113 219 L 963 219 L 963 635 L 157 635 L 157 774 L 1113 774 L 1113 219 Z" unicode="¬" />
<glyph horiz-adv-x="659" d="M 104 674 L 104 823 L 555 823 L 555 674 L 104 674 Z" unicode="­" />
<glyph horiz-adv-x="1712" d="M 1595 717 C 1595 607 1576 506 1538 415 C 1500 324 1449 246 1383 181 C 1317 116 1238 66 1148 30 C 1058 -5 960 -23 856 -23 C 750 -23 653 -5 563 30 C 473 66 395 116 329 181 C 263 246 211 324 173 415 C 135 506 117 607 117 717 C 117 827 135 927 173 1018 C 211 1108 263 1186 329 1251 C 395 1316 473 1366 563 1402 C 653 1438 750 1456 856 1456 C 960 1456 1058 1438 1148 1402 C 1238 1366 1317 1316 1383 1251 C 1449 1186 1500 1108 1538 1018 C 1576 927 1595 827 1595 717 Z M 1495 717 C 1495 812 1478 899 1446 978 C 1413 1057 1368 1125 1311 1182 C 1254 1239 1187 1283 1109 1315 C 1031 1346 946 1362 856 1362 C 765 1362 681 1346 603 1315 C 525 1283 458 1239 401 1182 C 343 1125 298 1057 266 978 C 233 899 217 812 217 717 C 217 621 233 534 266 455 C 298 376 343 308 401 251 C 458 194 525 150 603 119 C 681 87 765 72 856 72 C 946 72 1031 87 1109 119 C 1187 150 1254 194 1311 251 C 1368 308 1413 376 1446 455 C 1478 534 1495 621 1495 717 Z M 1184 903 C 1184 841 1167 790 1133 751 C 1099 711 1053 685 995 672 L 1178 322 L 1051 322 L 874 664 L 698 664 L 698 322 L 590 322 L 590 1139 L 922 1139 C 958 1139 993 1134 1025 1125 C 1057 1115 1084 1101 1108 1082 C 1131 1062 1149 1038 1163 1008 C 1177 978 1184 943 1184 903 Z M 1075 903 C 1075 949 1061 983 1034 1007 C 1006 1030 967 1042 915 1042 L 698 1042 L 698 766 L 903 766 C 961 766 1005 777 1033 799 C 1061 821 1075 855 1075 903 Z" unicode="®" />
<glyph horiz-adv-x="1024" d="M 233 1266 L 233 1409 L 791 1409 L 791 1266 L 233 1266 Z" unicode="¯" />
<glyph horiz-adv-x="975" d="M 870 1065 C 870 1009 860 956 841 908 C 822 860 796 818 762 783 C 728 747 688 720 641 700 C 594 680 543 670 487 670 C 431 670 380 680 334 700 C 287 720 247 747 213 783 C 179 818 152 860 133 908 C 113 956 104 1009 104 1065 C 104 1119 113 1170 133 1218 C 152 1266 179 1307 213 1342 C 247 1377 287 1405 334 1425 C 380 1445 431 1456 487 1456 C 543 1456 594 1445 641 1425 C 688 1405 728 1377 762 1342 C 796 1307 822 1266 841 1218 C 860 1170 870 1119 870 1065 Z M 735 1065 C 735 1103 729 1138 717 1170 C 705 1202 689 1230 667 1254 C 645 1277 619 1295 589 1309 C 558 1322 524 1329 487 1329 C 450 1329 416 1322 386 1309 C 356 1295 330 1277 308 1254 C 286 1230 270 1202 258 1170 C 246 1138 240 1103 240 1065 C 240 1025 246 988 258 955 C 270 922 286 894 308 871 C 330 847 356 829 386 816 C 416 803 450 797 487 797 C 524 797 558 803 589 816 C 619 829 645 847 667 871 C 689 894 705 922 717 955 C 729 988 735 1025 735 1065 Z" unicode="°" />
<glyph horiz-adv-x="1270" d="M 710 655 L 710 260 L 560 260 L 560 655 L 157 655 L 157 795 L 560 795 L 560 1190 L 710 1190 L 710 795 L 1113 795 L 1113 655 L 710 655 Z M 157 59 L 157 199 L 1113 199 L 1113 59 L 157 59 Z" unicode="±" />
<glyph horiz-adv-x="885" d="M 135 532 C 137 595 146 649 161 695 C 175 741 195 781 220 817 C 244 852 274 884 308 912 C 342 940 381 969 424 999 C 458 1023 487 1043 510 1060 C 532 1077 550 1093 564 1108 C 577 1123 586 1138 592 1152 C 597 1166 600 1183 600 1202 C 600 1239 586 1268 560 1289 C 534 1310 497 1321 449 1321 C 426 1321 405 1319 387 1315 C 368 1311 350 1305 334 1298 C 318 1290 302 1281 286 1270 C 270 1258 254 1245 238 1231 L 152 1341 C 174 1359 196 1376 218 1390 C 240 1404 262 1416 286 1426 C 309 1436 334 1443 362 1448 C 389 1453 419 1456 453 1456 C 494 1456 532 1450 568 1440 C 603 1430 634 1414 660 1394 C 686 1373 706 1347 721 1316 C 735 1284 743 1248 743 1206 C 743 1172 739 1142 731 1117 C 723 1091 711 1067 693 1044 C 675 1021 652 998 624 975 C 595 952 560 927 518 899 C 481 873 450 851 425 831 C 399 811 378 793 362 775 C 345 757 332 741 323 725 C 313 709 306 692 301 674 L 752 674 L 752 532 L 135 532 Z" unicode="²" />
<glyph horiz-adv-x="829" d="M 381 520 C 324 520 270 533 219 559 C 168 585 122 620 82 664 L 180 762 C 213 726 246 700 279 682 C 311 664 347 655 385 655 C 447 655 492 667 522 693 C 552 718 567 755 567 803 C 567 849 550 883 517 906 C 484 928 441 940 387 940 L 307 940 L 307 1071 L 391 1071 C 438 1071 473 1082 497 1106 C 520 1129 532 1160 532 1200 C 532 1238 519 1268 493 1289 C 467 1310 429 1321 379 1321 C 347 1321 317 1313 291 1299 C 264 1284 237 1263 209 1235 L 113 1331 C 147 1366 186 1396 230 1420 C 274 1444 325 1456 381 1456 C 422 1456 461 1450 497 1440 C 533 1430 564 1414 590 1394 C 616 1374 637 1348 653 1318 C 668 1288 676 1252 676 1212 C 676 1166 668 1127 652 1096 C 636 1065 614 1039 586 1018 C 603 1010 619 999 634 987 C 649 974 662 959 674 942 C 685 924 694 904 701 882 C 707 859 711 833 711 805 C 711 760 703 720 688 685 C 673 649 651 619 623 595 C 594 571 559 552 519 539 C 478 526 432 520 381 520 Z" unicode="³" />
<glyph horiz-adv-x="1024" d="M 477 1219 L 356 1219 L 567 1546 L 786 1546 L 477 1219 Z" unicode="´" />
<glyph horiz-adv-x="1167" d="M 844 0 L 844 131 C 812 85 772 48 723 20 C 673 -8 615 -23 547 -23 C 494 -23 449 -16 412 -4 C 374 8 345 22 324 38 L 324 -309 L 170 -395 L 170 1075 L 324 1075 L 324 446 C 324 388 329 338 340 295 C 350 251 367 215 390 187 C 413 159 440 139 472 128 C 504 116 539 111 578 111 C 615 111 650 117 682 130 C 714 143 743 163 767 190 C 791 217 809 252 823 294 C 837 336 844 387 844 446 L 844 1075 L 997 1075 L 997 0 L 844 0 Z" unicode="µ" />
<glyph horiz-adv-x="1409" d="M 1061 -379 L 1061 1294 L 874 1294 L 874 -379 L 717 -379 L 717 535 L 561 535 C 497 535 438 544 382 564 C 326 584 276 613 234 651 C 191 689 157 737 133 793 C 108 849 96 913 96 985 C 96 1057 108 1120 133 1176 C 158 1232 192 1279 234 1317 C 276 1355 326 1384 382 1404 C 438 1424 498 1434 561 1434 L 1219 1434 L 1219 -379 L 1061 -379 Z" unicode="¶" />
<glyph horiz-adv-x="492" d="M 377 752 C 377 734 373 717 366 701 C 359 685 350 671 338 659 C 326 647 312 638 296 631 C 280 624 263 621 246 621 C 228 621 211 624 195 631 C 179 638 165 647 153 659 C 141 671 132 685 125 701 C 118 717 115 734 115 752 C 115 770 118 787 125 803 C 132 819 141 833 153 846 C 165 858 179 868 195 876 C 211 883 228 887 246 887 C 263 887 280 883 296 876 C 312 868 326 858 338 846 C 350 833 359 819 366 803 C 373 787 377 770 377 752 Z" unicode="·" />
<glyph horiz-adv-x="1024" d="M 457 0 L 549 0 L 514 -104 C 528 -94 545 -87 563 -83 C 581 -78 602 -76 627 -76 C 641 -76 656 -78 672 -83 C 688 -88 702 -96 716 -107 C 730 -118 741 -133 750 -151 C 759 -169 764 -191 764 -217 C 764 -250 757 -278 744 -301 C 731 -323 713 -342 691 -356 C 669 -370 643 -380 614 -386 C 584 -392 553 -395 521 -395 C 479 -395 437 -388 395 -376 C 353 -363 315 -345 279 -322 L 318 -256 C 374 -292 437 -311 506 -311 C 553 -311 588 -303 610 -288 C 632 -272 643 -251 643 -223 C 643 -202 637 -186 626 -174 C 615 -162 599 -156 578 -156 C 538 -156 505 -168 480 -193 L 406 -164 L 457 0 Z" unicode="¸" />
<glyph horiz-adv-x="705" d="M 317 1210 L 162 1210 L 162 1317 C 188 1319 211 1322 232 1326 C 252 1330 270 1336 286 1344 C 301 1352 313 1364 323 1378 C 333 1392 340 1410 344 1432 L 461 1432 L 461 522 L 317 522 L 317 1210 Z" unicode="¹" />
<glyph horiz-adv-x="983" d="M 872 1014 C 872 941 862 876 842 820 C 822 764 795 716 761 678 C 726 640 685 611 639 591 C 592 571 541 561 487 561 C 433 561 383 570 337 590 C 291 609 252 637 218 675 C 184 713 158 759 139 815 C 120 871 111 935 111 1008 C 111 1080 120 1145 140 1201 C 160 1257 187 1303 222 1341 C 256 1379 297 1407 344 1427 C 391 1446 442 1456 496 1456 C 550 1456 599 1446 645 1428 C 691 1409 730 1381 764 1344 C 798 1307 824 1261 843 1206 C 862 1151 872 1087 872 1014 Z M 733 1012 C 733 1066 727 1113 715 1153 C 703 1193 687 1227 666 1254 C 645 1280 620 1300 590 1313 C 560 1326 528 1333 492 1333 C 455 1333 422 1326 392 1313 C 362 1300 337 1280 316 1254 C 295 1227 279 1193 267 1153 C 255 1113 250 1066 250 1012 C 250 957 255 909 267 868 C 279 827 295 793 316 766 C 337 738 362 718 392 704 C 422 690 455 684 492 684 C 528 684 560 690 590 704 C 620 718 645 738 666 766 C 687 793 703 827 715 868 C 727 909 733 957 733 1012 Z" unicode="º" />
<glyph horiz-adv-x="1180" d="M 702 0 L 528 0 L 944 537 L 528 1075 L 702 1075 L 1118 539 L 702 0 Z M 266 0 L 92 0 L 508 537 L 92 1075 L 266 1075 L 682 539 L 266 0 Z" unicode="»" />
<glyph horiz-adv-x="1905" d="M 352 1210 L 197 1210 L 197 1317 C 223 1319 246 1322 267 1326 C 287 1330 305 1336 321 1344 C 336 1352 348 1364 358 1378 C 368 1392 375 1410 379 1432 L 496 1432 L 496 522 L 352 522 L 352 1210 Z M 507 0 L 340 0 L 1316 1434 L 1484 1434 L 507 0 Z M 1443 204 L 984 204 L 984 316 L 1443 910 L 1580 910 L 1580 337 L 1699 337 L 1699 204 L 1580 204 L 1580 1 L 1443 1 L 1443 204 Z M 1443 337 L 1443 695 L 1164 337 L 1443 337 Z" unicode="¼" />
<glyph horiz-adv-x="1905" d="M 346 1210 L 191 1210 L 191 1317 C 217 1319 240 1322 261 1326 C 281 1330 299 1336 315 1344 C 330 1352 342 1364 352 1378 C 362 1392 369 1410 373 1432 L 490 1432 L 490 522 L 346 522 L 346 1210 Z M 446 0 L 279 0 L 1255 1434 L 1423 1434 L 446 0 Z M 1097 0 C 1099 63 1108 117 1123 163 C 1137 209 1157 249 1182 285 C 1206 320 1236 352 1270 380 C 1304 408 1343 437 1386 467 C 1420 491 1449 511 1472 528 C 1494 545 1512 561 1526 576 C 1539 591 1548 606 1554 620 C 1559 634 1562 651 1562 670 C 1562 707 1548 736 1522 757 C 1496 778 1459 789 1411 789 C 1388 789 1367 787 1349 783 C 1330 779 1312 773 1296 766 C 1280 758 1264 749 1248 738 C 1232 726 1216 713 1200 699 L 1114 809 C 1136 827 1158 844 1180 858 C 1202 872 1224 884 1248 894 C 1271 904 1296 911 1324 916 C 1351 921 1381 924 1415 924 C 1456 924 1494 918 1530 908 C 1565 898 1596 882 1622 862 C 1648 841 1668 815 1683 784 C 1697 752 1705 716 1705 674 C 1705 640 1701 610 1693 585 C 1685 559 1673 535 1655 512 C 1637 489 1614 466 1586 443 C 1557 420 1522 395 1480 367 C 1443 341 1412 319 1387 299 C 1361 279 1340 261 1324 243 C 1307 225 1294 209 1285 193 C 1275 177 1268 160 1263 142 L 1714 142 L 1714 0 L 1097 0 Z" unicode="½" />
<glyph horiz-adv-x="1905" d="M 444 520 C 387 520 333 533 282 559 C 231 585 185 620 145 664 L 243 762 C 276 726 309 700 342 682 C 374 664 410 655 448 655 C 510 655 555 667 585 693 C 615 718 630 755 630 803 C 630 849 613 883 580 906 C 547 928 504 940 450 940 L 370 940 L 370 1071 L 454 1071 C 501 1071 536 1082 560 1106 C 583 1129 595 1160 595 1200 C 595 1238 582 1268 556 1289 C 530 1310 492 1321 442 1321 C 410 1321 380 1313 354 1299 C 327 1284 300 1263 272 1235 L 176 1331 C 210 1366 249 1396 293 1420 C 337 1444 388 1456 444 1456 C 485 1456 524 1450 560 1440 C 596 1430 627 1414 653 1394 C 679 1374 700 1348 716 1318 C 731 1288 739 1252 739 1212 C 739 1166 731 1127 715 1096 C 699 1065 677 1039 649 1018 C 666 1010 682 999 697 987 C 712 974 725 959 737 942 C 748 924 757 904 764 882 C 770 859 774 833 774 805 C 774 760 766 720 751 685 C 736 649 714 619 686 595 C 657 571 622 552 582 539 C 541 526 495 520 444 520 Z M 625 0 L 458 0 L 1434 1434 L 1602 1434 L 625 0 Z M 1503 204 L 1044 204 L 1044 316 L 1503 910 L 1640 910 L 1640 337 L 1759 337 L 1759 204 L 1640 204 L 1640 1 L 1503 1 L 1503 204 Z M 1503 337 L 1503 695 L 1224 337 L 1503 337 Z" unicode="¾" />
<glyph horiz-adv-x="1149" d="M 754 1331 C 754 1314 750 1298 744 1282 C 737 1266 728 1253 716 1241 C 704 1229 691 1219 676 1212 C 661 1205 645 1202 629 1202 C 612 1202 596 1205 581 1212 C 566 1219 553 1229 541 1241 C 529 1253 520 1266 514 1282 C 507 1298 504 1314 504 1331 C 504 1347 507 1363 514 1379 C 520 1394 529 1407 541 1419 C 553 1430 566 1439 581 1446 C 596 1452 612 1456 629 1456 C 645 1456 661 1452 676 1446 C 691 1439 704 1430 716 1419 C 728 1407 737 1394 744 1379 C 750 1363 754 1347 754 1331 Z M 1059 168 C 1031 141 1001 116 967 93 C 933 69 896 49 856 32 C 816 15 772 2 726 -8 C 680 -18 631 -23 580 -23 C 514 -23 454 -15 400 -1 C 346 13 299 35 260 65 C 221 95 191 132 169 176 C 147 220 137 271 137 330 C 137 379 142 421 154 457 C 165 493 182 524 204 552 C 226 580 252 605 284 628 C 315 651 351 675 391 700 C 425 720 452 740 473 759 C 493 778 509 800 520 825 C 531 850 538 880 542 915 C 545 950 547 995 547 1049 L 705 1049 C 705 1003 704 962 702 928 C 700 893 696 862 690 835 C 684 807 675 783 664 761 C 653 739 639 719 621 699 C 603 679 581 660 555 641 C 529 622 499 602 463 580 C 436 563 412 547 392 531 C 371 515 354 498 340 480 C 326 462 315 441 308 419 C 300 397 297 371 297 342 C 297 278 323 225 376 184 C 428 143 498 123 586 123 C 624 123 659 126 693 134 C 726 141 758 151 788 165 C 818 178 846 194 874 214 C 902 234 929 256 956 281 L 1059 168 Z" unicode="¿" />
<glyph horiz-adv-x="1389" d="M 1280 0 L 1112 0 L 989 365 L 397 365 L 272 0 L 109 0 L 606 1434 L 782 1434 L 1280 0 Z M 940 510 L 694 1243 L 446 510 L 940 510 Z M 637 1526 L 328 1853 L 547 1853 L 758 1526 L 637 1526 Z" unicode="À" />
<glyph horiz-adv-x="1389" d="M 1280 0 L 1112 0 L 989 365 L 397 365 L 272 0 L 109 0 L 606 1434 L 782 1434 L 1280 0 Z M 940 510 L 694 1243 L 446 510 L 940 510 Z M 749 1526 L 628 1526 L 839 1853 L 1058 1853 L 749 1526 Z" unicode="Á" />
<glyph horiz-adv-x="1389" d="M 1280 0 L 1112 0 L 989 365 L 397 365 L 272 0 L 109 0 L 606 1434 L 782 1434 L 1280 0 Z M 940 510 L 694 1243 L 446 510 L 940 510 Z M 899 1485 L 692 1696 L 485 1485 L 356 1485 L 608 1812 L 780 1812 L 1032 1485 L 899 1485 Z" unicode="Â" />
<glyph horiz-adv-x="1389" d="M 1280 0 L 1112 0 L 989 365 L 397 365 L 272 0 L 109 0 L 606 1434 L 782 1434 L 1280 0 Z M 940 510 L 694 1243 L 446 510 L 940 510 Z M 1059 1798 C 1059 1752 1053 1713 1042 1680 C 1030 1646 1015 1619 996 1597 C 976 1575 954 1558 929 1548 C 903 1537 877 1532 850 1532 C 822 1532 796 1536 772 1544 C 748 1552 723 1565 698 1584 C 673 1603 654 1617 642 1627 C 630 1636 620 1643 614 1647 C 599 1657 586 1664 574 1668 C 562 1672 550 1675 536 1675 C 514 1675 496 1664 484 1643 C 471 1621 462 1586 456 1538 L 329 1538 C 329 1583 334 1622 346 1656 C 357 1689 372 1717 392 1739 C 411 1761 433 1777 459 1788 C 484 1798 510 1804 538 1804 C 565 1804 591 1800 615 1792 C 639 1784 664 1770 689 1751 C 714 1732 733 1718 745 1709 C 757 1699 767 1693 774 1689 C 788 1679 801 1671 813 1667 C 825 1663 838 1661 852 1661 C 873 1661 890 1671 903 1693 C 915 1715 925 1750 932 1798 L 1059 1798 Z" unicode="Ã" />
<glyph horiz-adv-x="1389" d="M 1280 0 L 1112 0 L 989 365 L 397 365 L 272 0 L 109 0 L 606 1434 L 782 1434 L 1280 0 Z M 940 510 L 694 1243 L 446 510 L 940 510 Z M 1007 1655 C 1007 1639 1004 1625 998 1611 C 992 1597 984 1585 974 1575 C 964 1565 952 1557 938 1551 C 924 1545 910 1542 895 1542 C 879 1542 865 1545 851 1551 C 837 1557 825 1565 815 1575 C 805 1585 797 1597 791 1611 C 785 1625 782 1639 782 1655 C 782 1670 785 1684 791 1698 C 797 1712 805 1724 815 1735 C 825 1745 837 1754 851 1760 C 865 1766 879 1769 895 1769 C 910 1769 924 1766 938 1760 C 952 1754 964 1745 974 1735 C 984 1724 992 1712 998 1698 C 1004 1684 1007 1670 1007 1655 Z M 610 1655 C 610 1639 607 1625 601 1611 C 595 1597 587 1585 577 1575 C 567 1565 555 1557 541 1551 C 527 1545 513 1542 499 1542 C 483 1542 468 1545 454 1551 C 440 1557 428 1565 418 1575 C 408 1585 400 1597 394 1611 C 388 1625 385 1639 385 1655 C 385 1670 388 1684 394 1698 C 400 1712 408 1724 418 1735 C 428 1745 440 1754 454 1760 C 468 1766 483 1769 499 1769 C 513 1769 527 1766 541 1760 C 555 1754 567 1745 577 1735 C 587 1724 595 1712 601 1698 C 607 1684 610 1670 610 1655 Z" unicode="Ä" />
<glyph horiz-adv-x="1389" d="M 1112 0 L 989 365 L 397 365 L 272 0 L 109 0 L 580 1348 C 540 1368 509 1397 487 1435 C 464 1472 453 1515 453 1563 C 453 1596 459 1627 471 1656 C 483 1684 499 1709 520 1731 C 541 1752 566 1769 596 1781 C 625 1793 657 1800 692 1800 C 726 1800 758 1793 788 1781 C 817 1769 842 1752 864 1731 C 885 1709 902 1684 914 1656 C 926 1627 932 1596 932 1563 C 932 1516 920 1474 898 1437 C 875 1399 845 1370 807 1350 L 1280 0 L 1112 0 Z M 836 1563 C 836 1584 832 1604 826 1622 C 819 1640 809 1656 797 1669 C 784 1682 769 1692 751 1700 C 733 1707 714 1711 692 1711 C 670 1711 650 1707 632 1700 C 614 1692 599 1682 587 1669 C 575 1656 565 1640 559 1622 C 552 1604 549 1584 549 1563 C 549 1541 552 1521 559 1503 C 565 1485 575 1469 587 1456 C 599 1443 614 1433 632 1426 C 650 1418 670 1415 692 1415 C 714 1415 733 1418 751 1426 C 769 1433 784 1443 797 1456 C 809 1469 819 1485 826 1503 C 832 1521 836 1541 836 1563 Z M 940 510 L 694 1243 L 446 510 L 940 510 Z" unicode="Å" />
<glyph horiz-adv-x="2044" d="M 1896 1434 L 1896 1288 L 1182 1288 L 1182 838 L 1757 838 L 1757 692 L 1182 692 L 1182 145 L 1927 145 L 1927 0 L 1030 0 L 1030 365 L 471 365 L 231 0 L 49 0 L 1012 1434 L 1896 1434 Z M 565 510 L 1030 510 L 1030 1216 L 565 510 Z" unicode="Æ" />
<glyph horiz-adv-x="1286" d="M 1042 1130 C 1018 1161 995 1188 972 1211 C 949 1233 925 1252 899 1267 C 873 1282 844 1293 813 1300 C 782 1307 747 1311 709 1311 C 647 1311 591 1296 539 1267 C 487 1238 443 1197 406 1145 C 368 1093 339 1030 318 958 C 297 885 287 805 287 719 C 287 631 297 551 319 478 C 340 405 370 342 408 290 C 446 237 490 196 542 167 C 594 137 650 123 711 123 C 788 123 855 139 911 172 C 967 205 1019 251 1065 311 L 1176 215 C 1150 179 1120 147 1088 118 C 1055 89 1019 64 980 43 C 941 22 899 6 853 -5 C 807 -17 759 -23 707 -23 C 648 -23 593 -14 542 2 C 490 19 443 43 400 75 C 357 106 319 144 285 188 C 251 232 223 282 199 337 C 175 391 157 450 145 514 C 133 578 127 645 127 715 C 127 821 141 920 170 1010 C 198 1100 238 1179 290 1245 C 342 1311 403 1362 475 1400 C 547 1437 626 1456 713 1456 C 811 1456 898 1437 972 1400 C 1046 1362 1112 1305 1169 1227 L 1042 1130 Z M 642 0 L 734 0 L 699 -104 C 713 -94 730 -87 748 -83 C 766 -78 787 -76 812 -76 C 826 -76 841 -78 857 -83 C 873 -88 887 -96 901 -107 C 915 -118 926 -133 935 -151 C 944 -169 949 -191 949 -217 C 949 -250 942 -278 929 -301 C 916 -323 898 -342 876 -356 C 854 -370 828 -380 799 -386 C 769 -392 738 -395 706 -395 C 664 -395 622 -388 580 -376 C 538 -363 500 -345 464 -322 L 503 -256 C 559 -292 622 -311 691 -311 C 738 -311 773 -303 795 -288 C 817 -272 828 -251 828 -223 C 828 -202 822 -186 811 -174 C 800 -162 784 -156 763 -156 C 723 -156 690 -168 665 -193 L 591 -164 L 642 0 Z" unicode="Ç" />
<glyph horiz-adv-x="1202" d="M 1085 0 L 188 0 L 188 1434 L 1055 1434 L 1055 1288 L 348 1288 L 348 838 L 920 838 L 920 692 L 348 692 L 348 145 L 1085 145 L 1085 0 Z M 610 1526 L 301 1853 L 520 1853 L 731 1526 L 610 1526 Z" unicode="È" />
<glyph horiz-adv-x="1202" d="M 1085 0 L 188 0 L 188 1434 L 1055 1434 L 1055 1288 L 348 1288 L 348 838 L 920 838 L 920 692 L 348 692 L 348 145 L 1085 145 L 1085 0 Z M 643 1526 L 522 1526 L 733 1853 L 952 1853 L 643 1526 Z" unicode="É" />
<glyph horiz-adv-x="1202" d="M 1085 0 L 188 0 L 188 1434 L 1055 1434 L 1055 1288 L 348 1288 L 348 838 L 920 838 L 920 692 L 348 692 L 348 145 L 1085 145 L 1085 0 Z M 826 1526 L 619 1737 L 412 1526 L 283 1526 L 535 1853 L 707 1853 L 959 1526 L 826 1526 Z" unicode="Ê" />
<glyph horiz-adv-x="1202" d="M 1085 0 L 188 0 L 188 1434 L 1055 1434 L 1055 1288 L 348 1288 L 348 838 L 920 838 L 920 692 L 348 692 L 348 145 L 1085 145 L 1085 0 Z M 934 1655 C 934 1639 931 1625 925 1611 C 919 1597 911 1585 901 1575 C 891 1565 879 1557 865 1551 C 851 1545 837 1542 822 1542 C 806 1542 792 1545 778 1551 C 764 1557 752 1565 742 1575 C 732 1585 724 1597 718 1611 C 712 1625 709 1639 709 1655 C 709 1670 712 1684 718 1698 C 724 1712 732 1724 742 1735 C 752 1745 764 1754 778 1760 C 792 1766 806 1769 822 1769 C 837 1769 851 1766 865 1760 C 879 1754 891 1745 901 1735 C 911 1724 919 1712 925 1698 C 931 1684 934 1670 934 1655 Z M 537 1655 C 537 1639 534 1625 528 1611 C 522 1597 514 1585 504 1575 C 494 1565 482 1557 468 1551 C 454 1545 440 1542 426 1542 C 410 1542 395 1545 381 1551 C 367 1557 355 1565 345 1575 C 335 1585 327 1597 321 1611 C 315 1625 312 1639 312 1655 C 312 1670 315 1684 321 1698 C 327 1712 335 1724 345 1735 C 355 1745 367 1754 381 1760 C 395 1766 410 1769 426 1769 C 440 1769 454 1766 468 1760 C 482 1754 494 1745 504 1735 C 514 1724 522 1712 528 1698 C 534 1684 537 1670 537 1655 Z" unicode="Ë" />
<glyph horiz-adv-x="557" d="M 199 0 L 199 1434 L 358 1434 L 358 0 L 199 0 Z M 233 1526 L -76 1853 L 143 1853 L 354 1526 L 233 1526 Z" unicode="Ì" />
<glyph horiz-adv-x="557" d="M 199 0 L 199 1434 L 358 1434 L 358 0 L 199 0 Z M 328 1526 L 207 1526 L 418 1853 L 637 1853 L 328 1526 Z" unicode="Í" />
<glyph horiz-adv-x="557" d="M 199 0 L 199 1434 L 358 1434 L 358 0 L 199 0 Z M 478 1516 L 271 1727 L 64 1516 L -65 1516 L 187 1843 L 359 1843 L 611 1516 L 478 1516 Z" unicode="Î" />
<glyph horiz-adv-x="557" d="M 199 0 L 199 1434 L 358 1434 L 358 0 L 199 0 Z M 588 1663 C 588 1647 585 1633 579 1619 C 573 1605 565 1593 555 1583 C 545 1573 533 1565 519 1559 C 505 1553 491 1550 476 1550 C 460 1550 446 1553 432 1559 C 418 1565 406 1573 396 1583 C 386 1593 378 1605 372 1619 C 366 1633 363 1647 363 1663 C 363 1678 366 1692 372 1706 C 378 1720 386 1732 396 1743 C 406 1753 418 1762 432 1768 C 446 1774 460 1777 476 1777 C 491 1777 505 1774 519 1768 C 533 1762 545 1753 555 1743 C 565 1732 573 1720 579 1706 C 585 1692 588 1678 588 1663 Z M 191 1663 C 191 1647 188 1633 182 1619 C 176 1605 168 1593 158 1583 C 148 1573 136 1565 122 1559 C 108 1553 94 1550 80 1550 C 64 1550 49 1553 35 1559 C 21 1565 9 1573 0 1583 C -10 1593 -19 1605 -25 1619 C -31 1633 -34 1647 -34 1663 C -34 1678 -31 1692 -25 1706 C -19 1720 -10 1732 0 1743 C 9 1753 21 1762 35 1768 C 49 1774 64 1777 80 1777 C 94 1777 108 1774 122 1768 C 136 1762 148 1753 158 1743 C 168 1732 176 1720 182 1706 C 188 1692 191 1678 191 1663 Z" unicode="Ï" />
<glyph horiz-adv-x="1397" d="M 1241 727 C 1241 597 1223 486 1188 394 C 1153 302 1105 226 1044 168 C 982 110 910 67 827 40 C 744 13 655 0 559 0 L 209 0 L 209 678 L 82 678 L 82 821 L 209 821 L 209 1434 L 588 1434 C 682 1434 769 1420 849 1392 C 929 1364 998 1322 1056 1265 C 1114 1207 1159 1134 1192 1045 C 1224 955 1241 849 1241 727 Z M 1081 721 C 1081 812 1070 893 1048 964 C 1026 1034 994 1094 952 1142 C 909 1190 856 1226 793 1251 C 730 1275 657 1288 575 1288 L 365 1288 L 365 821 L 655 821 L 655 678 L 365 678 L 365 145 L 580 145 C 657 145 726 155 788 177 C 850 198 902 232 946 278 C 989 324 1022 384 1046 457 C 1069 529 1081 617 1081 721 Z" unicode="Ð" />
<glyph horiz-adv-x="1409" d="M 1221 0 L 1071 0 L 342 1141 L 342 0 L 188 0 L 188 1434 L 344 1434 L 1067 270 L 1067 1434 L 1221 1434 L 1221 0 Z M 1080 1806 C 1080 1760 1074 1721 1063 1688 C 1051 1654 1036 1627 1017 1605 C 997 1583 975 1566 950 1556 C 924 1545 898 1540 871 1540 C 843 1540 817 1544 793 1552 C 769 1560 744 1573 719 1592 C 694 1611 675 1625 663 1635 C 651 1644 641 1651 635 1655 C 620 1665 607 1672 595 1676 C 583 1680 571 1683 557 1683 C 535 1683 517 1672 505 1651 C 492 1629 483 1594 477 1546 L 350 1546 C 350 1591 355 1630 367 1664 C 378 1697 393 1725 413 1747 C 432 1769 454 1785 480 1796 C 505 1806 531 1812 559 1812 C 586 1812 612 1808 636 1800 C 660 1792 685 1778 710 1759 C 735 1740 754 1726 766 1717 C 778 1707 788 1701 795 1697 C 809 1687 822 1679 834 1675 C 846 1671 859 1669 873 1669 C 894 1669 911 1679 924 1701 C 936 1723 946 1758 953 1806 L 1080 1806 Z" unicode="Ñ" />
<glyph horiz-adv-x="1444" d="M 1317 719 C 1317 611 1302 511 1273 421 C 1244 330 1203 252 1151 186 C 1099 120 1036 68 962 32 C 888 -4 807 -23 719 -23 C 629 -23 548 -4 476 31 C 403 67 341 118 289 184 C 237 249 197 327 169 417 C 141 507 127 607 127 715 C 127 823 141 922 170 1013 C 198 1103 239 1181 291 1247 C 343 1313 406 1364 479 1401 C 552 1437 633 1456 723 1456 C 811 1456 892 1437 965 1401 C 1038 1365 1101 1314 1153 1249 C 1205 1184 1245 1106 1274 1016 C 1302 926 1317 827 1317 719 Z M 1157 715 C 1157 805 1145 886 1123 960 C 1101 1033 1070 1096 1031 1148 C 991 1200 945 1240 891 1268 C 837 1296 779 1311 717 1311 C 655 1311 597 1297 545 1269 C 492 1241 447 1201 409 1150 C 371 1098 341 1036 319 963 C 297 890 287 809 287 719 C 287 629 298 547 320 474 C 342 400 373 338 412 286 C 451 234 497 193 551 165 C 604 137 662 123 725 123 C 787 123 844 136 897 164 C 949 192 995 231 1034 283 C 1072 335 1102 397 1124 470 C 1146 543 1157 625 1157 715 Z M 682 1526 L 373 1853 L 592 1853 L 803 1526 L 682 1526 Z" unicode="Ò" />
<glyph horiz-adv-x="1444" d="M 1317 719 C 1317 611 1302 511 1273 421 C 1244 330 1203 252 1151 186 C 1099 120 1036 68 962 32 C 888 -4 807 -23 719 -23 C 629 -23 548 -4 476 31 C 403 67 341 118 289 184 C 237 249 197 327 169 417 C 141 507 127 607 127 715 C 127 823 141 922 170 1013 C 198 1103 239 1181 291 1247 C 343 1313 406 1364 479 1401 C 552 1437 633 1456 723 1456 C 811 1456 892 1437 965 1401 C 1038 1365 1101 1314 1153 1249 C 1205 1184 1245 1106 1274 1016 C 1302 926 1317 827 1317 719 Z M 1157 715 C 1157 805 1145 886 1123 960 C 1101 1033 1070 1096 1031 1148 C 991 1200 945 1240 891 1268 C 837 1296 779 1311 717 1311 C 655 1311 597 1297 545 1269 C 492 1241 447 1201 409 1150 C 371 1098 341 1036 319 963 C 297 890 287 809 287 719 C 287 629 298 547 320 474 C 342 400 373 338 412 286 C 451 234 497 193 551 165 C 604 137 662 123 725 123 C 787 123 844 136 897 164 C 949 192 995 231 1034 283 C 1072 335 1102 397 1124 470 C 1146 543 1157 625 1157 715 Z M 756 1526 L 635 1526 L 846 1853 L 1065 1853 L 756 1526 Z" unicode="Ó" />
<glyph horiz-adv-x="1444" d="M 1317 719 C 1317 611 1302 511 1273 421 C 1244 330 1203 252 1151 186 C 1099 120 1036 68 962 32 C 888 -4 807 -23 719 -23 C 629 -23 548 -4 476 31 C 403 67 341 118 289 184 C 237 249 197 327 169 417 C 141 507 127 607 127 715 C 127 823 141 922 170 1013 C 198 1103 239 1181 291 1247 C 343 1313 406 1364 479 1401 C 552 1437 633 1456 723 1456 C 811 1456 892 1437 965 1401 C 1038 1365 1101 1314 1153 1249 C 1205 1184 1245 1106 1274 1016 C 1302 926 1317 827 1317 719 Z M 1157 715 C 1157 805 1145 886 1123 960 C 1101 1033 1070 1096 1031 1148 C 991 1200 945 1240 891 1268 C 837 1296 779 1311 717 1311 C 655 1311 597 1297 545 1269 C 492 1241 447 1201 409 1150 C 371 1098 341 1036 319 963 C 297 890 287 809 287 719 C 287 629 298 547 320 474 C 342 400 373 338 412 286 C 451 234 497 193 551 165 C 604 137 662 123 725 123 C 787 123 844 136 897 164 C 949 192 995 231 1034 283 C 1072 335 1102 397 1124 470 C 1146 543 1157 625 1157 715 Z M 924 1516 L 717 1727 L 510 1516 L 381 1516 L 633 1843 L 805 1843 L 1057 1516 L 924 1516 Z" unicode="Ô" />
<glyph horiz-adv-x="1444" d="M 1317 719 C 1317 611 1302 511 1273 421 C 1244 330 1203 252 1151 186 C 1099 120 1036 68 962 32 C 888 -4 807 -23 719 -23 C 629 -23 548 -4 476 31 C 403 67 341 118 289 184 C 237 249 197 327 169 417 C 141 507 127 607 127 715 C 127 823 141 922 170 1013 C 198 1103 239 1181 291 1247 C 343 1313 406 1364 479 1401 C 552 1437 633 1456 723 1456 C 811 1456 892 1437 965 1401 C 1038 1365 1101 1314 1153 1249 C 1205 1184 1245 1106 1274 1016 C 1302 926 1317 827 1317 719 Z M 1157 715 C 1157 805 1145 886 1123 960 C 1101 1033 1070 1096 1031 1148 C 991 1200 945 1240 891 1268 C 837 1296 779 1311 717 1311 C 655 1311 597 1297 545 1269 C 492 1241 447 1201 409 1150 C 371 1098 341 1036 319 963 C 297 890 287 809 287 719 C 287 629 298 547 320 474 C 342 400 373 338 412 286 C 451 234 497 193 551 165 C 604 137 662 123 725 123 C 787 123 844 136 897 164 C 949 192 995 231 1034 283 C 1072 335 1102 397 1124 470 C 1146 543 1157 625 1157 715 Z M 1084 1798 C 1084 1752 1078 1713 1067 1680 C 1055 1646 1040 1619 1021 1597 C 1001 1575 979 1558 954 1548 C 928 1537 902 1532 875 1532 C 847 1532 821 1536 797 1544 C 773 1552 748 1565 723 1584 C 698 1603 679 1617 667 1627 C 655 1636 645 1643 639 1647 C 624 1657 611 1664 599 1668 C 587 1672 575 1675 561 1675 C 539 1675 521 1664 509 1643 C 496 1621 487 1586 481 1538 L 354 1538 C 354 1583 359 1622 371 1656 C 382 1689 397 1717 417 1739 C 436 1761 458 1777 484 1788 C 509 1798 535 1804 563 1804 C 590 1804 616 1800 640 1792 C 664 1784 689 1770 714 1751 C 739 1732 758 1718 770 1709 C 782 1699 792 1693 799 1689 C 813 1679 826 1671 838 1667 C 850 1663 863 1661 877 1661 C 898 1661 915 1671 928 1693 C 940 1715 950 1750 957 1798 L 1084 1798 Z" unicode="Õ" />
<glyph horiz-adv-x="1444" d="M 1317 719 C 1317 611 1302 511 1273 421 C 1244 330 1203 252 1151 186 C 1099 120 1036 68 962 32 C 888 -4 807 -23 719 -23 C 629 -23 548 -4 476 31 C 403 67 341 118 289 184 C 237 249 197 327 169 417 C 141 507 127 607 127 715 C 127 823 141 922 170 1013 C 198 1103 239 1181 291 1247 C 343 1313 406 1364 479 1401 C 552 1437 633 1456 723 1456 C 811 1456 892 1437 965 1401 C 1038 1365 1101 1314 1153 1249 C 1205 1184 1245 1106 1274 1016 C 1302 926 1317 827 1317 719 Z M 1157 715 C 1157 805 1145 886 1123 960 C 1101 1033 1070 1096 1031 1148 C 991 1200 945 1240 891 1268 C 837 1296 779 1311 717 1311 C 655 1311 597 1297 545 1269 C 492 1241 447 1201 409 1150 C 371 1098 341 1036 319 963 C 297 890 287 809 287 719 C 287 629 298 547 320 474 C 342 400 373 338 412 286 C 451 234 497 193 551 165 C 604 137 662 123 725 123 C 787 123 844 136 897 164 C 949 192 995 231 1034 283 C 1072 335 1102 397 1124 470 C 1146 543 1157 625 1157 715 Z M 1032 1655 C 1032 1639 1029 1625 1023 1611 C 1017 1597 1009 1585 999 1575 C 989 1565 977 1557 963 1551 C 949 1545 935 1542 920 1542 C 904 1542 890 1545 876 1551 C 862 1557 850 1565 840 1575 C 830 1585 822 1597 816 1611 C 810 1625 807 1639 807 1655 C 807 1670 810 1684 816 1698 C 822 1712 830 1724 840 1735 C 850 1745 862 1754 876 1760 C 890 1766 904 1769 920 1769 C 935 1769 949 1766 963 1760 C 977 1754 989 1745 999 1735 C 1009 1724 1017 1712 1023 1698 C 1029 1684 1032 1670 1032 1655 Z M 635 1655 C 635 1639 632 1625 626 1611 C 620 1597 612 1585 602 1575 C 592 1565 580 1557 566 1551 C 552 1545 538 1542 524 1542 C 508 1542 493 1545 479 1551 C 465 1557 453 1565 443 1575 C 433 1585 425 1597 419 1611 C 413 1625 410 1639 410 1655 C 410 1670 413 1684 419 1698 C 425 1712 433 1724 443 1735 C 453 1745 465 1754 479 1760 C 493 1766 508 1769 524 1769 C 538 1769 552 1766 566 1760 C 580 1754 592 1745 602 1735 C 612 1724 620 1712 626 1698 C 632 1684 635 1670 635 1655 Z" unicode="Ö" />
<glyph horiz-adv-x="1270" d="M 1018 225 L 635 612 L 252 225 L 156 322 L 543 705 L 156 1087 L 252 1184 L 635 797 L 1018 1184 L 1114 1087 L 727 705 L 1114 322 L 1018 225 Z" unicode="×" />
<glyph horiz-adv-x="1444" d="M 1317 719 C 1317 611 1302 511 1273 421 C 1244 330 1203 252 1151 186 C 1099 120 1036 68 962 32 C 888 -4 807 -23 719 -23 C 629 -23 545 -3 465 37 L 401 -102 L 260 -102 L 358 111 C 284 177 227 261 187 364 C 147 467 127 584 127 715 C 127 823 141 922 170 1013 C 198 1103 239 1181 291 1247 C 343 1313 406 1364 479 1401 C 552 1437 633 1456 723 1456 C 804 1456 880 1440 950 1409 L 1008 1536 L 1149 1536 L 1061 1341 C 1101 1309 1136 1272 1168 1230 C 1200 1187 1227 1139 1249 1086 C 1271 1033 1287 976 1299 914 C 1311 852 1317 787 1317 719 Z M 889 1276 C 835 1303 778 1317 717 1317 C 654 1317 596 1302 543 1274 C 490 1246 444 1206 405 1154 C 366 1102 336 1039 314 965 C 292 891 281 809 281 719 C 281 621 293 533 319 455 C 345 377 380 312 426 260 L 889 1276 Z M 1163 715 C 1163 821 1148 915 1118 997 C 1088 1079 1047 1146 995 1198 L 526 172 C 585 135 651 117 725 117 C 787 117 845 131 899 159 C 952 187 998 227 1037 279 C 1076 331 1107 393 1129 467 C 1151 541 1163 623 1163 715 Z" unicode="Ø" />
<glyph horiz-adv-x="1389" d="M 1210 582 C 1210 472 1197 378 1171 300 C 1145 222 1110 160 1066 114 C 1021 67 968 32 908 10 C 847 -11 776 -23 696 -23 C 615 -23 544 -11 483 10 C 421 32 368 67 323 114 C 277 160 242 222 216 300 C 190 378 178 472 178 582 L 178 1434 L 338 1434 L 338 586 C 338 430 368 313 428 237 C 488 161 580 123 705 123 C 827 123 915 160 969 234 C 1023 308 1051 424 1051 582 L 1051 1434 L 1210 1434 L 1210 582 Z M 656 1495 L 347 1822 L 566 1822 L 777 1495 L 656 1495 Z" unicode="Ù" />
<glyph horiz-adv-x="1389" d="M 1210 582 C 1210 472 1197 378 1171 300 C 1145 222 1110 160 1066 114 C 1021 67 968 32 908 10 C 847 -11 776 -23 696 -23 C 615 -23 544 -11 483 10 C 421 32 368 67 323 114 C 277 160 242 222 216 300 C 190 378 178 472 178 582 L 178 1434 L 338 1434 L 338 586 C 338 430 368 313 428 237 C 488 161 580 123 705 123 C 827 123 915 160 969 234 C 1023 308 1051 424 1051 582 L 1051 1434 L 1210 1434 L 1210 582 Z M 729 1495 L 608 1495 L 819 1822 L 1038 1822 L 729 1495 Z" unicode="Ú" />
<glyph horiz-adv-x="1389" d="M 1210 582 C 1210 472 1197 378 1171 300 C 1145 222 1110 160 1066 114 C 1021 67 968 32 908 10 C 847 -11 776 -23 696 -23 C 615 -23 544 -11 483 10 C 421 32 368 67 323 114 C 277 160 242 222 216 300 C 190 378 178 472 178 582 L 178 1434 L 338 1434 L 338 586 C 338 430 368 313 428 237 C 488 161 580 123 705 123 C 827 123 915 160 969 234 C 1023 308 1051 424 1051 582 L 1051 1434 L 1210 1434 L 1210 582 Z M 899 1526 L 692 1737 L 485 1526 L 356 1526 L 608 1853 L 780 1853 L 1032 1526 L 899 1526 Z" unicode="Û" />
<glyph horiz-adv-x="1389" d="M 1210 582 C 1210 472 1197 378 1171 300 C 1145 222 1110 160 1066 114 C 1021 67 968 32 908 10 C 847 -11 776 -23 696 -23 C 615 -23 544 -11 483 10 C 421 32 368 67 323 114 C 277 160 242 222 216 300 C 190 378 178 472 178 582 L 178 1434 L 338 1434 L 338 586 C 338 430 368 313 428 237 C 488 161 580 123 705 123 C 827 123 915 160 969 234 C 1023 308 1051 424 1051 582 L 1051 1434 L 1210 1434 L 1210 582 Z M 1005 1655 C 1005 1639 1002 1625 996 1611 C 990 1597 982 1585 972 1575 C 962 1565 950 1557 936 1551 C 922 1545 908 1542 893 1542 C 877 1542 863 1545 849 1551 C 835 1557 823 1565 813 1575 C 803 1585 795 1597 789 1611 C 783 1625 780 1639 780 1655 C 780 1670 783 1684 789 1698 C 795 1712 803 1724 813 1735 C 823 1745 835 1754 849 1760 C 863 1766 877 1769 893 1769 C 908 1769 922 1766 936 1760 C 950 1754 962 1745 972 1735 C 982 1724 990 1712 996 1698 C 1002 1684 1005 1670 1005 1655 Z M 608 1655 C 608 1639 605 1625 599 1611 C 593 1597 585 1585 575 1575 C 565 1565 553 1557 539 1551 C 525 1545 511 1542 497 1542 C 481 1542 466 1545 452 1551 C 438 1557 426 1565 416 1575 C 406 1585 398 1597 392 1611 C 386 1625 383 1639 383 1655 C 383 1670 386 1684 392 1698 C 398 1712 406 1724 416 1735 C 426 1745 438 1754 452 1760 C 466 1766 481 1769 497 1769 C 511 1769 525 1766 539 1760 C 553 1754 565 1745 575 1735 C 585 1724 593 1712 599 1698 C 605 1684 608 1670 608 1655 Z" unicode="Ü" />
<glyph horiz-adv-x="1335" d="M 1239 1434 L 748 569 L 748 0 L 588 0 L 588 567 L 96 1434 L 279 1434 L 669 731 L 1061 1434 L 1239 1434 Z M 633 1526 L 512 1526 L 723 1853 L 942 1853 L 633 1526 Z" unicode="Ý" />
<glyph horiz-adv-x="1266" d="M 1182 748 C 1182 676 1170 613 1146 558 C 1122 503 1089 457 1046 419 C 1003 381 952 353 893 334 C 833 314 768 305 696 305 L 348 305 L 348 0 L 188 0 L 188 1434 L 348 1434 L 348 1176 L 725 1176 C 789 1176 850 1167 906 1150 C 962 1132 1010 1106 1051 1071 C 1091 1035 1123 991 1147 937 C 1170 883 1182 820 1182 748 Z M 1022 741 C 1022 834 996 905 944 955 C 892 1005 817 1030 719 1030 L 348 1030 L 348 451 L 698 451 C 808 451 890 475 943 524 C 995 573 1022 645 1022 741 Z" unicode="Þ" />
<glyph horiz-adv-x="1171" d="M 1059 463 C 1059 377 1045 305 1017 247 C 989 188 950 140 902 104 C 854 67 797 40 733 24 C 669 8 600 0 528 0 L 498 0 L 498 135 L 535 135 C 593 135 646 141 692 153 C 738 165 776 183 808 209 C 839 235 863 267 880 307 C 896 346 905 393 905 449 C 905 502 895 547 875 585 C 855 623 828 654 794 678 C 760 702 721 719 677 731 C 633 742 587 748 539 748 L 498 748 L 498 881 L 545 881 C 623 881 685 901 729 941 C 773 981 795 1041 795 1122 C 795 1193 773 1249 729 1291 C 685 1333 627 1354 557 1354 C 487 1354 431 1330 388 1282 C 345 1234 324 1167 324 1083 L 324 -309 L 170 -395 L 170 1057 C 170 1126 179 1187 198 1241 C 216 1295 243 1340 277 1376 C 311 1412 353 1440 401 1459 C 449 1477 502 1487 561 1487 C 619 1487 673 1477 721 1459 C 769 1440 809 1414 843 1382 C 876 1350 902 1311 920 1267 C 938 1223 948 1175 948 1124 C 948 1054 932 994 902 945 C 872 896 825 857 762 827 C 798 818 833 805 869 788 C 904 770 936 747 964 718 C 992 689 1014 654 1032 612 C 1050 570 1059 520 1059 463 Z" unicode="ß" />
<glyph horiz-adv-x="1104" d="M 786 0 L 786 131 C 767 110 746 90 723 72 C 700 53 675 37 647 23 C 619 9 589 -2 557 -10 C 524 -18 489 -23 451 -23 C 409 -23 367 -17 326 -6 C 284 5 247 24 215 51 C 183 78 156 114 136 158 C 116 202 106 256 106 322 C 106 382 117 433 140 477 C 163 520 194 556 232 584 C 270 612 313 632 363 646 C 413 659 464 666 518 666 C 572 666 623 660 669 648 C 715 636 754 621 786 604 L 786 731 C 786 811 767 871 729 910 C 691 949 632 969 553 969 C 496 969 444 961 397 947 C 349 932 304 912 260 887 L 203 1012 C 250 1037 304 1058 366 1074 C 427 1090 493 1098 563 1098 C 621 1098 673 1091 720 1078 C 766 1065 806 1045 838 1017 C 870 989 895 953 913 909 C 931 865 940 812 940 750 L 940 0 L 786 0 Z M 786 481 C 768 491 750 499 732 507 C 713 515 693 521 671 527 C 649 532 624 536 598 539 C 572 541 542 543 510 543 C 430 543 368 524 324 488 C 280 452 258 400 258 332 C 258 292 263 257 274 228 C 284 199 299 175 318 157 C 337 138 360 124 387 115 C 414 106 444 102 477 102 C 511 102 544 106 574 114 C 604 122 633 134 659 149 C 685 163 708 180 730 200 C 751 220 770 241 786 264 L 786 481 Z M 534 1219 L 225 1546 L 444 1546 L 655 1219 L 534 1219 Z" unicode="à" />
<glyph horiz-adv-x="1104" d="M 786 0 L 786 131 C 767 110 746 90 723 72 C 700 53 675 37 647 23 C 619 9 589 -2 557 -10 C 524 -18 489 -23 451 -23 C 409 -23 367 -17 326 -6 C 284 5 247 24 215 51 C 183 78 156 114 136 158 C 116 202 106 256 106 322 C 106 382 117 433 140 477 C 163 520 194 556 232 584 C 270 612 313 632 363 646 C 413 659 464 666 518 666 C 572 666 623 660 669 648 C 715 636 754 621 786 604 L 786 731 C 786 811 767 871 729 910 C 691 949 632 969 553 969 C 496 969 444 961 397 947 C 349 932 304 912 260 887 L 203 1012 C 250 1037 304 1058 366 1074 C 427 1090 493 1098 563 1098 C 621 1098 673 1091 720 1078 C 766 1065 806 1045 838 1017 C 870 989 895 953 913 909 C 931 865 940 812 940 750 L 940 0 L 786 0 Z M 786 481 C 768 491 750 499 732 507 C 713 515 693 521 671 527 C 649 532 624 536 598 539 C 572 541 542 543 510 543 C 430 543 368 524 324 488 C 280 452 258 400 258 332 C 258 292 263 257 274 228 C 284 199 299 175 318 157 C 337 138 360 124 387 115 C 414 106 444 102 477 102 C 511 102 544 106 574 114 C 604 122 633 134 659 149 C 685 163 708 180 730 200 C 751 220 770 241 786 264 L 786 481 Z M 586 1219 L 465 1219 L 676 1546 L 895 1546 L 586 1219 Z" unicode="á" />
<glyph horiz-adv-x="1104" d="M 786 0 L 786 131 C 767 110 746 90 723 72 C 700 53 675 37 647 23 C 619 9 589 -2 557 -10 C 524 -18 489 -23 451 -23 C 409 -23 367 -17 326 -6 C 284 5 247 24 215 51 C 183 78 156 114 136 158 C 116 202 106 256 106 322 C 106 382 117 433 140 477 C 163 520 194 556 232 584 C 270 612 313 632 363 646 C 413 659 464 666 518 666 C 572 666 623 660 669 648 C 715 636 754 621 786 604 L 786 731 C 786 811 767 871 729 910 C 691 949 632 969 553 969 C 496 969 444 961 397 947 C 349 932 304 912 260 887 L 203 1012 C 250 1037 304 1058 366 1074 C 427 1090 493 1098 563 1098 C 621 1098 673 1091 720 1078 C 766 1065 806 1045 838 1017 C 870 989 895 953 913 909 C 931 865 940 812 940 750 L 940 0 L 786 0 Z M 786 481 C 768 491 750 499 732 507 C 713 515 693 521 671 527 C 649 532 624 536 598 539 C 572 541 542 543 510 543 C 430 543 368 524 324 488 C 280 452 258 400 258 332 C 258 292 263 257 274 228 C 284 199 299 175 318 157 C 337 138 360 124 387 115 C 414 106 444 102 477 102 C 511 102 544 106 574 114 C 604 122 633 134 659 149 C 685 163 708 180 730 200 C 751 220 770 241 786 264 L 786 481 Z M 760 1210 L 553 1421 L 346 1210 L 217 1210 L 469 1537 L 641 1537 L 893 1210 L 760 1210 Z" unicode="â" />
<glyph horiz-adv-x="1104" d="M 786 0 L 786 131 C 767 110 746 90 723 72 C 700 53 675 37 647 23 C 619 9 589 -2 557 -10 C 524 -18 489 -23 451 -23 C 409 -23 367 -17 326 -6 C 284 5 247 24 215 51 C 183 78 156 114 136 158 C 116 202 106 256 106 322 C 106 382 117 433 140 477 C 163 520 194 556 232 584 C 270 612 313 632 363 646 C 413 659 464 666 518 666 C 572 666 623 660 669 648 C 715 636 754 621 786 604 L 786 731 C 786 811 767 871 729 910 C 691 949 632 969 553 969 C 496 969 444 961 397 947 C 349 932 304 912 260 887 L 203 1012 C 250 1037 304 1058 366 1074 C 427 1090 493 1098 563 1098 C 621 1098 673 1091 720 1078 C 766 1065 806 1045 838 1017 C 870 989 895 953 913 909 C 931 865 940 812 940 750 L 940 0 L 786 0 Z M 786 481 C 768 491 750 499 732 507 C 713 515 693 521 671 527 C 649 532 624 536 598 539 C 572 541 542 543 510 543 C 430 543 368 524 324 488 C 280 452 258 400 258 332 C 258 292 263 257 274 228 C 284 199 299 175 318 157 C 337 138 360 124 387 115 C 414 106 444 102 477 102 C 511 102 544 106 574 114 C 604 122 633 134 659 149 C 685 163 708 180 730 200 C 751 220 770 241 786 264 L 786 481 Z M 918 1491 C 918 1445 912 1406 901 1373 C 889 1339 874 1312 855 1290 C 835 1268 813 1251 788 1241 C 762 1230 736 1225 709 1225 C 681 1225 655 1229 631 1237 C 607 1245 582 1258 557 1277 C 532 1296 513 1310 501 1320 C 489 1329 479 1336 473 1340 C 458 1350 445 1357 433 1361 C 421 1365 409 1368 395 1368 C 373 1368 355 1357 343 1336 C 330 1314 321 1279 315 1231 L 188 1231 C 188 1276 193 1315 205 1349 C 216 1382 231 1410 251 1432 C 270 1454 292 1470 318 1481 C 343 1491 369 1497 397 1497 C 424 1497 450 1493 474 1485 C 498 1477 523 1463 548 1444 C 573 1425 592 1411 604 1402 C 616 1392 626 1386 633 1382 C 647 1372 660 1364 672 1360 C 684 1356 697 1354 711 1354 C 732 1354 749 1364 762 1386 C 774 1408 784 1443 791 1491 L 918 1491 Z" unicode="ã" />
<glyph horiz-adv-x="1104" d="M 786 0 L 786 131 C 767 110 746 90 723 72 C 700 53 675 37 647 23 C 619 9 589 -2 557 -10 C 524 -18 489 -23 451 -23 C 409 -23 367 -17 326 -6 C 284 5 247 24 215 51 C 183 78 156 114 136 158 C 116 202 106 256 106 322 C 106 382 117 433 140 477 C 163 520 194 556 232 584 C 270 612 313 632 363 646 C 413 659 464 666 518 666 C 572 666 623 660 669 648 C 715 636 754 621 786 604 L 786 731 C 786 811 767 871 729 910 C 691 949 632 969 553 969 C 496 969 444 961 397 947 C 349 932 304 912 260 887 L 203 1012 C 250 1037 304 1058 366 1074 C 427 1090 493 1098 563 1098 C 621 1098 673 1091 720 1078 C 766 1065 806 1045 838 1017 C 870 989 895 953 913 909 C 931 865 940 812 940 750 L 940 0 L 786 0 Z M 786 481 C 768 491 750 499 732 507 C 713 515 693 521 671 527 C 649 532 624 536 598 539 C 572 541 542 543 510 543 C 430 543 368 524 324 488 C 280 452 258 400 258 332 C 258 292 263 257 274 228 C 284 199 299 175 318 157 C 337 138 360 124 387 115 C 414 106 444 102 477 102 C 511 102 544 106 574 114 C 604 122 633 134 659 149 C 685 163 708 180 730 200 C 751 220 770 241 786 264 L 786 481 Z M 864 1339 C 864 1323 861 1309 855 1295 C 849 1281 841 1269 831 1259 C 821 1249 809 1241 795 1235 C 781 1229 767 1226 752 1226 C 736 1226 722 1229 708 1235 C 694 1241 682 1249 672 1259 C 662 1269 654 1281 648 1295 C 642 1309 639 1323 639 1339 C 639 1354 642 1368 648 1382 C 654 1396 662 1408 672 1419 C 682 1429 694 1438 708 1444 C 722 1450 736 1453 752 1453 C 767 1453 781 1450 795 1444 C 809 1438 821 1429 831 1419 C 841 1408 849 1396 855 1382 C 861 1368 864 1354 864 1339 Z M 467 1339 C 467 1323 464 1309 458 1295 C 452 1281 444 1269 434 1259 C 424 1249 412 1241 398 1235 C 384 1229 370 1226 356 1226 C 340 1226 325 1229 311 1235 C 297 1241 285 1249 275 1259 C 265 1269 257 1281 251 1295 C 245 1309 242 1323 242 1339 C 242 1354 245 1368 251 1382 C 257 1396 265 1408 275 1419 C 285 1429 297 1438 311 1444 C 325 1450 340 1453 356 1453 C 370 1453 384 1450 398 1444 C 412 1438 424 1429 434 1419 C 444 1408 452 1396 458 1382 C 464 1368 467 1354 467 1339 Z" unicode="ä" />
<glyph horiz-adv-x="1104" d="M 786 0 L 786 131 C 767 110 746 90 723 72 C 700 53 675 37 647 23 C 619 9 589 -2 557 -10 C 524 -18 489 -23 451 -23 C 409 -23 367 -17 326 -6 C 284 5 247 24 215 51 C 183 78 156 114 136 158 C 116 202 106 256 106 322 C 106 382 117 433 140 477 C 163 520 194 556 232 584 C 270 612 313 632 363 646 C 413 659 464 666 518 666 C 572 666 623 660 669 648 C 715 636 754 621 786 604 L 786 731 C 786 811 767 871 729 910 C 691 949 632 969 553 969 C 496 969 444 961 397 947 C 349 932 304 912 260 887 L 203 1012 C 250 1037 304 1058 366 1074 C 427 1090 493 1098 563 1098 C 621 1098 673 1091 720 1078 C 766 1065 806 1045 838 1017 C 870 989 895 953 913 909 C 931 865 940 812 940 750 L 940 0 L 786 0 Z M 786 481 C 768 491 750 499 732 507 C 713 515 693 521 671 527 C 649 532 624 536 598 539 C 572 541 542 543 510 543 C 430 543 368 524 324 488 C 280 452 258 400 258 332 C 258 292 263 257 274 228 C 284 199 299 175 318 157 C 337 138 360 124 387 115 C 414 106 444 102 477 102 C 511 102 544 106 574 114 C 604 122 633 134 659 149 C 685 163 708 180 730 200 C 751 220 770 241 786 264 L 786 481 Z M 795 1466 C 795 1432 789 1401 777 1372 C 765 1343 748 1318 727 1296 C 705 1274 680 1257 651 1245 C 621 1233 589 1227 555 1227 C 520 1227 488 1233 459 1245 C 429 1257 404 1274 383 1296 C 361 1318 345 1343 333 1372 C 321 1401 315 1432 315 1466 C 315 1499 321 1530 333 1559 C 345 1588 361 1613 383 1635 C 404 1656 429 1673 459 1685 C 488 1697 520 1704 555 1704 C 589 1704 621 1697 651 1685 C 680 1673 705 1656 727 1635 C 748 1613 765 1588 777 1559 C 789 1530 795 1499 795 1466 Z M 698 1466 C 698 1486 694 1506 688 1524 C 681 1542 671 1557 659 1570 C 647 1583 632 1593 614 1601 C 596 1608 577 1612 555 1612 C 533 1612 513 1608 495 1601 C 477 1593 462 1583 450 1570 C 438 1557 428 1542 422 1524 C 415 1506 412 1486 412 1466 C 412 1444 415 1425 422 1407 C 428 1389 438 1373 450 1360 C 462 1347 477 1337 495 1330 C 513 1322 533 1319 555 1319 C 577 1319 596 1322 614 1330 C 632 1337 647 1347 659 1360 C 671 1373 681 1389 688 1407 C 694 1425 698 1444 698 1466 Z" unicode="å" />
<glyph horiz-adv-x="1716" d="M 1599 569 C 1599 550 1598 534 1597 522 C 1596 510 1595 497 1593 485 L 905 485 C 909 427 917 376 931 330 C 945 284 963 244 987 212 C 1011 179 1039 154 1073 137 C 1107 119 1146 111 1190 111 C 1221 111 1249 113 1273 117 C 1297 121 1319 128 1341 137 C 1362 145 1383 156 1404 169 C 1425 181 1448 196 1473 213 L 1544 102 C 1512 81 1482 63 1454 47 C 1426 31 1399 18 1371 8 C 1343 -1 1313 -9 1281 -15 C 1249 -20 1214 -23 1174 -23 C 1111 -23 1050 -8 992 21 C 934 50 884 98 842 164 C 782 94 721 46 659 18 C 597 -9 522 -23 436 -23 C 394 -23 353 -17 313 -6 C 273 5 238 24 208 51 C 177 78 152 114 134 158 C 115 202 106 256 106 322 C 106 382 116 433 138 477 C 159 520 188 556 225 584 C 261 612 304 632 352 646 C 400 659 450 666 504 666 C 558 666 605 660 647 648 C 689 636 726 621 758 604 L 758 731 C 758 811 741 871 707 910 C 673 949 617 969 539 969 C 480 969 428 960 382 944 C 336 928 296 909 260 887 L 203 1012 C 250 1037 302 1058 359 1074 C 415 1090 479 1098 549 1098 C 644 1098 717 1080 768 1046 C 818 1011 850 963 862 903 C 894 965 936 1013 990 1047 C 1043 1081 1107 1098 1182 1098 C 1252 1098 1313 1084 1365 1058 C 1417 1032 1461 995 1495 949 C 1529 902 1555 846 1573 781 C 1590 716 1599 645 1599 569 Z M 1456 610 C 1452 662 1445 709 1434 753 C 1422 797 1406 834 1384 866 C 1362 897 1334 921 1300 939 C 1266 956 1226 965 1180 965 C 1135 965 1096 956 1063 939 C 1030 921 1003 897 981 866 C 959 834 941 797 929 753 C 917 709 909 662 905 610 L 1456 610 Z M 754 483 C 736 492 719 500 703 508 C 686 515 668 521 648 527 C 628 532 605 536 581 539 C 556 541 528 543 496 543 C 416 543 357 524 317 488 C 277 452 258 400 258 332 C 258 252 275 193 311 157 C 347 120 397 102 463 102 C 487 102 513 105 540 111 C 567 117 594 127 622 141 C 650 155 677 174 705 198 C 733 221 760 250 786 285 C 776 313 769 344 764 377 C 759 409 756 445 754 483 Z" unicode="æ" />
<glyph horiz-adv-x="1014" d="M 911 127 C 888 103 864 82 840 64 C 815 46 789 30 761 17 C 733 4 702 -5 670 -12 C 638 -19 603 -23 565 -23 C 506 -23 449 -11 395 11 C 341 33 293 68 251 114 C 209 160 175 217 150 287 C 125 357 113 438 113 532 C 113 631 126 716 153 788 C 180 859 215 918 259 964 C 303 1010 352 1043 408 1065 C 463 1087 519 1098 575 1098 C 648 1098 712 1086 768 1062 C 824 1038 873 1007 915 971 L 823 856 C 803 873 784 888 765 902 C 745 916 725 927 705 937 C 685 946 663 953 640 958 C 617 962 592 965 565 965 C 523 965 483 955 447 937 C 411 918 379 891 353 855 C 327 819 306 775 291 723 C 275 671 268 611 268 545 C 268 479 274 419 288 366 C 302 312 322 267 348 229 C 374 191 405 161 443 141 C 481 121 523 111 571 111 C 597 111 621 113 643 119 C 665 124 686 131 706 141 C 726 151 745 163 763 177 C 781 191 800 207 819 225 L 911 127 Z M 483 0 L 575 0 L 540 -104 C 554 -94 571 -87 589 -83 C 607 -78 628 -76 653 -76 C 667 -76 682 -78 698 -83 C 714 -88 728 -96 742 -107 C 756 -118 767 -133 776 -151 C 785 -169 790 -191 790 -217 C 790 -250 783 -278 770 -301 C 757 -323 739 -342 717 -356 C 695 -370 669 -380 640 -386 C 610 -392 579 -395 547 -395 C 505 -395 463 -388 421 -376 C 379 -363 341 -345 305 -322 L 344 -256 C 400 -292 463 -311 532 -311 C 579 -311 614 -303 636 -288 C 658 -272 669 -251 669 -223 C 669 -202 663 -186 652 -174 C 641 -162 625 -156 604 -156 C 564 -156 531 -168 506 -193 L 432 -164 L 483 0 Z" unicode="ç" />
<glyph horiz-adv-x="1106" d="M 989 569 C 989 550 988 534 987 522 C 986 510 985 497 983 485 L 266 485 C 270 427 279 376 294 330 C 309 284 329 244 355 212 C 380 179 410 154 446 137 C 481 119 521 111 565 111 C 596 111 624 113 650 117 C 676 121 700 128 723 137 C 746 145 769 156 791 169 C 813 181 837 196 862 213 L 934 102 C 902 81 871 63 842 47 C 813 31 784 18 754 8 C 724 -1 692 -9 659 -15 C 626 -20 589 -23 549 -23 C 516 -23 482 -18 448 -10 C 414 -2 380 11 348 30 C 316 48 285 72 257 102 C 228 131 203 167 182 209 C 160 251 143 299 131 355 C 119 410 113 473 113 543 C 113 628 124 705 146 774 C 168 842 199 901 239 949 C 278 997 325 1033 379 1059 C 433 1085 493 1098 557 1098 C 627 1098 689 1084 743 1058 C 797 1032 842 995 878 949 C 914 902 942 846 961 781 C 979 716 989 645 989 569 Z M 846 610 C 842 662 834 709 821 753 C 808 797 790 834 766 866 C 742 897 713 921 678 939 C 642 956 601 965 555 965 C 515 965 478 957 445 943 C 411 929 382 907 357 877 C 332 847 312 810 296 766 C 280 722 270 670 266 610 L 846 610 Z M 534 1219 L 225 1546 L 444 1546 L 655 1219 L 534 1219 Z" unicode="è" />
<glyph horiz-adv-x="1106" d="M 989 569 C 989 550 988 534 987 522 C 986 510 985 497 983 485 L 266 485 C 270 427 279 376 294 330 C 309 284 329 244 355 212 C 380 179 410 154 446 137 C 481 119 521 111 565 111 C 596 111 624 113 650 117 C 676 121 700 128 723 137 C 746 145 769 156 791 169 C 813 181 837 196 862 213 L 934 102 C 902 81 871 63 842 47 C 813 31 784 18 754 8 C 724 -1 692 -9 659 -15 C 626 -20 589 -23 549 -23 C 516 -23 482 -18 448 -10 C 414 -2 380 11 348 30 C 316 48 285 72 257 102 C 228 131 203 167 182 209 C 160 251 143 299 131 355 C 119 410 113 473 113 543 C 113 628 124 705 146 774 C 168 842 199 901 239 949 C 278 997 325 1033 379 1059 C 433 1085 493 1098 557 1098 C 627 1098 689 1084 743 1058 C 797 1032 842 995 878 949 C 914 902 942 846 961 781 C 979 716 989 645 989 569 Z M 846 610 C 842 662 834 709 821 753 C 808 797 790 834 766 866 C 742 897 713 921 678 939 C 642 956 601 965 555 965 C 515 965 478 957 445 943 C 411 929 382 907 357 877 C 332 847 312 810 296 766 C 280 722 270 670 266 610 L 846 610 Z M 586 1219 L 465 1219 L 676 1546 L 895 1546 L 586 1219 Z" unicode="é" />
<glyph horiz-adv-x="1106" d="M 989 569 C 989 550 988 534 987 522 C 986 510 985 497 983 485 L 266 485 C 270 427 279 376 294 330 C 309 284 329 244 355 212 C 380 179 410 154 446 137 C 481 119 521 111 565 111 C 596 111 624 113 650 117 C 676 121 700 128 723 137 C 746 145 769 156 791 169 C 813 181 837 196 862 213 L 934 102 C 902 81 871 63 842 47 C 813 31 784 18 754 8 C 724 -1 692 -9 659 -15 C 626 -20 589 -23 549 -23 C 516 -23 482 -18 448 -10 C 414 -2 380 11 348 30 C 316 48 285 72 257 102 C 228 131 203 167 182 209 C 160 251 143 299 131 355 C 119 410 113 473 113 543 C 113 628 124 705 146 774 C 168 842 199 901 239 949 C 278 997 325 1033 379 1059 C 433 1085 493 1098 557 1098 C 627 1098 689 1084 743 1058 C 797 1032 842 995 878 949 C 914 902 942 846 961 781 C 979 716 989 645 989 569 Z M 846 610 C 842 662 834 709 821 753 C 808 797 790 834 766 866 C 742 897 713 921 678 939 C 642 956 601 965 555 965 C 515 965 478 957 445 943 C 411 929 382 907 357 877 C 332 847 312 810 296 766 C 280 722 270 670 266 610 L 846 610 Z M 760 1200 L 553 1411 L 346 1200 L 217 1200 L 469 1527 L 641 1527 L 893 1200 L 760 1200 Z" unicode="ê" />
<glyph horiz-adv-x="1106" d="M 989 569 C 989 550 988 534 987 522 C 986 510 985 497 983 485 L 266 485 C 270 427 279 376 294 330 C 309 284 329 244 355 212 C 380 179 410 154 446 137 C 481 119 521 111 565 111 C 596 111 624 113 650 117 C 676 121 700 128 723 137 C 746 145 769 156 791 169 C 813 181 837 196 862 213 L 934 102 C 902 81 871 63 842 47 C 813 31 784 18 754 8 C 724 -1 692 -9 659 -15 C 626 -20 589 -23 549 -23 C 516 -23 482 -18 448 -10 C 414 -2 380 11 348 30 C 316 48 285 72 257 102 C 228 131 203 167 182 209 C 160 251 143 299 131 355 C 119 410 113 473 113 543 C 113 628 124 705 146 774 C 168 842 199 901 239 949 C 278 997 325 1033 379 1059 C 433 1085 493 1098 557 1098 C 627 1098 689 1084 743 1058 C 797 1032 842 995 878 949 C 914 902 942 846 961 781 C 979 716 989 645 989 569 Z M 846 610 C 842 662 834 709 821 753 C 808 797 790 834 766 866 C 742 897 713 921 678 939 C 642 956 601 965 555 965 C 515 965 478 957 445 943 C 411 929 382 907 357 877 C 332 847 312 810 296 766 C 280 722 270 670 266 610 L 846 610 Z M 866 1339 C 866 1323 863 1309 857 1295 C 851 1281 843 1269 833 1259 C 823 1249 811 1241 797 1235 C 783 1229 769 1226 754 1226 C 738 1226 724 1229 710 1235 C 696 1241 684 1249 674 1259 C 664 1269 656 1281 650 1295 C 644 1309 641 1323 641 1339 C 641 1354 644 1368 650 1382 C 656 1396 664 1408 674 1419 C 684 1429 696 1438 710 1444 C 724 1450 738 1453 754 1453 C 769 1453 783 1450 797 1444 C 811 1438 823 1429 833 1419 C 843 1408 851 1396 857 1382 C 863 1368 866 1354 866 1339 Z M 469 1339 C 469 1323 466 1309 460 1295 C 454 1281 446 1269 436 1259 C 426 1249 414 1241 400 1235 C 386 1229 372 1226 358 1226 C 342 1226 327 1229 313 1235 C 299 1241 287 1249 277 1259 C 267 1269 259 1281 253 1295 C 247 1309 244 1323 244 1339 C 244 1354 247 1368 253 1382 C 259 1396 267 1408 277 1419 C 287 1429 299 1438 313 1444 C 327 1450 342 1453 358 1453 C 372 1453 386 1450 400 1444 C 414 1438 426 1429 436 1419 C 446 1408 454 1396 460 1382 C 466 1368 469 1354 469 1339 Z" unicode="ë" />
<glyph horiz-adv-x="514" d="M 180 0 L 180 1075 L 334 1075 L 334 0 L 180 0 Z M 204 1219 L -105 1546 L 114 1546 L 325 1219 L 204 1219 Z" unicode="ì" />
<glyph horiz-adv-x="514" d="M 180 0 L 180 1075 L 334 1075 L 334 0 L 180 0 Z M 312 1219 L 191 1219 L 402 1546 L 621 1546 L 312 1219 Z" unicode="í" />
<glyph horiz-adv-x="514" d="M 180 0 L 180 1075 L 334 1075 L 334 0 L 180 0 Z M 462 1189 L 255 1400 L 48 1189 L -81 1189 L 171 1516 L 343 1516 L 595 1189 L 462 1189 Z" unicode="î" />
<glyph horiz-adv-x="514" d="M 180 0 L 180 1075 L 334 1075 L 334 0 L 180 0 Z M 568 1329 C 568 1313 565 1299 559 1285 C 553 1271 545 1259 535 1249 C 525 1239 513 1231 499 1225 C 485 1219 471 1216 456 1216 C 440 1216 426 1219 412 1225 C 398 1231 386 1239 376 1249 C 366 1259 358 1271 352 1285 C 346 1299 343 1313 343 1329 C 343 1344 346 1358 352 1372 C 358 1386 366 1398 376 1409 C 386 1419 398 1428 412 1434 C 426 1440 440 1443 456 1443 C 471 1443 485 1440 499 1434 C 513 1428 525 1419 535 1409 C 545 1398 553 1386 559 1372 C 565 1358 568 1344 568 1329 Z M 171 1329 C 171 1313 168 1299 162 1285 C 156 1271 148 1259 138 1249 C 128 1239 116 1231 102 1225 C 88 1219 74 1216 60 1216 C 44 1216 29 1219 15 1225 C 1 1231 -10 1239 -20 1249 C -30 1259 -39 1271 -45 1285 C -51 1299 -54 1313 -54 1329 C -54 1344 -51 1358 -45 1372 C -39 1386 -30 1398 -20 1409 C -10 1419 1 1428 15 1434 C 29 1440 44 1443 60 1443 C 74 1443 88 1440 102 1434 C 116 1428 128 1419 138 1409 C 148 1398 156 1386 162 1372 C 168 1358 171 1344 171 1329 Z" unicode="ï" />
<glyph horiz-adv-x="1159" d="M 1047 610 C 1047 500 1036 405 1014 325 C 992 245 961 180 921 128 C 880 76 830 38 772 14 C 714 -10 648 -23 575 -23 C 513 -23 454 -12 398 10 C 342 32 293 64 251 106 C 209 148 175 201 150 264 C 125 326 113 399 113 481 C 113 563 125 636 149 699 C 173 762 205 815 245 857 C 285 899 330 932 382 954 C 434 976 487 987 543 987 C 620 987 689 973 749 946 C 809 918 862 871 907 805 C 886 895 857 974 820 1040 C 783 1106 736 1162 680 1206 L 565 1077 L 461 1165 L 559 1276 C 499 1300 438 1315 375 1321 L 375 1456 C 423 1452 470 1444 516 1432 C 562 1420 607 1402 651 1380 L 721 1456 L 825 1368 L 766 1303 C 808 1268 846 1228 881 1182 C 915 1136 945 1084 969 1026 C 993 968 1012 905 1026 835 C 1040 765 1047 690 1047 610 Z M 893 485 C 893 549 884 605 868 651 C 852 697 829 736 800 766 C 771 796 737 818 697 832 C 657 846 613 854 565 854 C 519 854 478 846 442 830 C 405 814 374 790 348 759 C 322 727 303 689 289 643 C 275 597 268 544 268 485 C 268 421 276 366 292 319 C 308 272 330 233 358 202 C 386 171 419 148 457 133 C 495 118 536 111 580 111 C 624 111 665 118 703 133 C 741 148 774 171 802 202 C 830 233 853 272 869 319 C 885 366 893 421 893 485 Z" unicode="ð" />
<glyph horiz-adv-x="1165" d="M 844 0 L 844 629 C 844 745 823 830 782 884 C 740 938 676 965 590 965 C 552 965 517 958 485 945 C 453 932 425 912 401 885 C 377 857 358 822 344 780 C 330 738 324 687 324 629 L 324 0 L 170 0 L 170 1075 L 324 1075 L 324 944 C 339 966 357 987 377 1006 C 397 1024 419 1040 444 1054 C 469 1068 496 1078 526 1086 C 555 1094 587 1098 621 1098 C 677 1098 729 1089 775 1072 C 821 1055 861 1029 894 993 C 926 957 952 911 970 855 C 988 799 997 732 997 655 L 997 0 L 844 0 Z M 938 1491 C 938 1445 932 1406 921 1373 C 909 1339 894 1312 875 1290 C 855 1268 833 1251 808 1241 C 782 1230 756 1225 729 1225 C 701 1225 675 1229 651 1237 C 627 1245 602 1258 577 1277 C 552 1296 533 1310 521 1320 C 509 1329 499 1336 493 1340 C 478 1350 465 1357 453 1361 C 441 1365 429 1368 415 1368 C 393 1368 375 1357 363 1336 C 350 1314 341 1279 335 1231 L 208 1231 C 208 1276 213 1315 225 1349 C 236 1382 251 1410 271 1432 C 290 1454 312 1470 338 1481 C 363 1491 389 1497 417 1497 C 444 1497 470 1493 494 1485 C 518 1477 543 1463 568 1444 C 593 1425 612 1411 624 1402 C 636 1392 646 1386 653 1382 C 667 1372 680 1364 692 1360 C 704 1356 717 1354 731 1354 C 752 1354 769 1364 782 1386 C 794 1408 804 1443 811 1491 L 938 1491 Z" unicode="ñ" />
<glyph horiz-adv-x="1159" d="M 1047 545 C 1047 453 1034 372 1010 302 C 985 231 951 172 909 124 C 867 76 817 39 760 14 C 702 -10 641 -23 575 -23 C 509 -23 448 -11 392 13 C 336 37 287 72 246 120 C 204 167 172 225 148 295 C 124 365 113 445 113 537 C 113 627 125 708 149 778 C 173 848 207 906 250 954 C 292 1001 342 1037 400 1061 C 457 1085 518 1098 584 1098 C 649 1098 710 1086 766 1063 C 822 1039 871 1004 913 958 C 955 911 987 853 1011 784 C 1035 715 1047 635 1047 545 Z M 893 541 C 893 611 885 673 870 726 C 854 779 833 823 806 859 C 778 894 745 920 707 938 C 669 956 626 965 580 965 C 533 965 490 956 452 938 C 414 920 381 894 354 859 C 326 823 305 779 290 726 C 275 673 268 611 268 541 C 268 470 275 408 290 354 C 305 300 326 256 354 220 C 381 184 414 156 452 138 C 490 120 533 111 580 111 C 626 111 669 120 707 138 C 745 156 778 184 806 220 C 833 256 854 300 870 354 C 885 408 893 470 893 541 Z M 549 1219 L 240 1546 L 459 1546 L 670 1219 L 549 1219 Z" unicode="ò" />
<glyph horiz-adv-x="1159" d="M 1047 545 C 1047 453 1034 372 1010 302 C 985 231 951 172 909 124 C 867 76 817 39 760 14 C 702 -10 641 -23 575 -23 C 509 -23 448 -11 392 13 C 336 37 287 72 246 120 C 204 167 172 225 148 295 C 124 365 113 445 113 537 C 113 627 125 708 149 778 C 173 848 207 906 250 954 C 292 1001 342 1037 400 1061 C 457 1085 518 1098 584 1098 C 649 1098 710 1086 766 1063 C 822 1039 871 1004 913 958 C 955 911 987 853 1011 784 C 1035 715 1047 635 1047 545 Z M 893 541 C 893 611 885 673 870 726 C 854 779 833 823 806 859 C 778 894 745 920 707 938 C 669 956 626 965 580 965 C 533 965 490 956 452 938 C 414 920 381 894 354 859 C 326 823 305 779 290 726 C 275 673 268 611 268 541 C 268 470 275 408 290 354 C 305 300 326 256 354 220 C 381 184 414 156 452 138 C 490 120 533 111 580 111 C 626 111 669 120 707 138 C 745 156 778 184 806 220 C 833 256 854 300 870 354 C 885 408 893 470 893 541 Z M 602 1219 L 481 1219 L 692 1546 L 911 1546 L 602 1219 Z" unicode="ó" />
<glyph horiz-adv-x="1159" d="M 1047 545 C 1047 453 1034 372 1010 302 C 985 231 951 172 909 124 C 867 76 817 39 760 14 C 702 -10 641 -23 575 -23 C 509 -23 448 -11 392 13 C 336 37 287 72 246 120 C 204 167 172 225 148 295 C 124 365 113 445 113 537 C 113 627 125 708 149 778 C 173 848 207 906 250 954 C 292 1001 342 1037 400 1061 C 457 1085 518 1098 584 1098 C 649 1098 710 1086 766 1063 C 822 1039 871 1004 913 958 C 955 911 987 853 1011 784 C 1035 715 1047 635 1047 545 Z M 893 541 C 893 611 885 673 870 726 C 854 779 833 823 806 859 C 778 894 745 920 707 938 C 669 956 626 965 580 965 C 533 965 490 956 452 938 C 414 920 381 894 354 859 C 326 823 305 779 290 726 C 275 673 268 611 268 541 C 268 470 275 408 290 354 C 305 300 326 256 354 220 C 381 184 414 156 452 138 C 490 120 533 111 580 111 C 626 111 669 120 707 138 C 745 156 778 184 806 220 C 833 256 854 300 870 354 C 885 408 893 470 893 541 Z M 783 1200 L 576 1411 L 369 1200 L 240 1200 L 492 1527 L 664 1527 L 916 1200 L 783 1200 Z" unicode="ô" />
<glyph horiz-adv-x="1159" d="M 1047 545 C 1047 453 1034 372 1010 302 C 985 231 951 172 909 124 C 867 76 817 39 760 14 C 702 -10 641 -23 575 -23 C 509 -23 448 -11 392 13 C 336 37 287 72 246 120 C 204 167 172 225 148 295 C 124 365 113 445 113 537 C 113 627 125 708 149 778 C 173 848 207 906 250 954 C 292 1001 342 1037 400 1061 C 457 1085 518 1098 584 1098 C 649 1098 710 1086 766 1063 C 822 1039 871 1004 913 958 C 955 911 987 853 1011 784 C 1035 715 1047 635 1047 545 Z M 893 541 C 893 611 885 673 870 726 C 854 779 833 823 806 859 C 778 894 745 920 707 938 C 669 956 626 965 580 965 C 533 965 490 956 452 938 C 414 920 381 894 354 859 C 326 823 305 779 290 726 C 275 673 268 611 268 541 C 268 470 275 408 290 354 C 305 300 326 256 354 220 C 381 184 414 156 452 138 C 490 120 533 111 580 111 C 626 111 669 120 707 138 C 745 156 778 184 806 220 C 833 256 854 300 870 354 C 885 408 893 470 893 541 Z M 943 1491 C 943 1445 937 1406 926 1373 C 914 1339 899 1312 880 1290 C 860 1268 838 1251 813 1241 C 787 1230 761 1225 734 1225 C 706 1225 680 1229 656 1237 C 632 1245 607 1258 582 1277 C 557 1296 538 1310 526 1320 C 514 1329 504 1336 498 1340 C 483 1350 470 1357 458 1361 C 446 1365 434 1368 420 1368 C 398 1368 380 1357 368 1336 C 355 1314 346 1279 340 1231 L 213 1231 C 213 1276 218 1315 230 1349 C 241 1382 256 1410 276 1432 C 295 1454 317 1470 343 1481 C 368 1491 394 1497 422 1497 C 449 1497 475 1493 499 1485 C 523 1477 548 1463 573 1444 C 598 1425 617 1411 629 1402 C 641 1392 651 1386 658 1382 C 672 1372 685 1364 697 1360 C 709 1356 722 1354 736 1354 C 757 1354 774 1364 787 1386 C 799 1408 809 1443 816 1491 L 943 1491 Z" unicode="õ" />
<glyph horiz-adv-x="1159" d="M 1047 545 C 1047 453 1034 372 1010 302 C 985 231 951 172 909 124 C 867 76 817 39 760 14 C 702 -10 641 -23 575 -23 C 509 -23 448 -11 392 13 C 336 37 287 72 246 120 C 204 167 172 225 148 295 C 124 365 113 445 113 537 C 113 627 125 708 149 778 C 173 848 207 906 250 954 C 292 1001 342 1037 400 1061 C 457 1085 518 1098 584 1098 C 649 1098 710 1086 766 1063 C 822 1039 871 1004 913 958 C 955 911 987 853 1011 784 C 1035 715 1047 635 1047 545 Z M 893 541 C 893 611 885 673 870 726 C 854 779 833 823 806 859 C 778 894 745 920 707 938 C 669 956 626 965 580 965 C 533 965 490 956 452 938 C 414 920 381 894 354 859 C 326 823 305 779 290 726 C 275 673 268 611 268 541 C 268 470 275 408 290 354 C 305 300 326 256 354 220 C 381 184 414 156 452 138 C 490 120 533 111 580 111 C 626 111 669 120 707 138 C 745 156 778 184 806 220 C 833 256 854 300 870 354 C 885 408 893 470 893 541 Z M 889 1329 C 889 1313 886 1299 880 1285 C 874 1271 866 1259 856 1249 C 846 1239 834 1231 820 1225 C 806 1219 792 1216 777 1216 C 761 1216 747 1219 733 1225 C 719 1231 707 1239 697 1249 C 687 1259 679 1271 673 1285 C 667 1299 664 1313 664 1329 C 664 1344 667 1358 673 1372 C 679 1386 687 1398 697 1409 C 707 1419 719 1428 733 1434 C 747 1440 761 1443 777 1443 C 792 1443 806 1440 820 1434 C 834 1428 846 1419 856 1409 C 866 1398 874 1386 880 1372 C 886 1358 889 1344 889 1329 Z M 492 1329 C 492 1313 489 1299 483 1285 C 477 1271 469 1259 459 1249 C 449 1239 437 1231 423 1225 C 409 1219 395 1216 381 1216 C 365 1216 350 1219 336 1225 C 322 1231 310 1239 300 1249 C 290 1259 282 1271 276 1285 C 270 1299 267 1313 267 1329 C 267 1344 270 1358 276 1372 C 282 1386 290 1398 300 1409 C 310 1419 322 1428 336 1434 C 350 1440 365 1443 381 1443 C 395 1443 409 1440 423 1434 C 437 1428 449 1419 459 1409 C 469 1398 477 1386 483 1372 C 489 1358 492 1344 492 1329 Z" unicode="ö" />
<glyph horiz-adv-x="1270" d="M 768 1124 C 768 1106 764 1088 757 1072 C 750 1056 740 1042 728 1030 C 716 1018 702 1008 686 1001 C 670 994 653 991 635 991 C 616 991 599 994 583 1001 C 567 1008 553 1018 541 1030 C 529 1042 519 1056 512 1072 C 505 1088 502 1106 502 1124 C 502 1142 505 1160 512 1177 C 519 1193 529 1208 541 1221 C 553 1233 567 1243 583 1251 C 599 1258 616 1262 635 1262 C 653 1262 670 1258 686 1251 C 702 1243 716 1233 728 1221 C 740 1208 750 1193 757 1177 C 764 1160 768 1142 768 1124 Z M 137 635 L 137 774 L 1133 774 L 1133 635 L 137 635 Z M 768 281 C 768 262 764 244 757 228 C 750 212 740 198 728 186 C 716 174 702 164 686 157 C 670 150 653 147 635 147 C 616 147 599 150 583 157 C 567 164 553 174 541 186 C 529 198 519 212 512 228 C 505 244 502 262 502 281 C 502 299 505 316 512 333 C 519 349 529 364 541 377 C 553 389 567 399 583 407 C 599 414 616 418 635 418 C 653 418 670 414 686 407 C 702 399 716 389 728 377 C 740 364 750 349 757 333 C 764 316 768 299 768 281 Z" unicode="÷" />
<glyph horiz-adv-x="1159" d="M 1047 545 C 1047 453 1034 372 1010 302 C 985 231 951 172 909 124 C 867 76 817 39 760 14 C 702 -10 641 -23 575 -23 C 511 -23 453 -12 399 10 L 346 -102 L 211 -102 L 295 74 C 238 119 193 180 161 258 C 129 336 113 429 113 537 C 113 627 125 708 149 778 C 173 848 207 906 250 954 C 292 1001 342 1037 400 1061 C 457 1085 518 1098 584 1098 C 616 1098 648 1095 678 1089 C 708 1083 738 1074 766 1063 L 821 1178 L 956 1178 L 870 999 C 924 953 967 893 999 817 C 1031 741 1047 651 1047 545 Z M 709 942 C 670 960 627 969 580 969 C 532 969 489 960 451 942 C 412 924 379 897 351 861 C 323 825 302 781 287 727 C 271 673 264 611 264 541 C 264 465 272 400 288 345 C 304 290 328 244 358 207 L 709 942 Z M 897 541 C 897 613 889 675 873 729 C 857 783 835 828 807 864 L 457 131 C 495 114 536 106 580 106 C 626 106 669 115 708 134 C 747 152 781 180 809 216 C 837 252 858 298 874 352 C 889 406 897 469 897 541 Z" unicode="ø" />
<glyph horiz-adv-x="1161" d="M 838 0 L 838 131 C 806 85 766 47 716 19 C 666 -8 607 -23 541 -23 C 419 -23 326 14 261 89 C 196 164 164 274 164 420 L 164 1075 L 317 1075 L 317 446 C 317 330 337 245 379 191 C 420 137 484 111 571 111 C 653 111 718 139 766 197 C 814 254 838 337 838 446 L 838 1075 L 991 1075 L 991 0 L 838 0 Z M 532 1219 L 223 1546 L 442 1546 L 653 1219 L 532 1219 Z" unicode="ù" />
<glyph horiz-adv-x="1161" d="M 838 0 L 838 131 C 806 85 766 47 716 19 C 666 -8 607 -23 541 -23 C 419 -23 326 14 261 89 C 196 164 164 274 164 420 L 164 1075 L 317 1075 L 317 446 C 317 330 337 245 379 191 C 420 137 484 111 571 111 C 653 111 718 139 766 197 C 814 254 838 337 838 446 L 838 1075 L 991 1075 L 991 0 L 838 0 Z M 614 1219 L 493 1219 L 704 1546 L 923 1546 L 614 1219 Z" unicode="ú" />
<glyph horiz-adv-x="1161" d="M 838 0 L 838 131 C 806 85 766 47 716 19 C 666 -8 607 -23 541 -23 C 419 -23 326 14 261 89 C 196 164 164 274 164 420 L 164 1075 L 317 1075 L 317 446 C 317 330 337 245 379 191 C 420 137 484 111 571 111 C 653 111 718 139 766 197 C 814 254 838 337 838 446 L 838 1075 L 991 1075 L 991 0 L 838 0 Z M 785 1219 L 578 1430 L 371 1219 L 242 1219 L 494 1546 L 666 1546 L 918 1219 L 785 1219 Z" unicode="û" />
<glyph horiz-adv-x="1161" d="M 838 0 L 838 131 C 806 85 766 47 716 19 C 666 -8 607 -23 541 -23 C 419 -23 326 14 261 89 C 196 164 164 274 164 420 L 164 1075 L 317 1075 L 317 446 C 317 330 337 245 379 191 C 420 137 484 111 571 111 C 653 111 718 139 766 197 C 814 254 838 337 838 446 L 838 1075 L 991 1075 L 991 0 L 838 0 Z M 891 1348 C 891 1332 888 1318 882 1304 C 876 1290 868 1278 858 1268 C 848 1258 836 1250 822 1244 C 808 1238 794 1235 779 1235 C 763 1235 749 1238 735 1244 C 721 1250 709 1258 699 1268 C 689 1278 681 1290 675 1304 C 669 1318 666 1332 666 1348 C 666 1363 669 1377 675 1391 C 681 1405 689 1417 699 1428 C 709 1438 721 1447 735 1453 C 749 1459 763 1462 779 1462 C 794 1462 808 1459 822 1453 C 836 1447 848 1438 858 1428 C 868 1417 876 1405 882 1391 C 888 1377 891 1363 891 1348 Z M 494 1348 C 494 1332 491 1318 485 1304 C 479 1290 471 1278 461 1268 C 451 1258 439 1250 425 1244 C 411 1238 397 1235 383 1235 C 367 1235 352 1238 338 1244 C 324 1250 312 1258 302 1268 C 292 1278 284 1290 278 1304 C 272 1318 269 1332 269 1348 C 269 1363 272 1377 278 1391 C 284 1405 292 1417 302 1428 C 312 1438 324 1447 338 1453 C 352 1459 367 1462 383 1462 C 397 1462 411 1459 425 1453 C 439 1447 451 1438 461 1428 C 471 1417 479 1405 485 1391 C 491 1377 494 1363 494 1348 Z" unicode="ü" />
<glyph horiz-adv-x="1087" d="M 471 -379 L 317 -379 L 465 12 L 82 1075 L 244 1075 L 543 184 L 844 1075 L 1006 1075 L 471 -379 Z M 508 1219 L 387 1219 L 598 1546 L 817 1546 L 508 1219 Z" unicode="ý" />
<glyph horiz-adv-x="1145" d="M 1032 555 C 1032 459 1021 376 1000 304 C 979 232 950 171 914 123 C 877 74 834 37 785 13 C 735 -10 683 -23 627 -23 C 559 -23 501 -9 453 16 C 404 42 361 77 324 121 L 324 -309 L 170 -395 L 170 1407 L 324 1493 L 324 944 C 342 964 363 984 385 1003 C 407 1021 432 1038 459 1052 C 485 1066 514 1077 546 1085 C 577 1093 611 1098 647 1098 C 701 1098 751 1087 798 1066 C 844 1045 885 1012 920 968 C 954 924 982 867 1002 799 C 1022 731 1032 649 1032 555 Z M 881 553 C 881 620 874 679 862 731 C 849 782 831 825 808 860 C 784 894 756 920 722 938 C 688 956 650 965 608 965 C 550 965 498 950 451 922 C 404 894 362 856 324 809 L 324 272 C 338 249 356 228 376 208 C 396 188 419 171 443 157 C 467 143 494 131 523 123 C 551 115 582 111 614 111 C 704 111 771 148 815 223 C 859 297 881 407 881 553 Z" unicode="þ" />
<glyph horiz-adv-x="1087" d="M 471 -379 L 317 -379 L 465 12 L 82 1075 L 244 1075 L 543 184 L 844 1075 L 1006 1075 L 471 -379 Z M 856 1329 C 856 1313 853 1299 847 1285 C 841 1271 833 1259 823 1249 C 813 1239 801 1231 787 1225 C 773 1219 759 1216 744 1216 C 728 1216 714 1219 700 1225 C 686 1231 674 1239 664 1249 C 654 1259 646 1271 640 1285 C 634 1299 631 1313 631 1329 C 631 1344 634 1358 640 1372 C 646 1386 654 1398 664 1409 C 674 1419 686 1428 700 1434 C 714 1440 728 1443 744 1443 C 759 1443 773 1440 787 1434 C 801 1428 813 1419 823 1409 C 833 1398 841 1386 847 1372 C 853 1358 856 1344 856 1329 Z M 459 1329 C 459 1313 456 1299 450 1285 C 444 1271 436 1259 426 1249 C 416 1239 404 1231 390 1225 C 376 1219 362 1216 348 1216 C 332 1216 317 1219 303 1225 C 289 1231 277 1239 267 1249 C 257 1259 249 1271 243 1285 C 237 1299 234 1313 234 1329 C 234 1344 237 1358 243 1372 C 249 1386 257 1398 267 1409 C 277 1419 289 1428 303 1434 C 317 1440 332 1443 348 1443 C 362 1443 376 1440 390 1434 C 404 1428 416 1419 426 1409 C 436 1398 444 1386 450 1372 C 456 1358 459 1344 459 1329 Z" unicode="ÿ" />
<glyph horiz-adv-x="1389" d="" unicode="Ā" />
<glyph horiz-adv-x="1104" d="" unicode="ā" />
<glyph horiz-adv-x="1389" d="" unicode="Ă" />
<glyph horiz-adv-x="1104" d="" unicode="ă" />
<glyph horiz-adv-x="1389" d="" unicode="Ą" />
<glyph horiz-adv-x="1104" d="" unicode="ą" />
<glyph horiz-adv-x="1286" d="" unicode="Ć" />
<glyph horiz-adv-x="1014" d="" unicode="ć" />
<glyph horiz-adv-x="1286" d="" unicode="Ĉ" />
<glyph horiz-adv-x="1014" d="" unicode="ĉ" />
<glyph horiz-adv-x="1286" d="" unicode="Ċ" />
<glyph horiz-adv-x="1014" d="" unicode="ċ" />
<glyph horiz-adv-x="1286" d="" unicode="Č" />
<glyph horiz-adv-x="1014" d="" unicode="č" />
<glyph horiz-adv-x="1348" d="" unicode="Ď" />
<glyph horiz-adv-x="1233" d="" unicode="ď" />
<glyph horiz-adv-x="1397" d="" unicode="Đ" />
<glyph horiz-adv-x="1176" d="" unicode="đ" />
<glyph horiz-adv-x="1202" d="" unicode="Ē" />
<glyph horiz-adv-x="1106" d="" unicode="ē" />
<glyph horiz-adv-x="1202" d="" unicode="Ĕ" />
<glyph horiz-adv-x="1106" d="" unicode="ĕ" />
<glyph horiz-adv-x="1202" d="" unicode="Ė" />
<glyph horiz-adv-x="1106" d="" unicode="ė" />
<glyph horiz-adv-x="1202" d="" unicode="Ę" />
<glyph horiz-adv-x="1106" d="" unicode="ę" />
<glyph horiz-adv-x="1202" d="" unicode="Ě" />
<glyph horiz-adv-x="1106" d="" unicode="ě" />
<glyph horiz-adv-x="1350" d="" unicode="Ĝ" />
<glyph horiz-adv-x="1145" d="" unicode="ĝ" />
<glyph horiz-adv-x="1350" d="" unicode="Ğ" />
<glyph horiz-adv-x="1145" d="" unicode="ğ" />
<glyph horiz-adv-x="1350" d="" unicode="Ġ" />
<glyph horiz-adv-x="1145" d="" unicode="ġ" />
<glyph horiz-adv-x="1350" d="" unicode="Ģ" />
<glyph horiz-adv-x="1145" d="" unicode="ģ" />
<glyph horiz-adv-x="1409" d="" unicode="Ĥ" />
<glyph horiz-adv-x="1161" d="" unicode="ĥ" />
<glyph horiz-adv-x="1409" d="" unicode="Ħ" />
<glyph horiz-adv-x="1161" d="" unicode="ħ" />
<glyph horiz-adv-x="557" d="" unicode="Ĩ" />
<glyph horiz-adv-x="514" d="" unicode="ĩ" />
<glyph horiz-adv-x="557" d="" unicode="Ī" />
<glyph horiz-adv-x="514" d="" unicode="ī" />
<glyph horiz-adv-x="557" d="" unicode="Ĭ" />
<glyph horiz-adv-x="514" d="" unicode="ĭ" />
<glyph horiz-adv-x="557" d="" unicode="Į" />
<glyph horiz-adv-x="514" d="" unicode="į" />
<glyph horiz-adv-x="557" d="" unicode="İ" />
<glyph horiz-adv-x="514" d="M 180 0 L 180 1075 L 334 1075 L 334 0 L 180 0 Z" unicode="ı" />
<glyph horiz-adv-x="1741" d="" unicode="Ĳ" />
<glyph horiz-adv-x="1028" d="" unicode="ĳ" />
<glyph horiz-adv-x="1184" d="" unicode="Ĵ" />
<glyph horiz-adv-x="514" d="" unicode="ĵ" />
<glyph horiz-adv-x="1315" d="" unicode="Ķ" />
<glyph horiz-adv-x="1034" d="" unicode="ķ" />
<glyph horiz-adv-x="1034" d="" unicode="ĸ" />
<glyph horiz-adv-x="1178" d="" unicode="Ĺ" />
<glyph horiz-adv-x="514" d="" unicode="ĺ" />
<glyph horiz-adv-x="1178" d="" unicode="Ļ" />
<glyph horiz-adv-x="514" d="" unicode="ļ" />
<glyph horiz-adv-x="1178" d="" unicode="Ľ" />
<glyph horiz-adv-x="590" d="" unicode="ľ" />
<glyph horiz-adv-x="1178" d="" unicode="Ŀ" />
<glyph horiz-adv-x="1006" d="" unicode="ŀ" />
<glyph horiz-adv-x="1198" d="" unicode="Ł" />
<glyph horiz-adv-x="535" d="" unicode="ł" />
<glyph horiz-adv-x="1409" d="" unicode="Ń" />
<glyph horiz-adv-x="1165" d="" unicode="ń" />
<glyph horiz-adv-x="1409" d="" unicode="Ņ" />
<glyph horiz-adv-x="1165" d="" unicode="ņ" />
<glyph horiz-adv-x="1409" d="" unicode="Ň" />
<glyph horiz-adv-x="1165" d="" unicode="ň" />
<glyph horiz-adv-x="1628" d="" unicode="ŉ" />
<glyph horiz-adv-x="1409" d="" unicode="Ŋ" />
<glyph horiz-adv-x="1165" d="" unicode="ŋ" />
<glyph horiz-adv-x="1444" d="" unicode="Ō" />
<glyph horiz-adv-x="1159" d="" unicode="ō" />
<glyph horiz-adv-x="1444" d="" unicode="Ŏ" />
<glyph horiz-adv-x="1159" d="" unicode="ŏ" />
<glyph horiz-adv-x="1444" d="" unicode="Ő" />
<glyph horiz-adv-x="1159" d="" unicode="ő" />
<glyph horiz-adv-x="2136" d="M 1288 692 L 1288 145 L 2019 145 L 2019 0 L 1145 0 L 1145 238 C 1123 200 1099 166 1073 134 C 1047 102 1017 74 983 51 C 949 27 911 9 867 -3 C 823 -16 773 -23 715 -23 C 626 -23 545 -4 473 32 C 401 68 339 119 288 185 C 236 250 197 328 169 419 C 141 509 127 609 127 717 C 127 825 141 924 169 1014 C 197 1104 236 1182 288 1248 C 339 1314 401 1365 473 1401 C 545 1437 626 1456 715 1456 C 768 1456 817 1449 861 1436 C 905 1422 944 1404 980 1381 C 1015 1358 1046 1331 1074 1300 C 1101 1269 1125 1236 1145 1202 L 1145 1434 L 1989 1434 L 1989 1288 L 1288 1288 L 1288 838 L 1864 838 L 1864 692 L 1288 692 Z M 1145 715 C 1145 805 1134 886 1112 960 C 1090 1033 1060 1096 1022 1148 C 983 1200 937 1240 884 1268 C 831 1296 773 1311 711 1311 C 649 1311 592 1297 540 1269 C 488 1241 443 1201 406 1150 C 368 1098 339 1036 318 963 C 297 890 287 809 287 719 C 287 629 297 547 319 474 C 341 400 371 338 409 286 C 447 234 493 193 546 165 C 598 137 656 123 719 123 C 781 123 838 136 890 164 C 942 192 987 231 1025 283 C 1063 335 1092 397 1113 470 C 1134 543 1145 625 1145 715 Z" unicode="Œ" />
<glyph horiz-adv-x="1835" d="M 1718 569 C 1718 550 1717 534 1716 522 C 1715 510 1714 497 1712 485 L 1016 485 C 1019 427 1028 376 1043 330 C 1058 284 1078 244 1103 212 C 1127 179 1157 154 1191 137 C 1225 119 1263 111 1305 111 C 1354 111 1400 118 1443 133 C 1486 148 1535 175 1591 213 L 1663 102 C 1601 62 1543 32 1487 10 C 1431 -12 1365 -23 1288 -23 C 1248 -23 1209 -16 1173 -2 C 1137 11 1103 29 1073 53 C 1042 76 1015 103 992 134 C 969 165 951 198 938 233 C 924 197 905 164 883 133 C 860 102 833 75 802 52 C 771 28 736 10 696 -3 C 656 -16 613 -23 565 -23 C 503 -23 444 -11 389 13 C 334 37 286 72 245 120 C 204 167 172 225 148 295 C 124 365 113 445 113 537 C 113 627 125 708 150 778 C 174 848 208 906 250 954 C 292 1001 340 1037 396 1061 C 452 1085 511 1098 573 1098 C 619 1098 662 1091 702 1077 C 741 1063 776 1045 807 1022 C 838 999 865 972 888 941 C 910 910 928 878 942 844 C 970 916 1016 977 1079 1025 C 1141 1073 1214 1098 1296 1098 C 1362 1098 1422 1084 1474 1058 C 1526 1032 1571 995 1607 949 C 1643 902 1670 846 1689 781 C 1708 716 1718 645 1718 569 Z M 1575 610 C 1571 662 1563 709 1551 753 C 1538 797 1520 834 1497 866 C 1473 897 1445 921 1411 939 C 1377 956 1338 965 1294 965 C 1218 965 1155 935 1105 877 C 1055 819 1026 730 1016 610 L 1575 610 Z M 872 541 C 872 611 864 673 849 726 C 834 779 813 823 786 859 C 759 894 727 920 690 938 C 653 956 613 965 569 965 C 525 965 484 956 447 938 C 410 920 378 894 352 859 C 326 823 305 779 290 726 C 275 673 268 611 268 541 C 268 470 275 408 290 354 C 305 300 326 256 352 220 C 378 184 410 156 447 138 C 484 120 525 111 569 111 C 613 111 653 120 690 138 C 727 156 759 184 786 220 C 813 256 834 300 849 354 C 864 408 872 470 872 541 Z" unicode="œ" />
<glyph horiz-adv-x="1331" d="" unicode="Ŕ" />
<glyph horiz-adv-x="834" d="" unicode="ŕ" />
<glyph horiz-adv-x="1331" d="" unicode="Ŗ" />
<glyph horiz-adv-x="834" d="" unicode="ŗ" />
<glyph horiz-adv-x="1331" d="" unicode="Ř" />
<glyph horiz-adv-x="834" d="" unicode="ř" />
<glyph horiz-adv-x="1212" d="" unicode="Ś" />
<glyph horiz-adv-x="956" d="" unicode="ś" />
<glyph horiz-adv-x="1212" d="" unicode="Ŝ" />
<glyph horiz-adv-x="956" d="" unicode="ŝ" />
<glyph horiz-adv-x="1212" d="" unicode="Ş" />
<glyph horiz-adv-x="956" d="" unicode="ş" />
<glyph horiz-adv-x="1212" d="M 1069 377 C 1069 321 1058 268 1037 220 C 1015 171 984 129 944 93 C 903 57 853 28 794 8 C 735 -12 668 -23 594 -23 C 545 -23 498 -18 452 -8 C 406 2 363 15 322 33 C 281 51 243 72 208 96 C 172 120 141 147 113 176 L 219 295 C 273 242 332 200 395 169 C 457 138 526 123 600 123 C 648 123 691 128 729 140 C 767 151 799 167 826 189 C 852 210 873 236 887 266 C 901 296 909 331 909 369 C 909 402 903 432 892 459 C 881 486 862 511 836 535 C 810 559 775 582 731 604 C 687 626 632 648 567 672 C 489 699 424 726 372 754 C 319 782 276 812 244 844 C 212 876 189 912 175 952 C 161 992 154 1038 154 1090 C 154 1147 164 1198 186 1244 C 208 1289 238 1327 277 1359 C 316 1390 363 1414 418 1431 C 473 1447 534 1456 602 1456 C 650 1456 694 1452 734 1445 C 774 1438 812 1428 847 1415 C 882 1402 915 1386 946 1367 C 977 1348 1008 1327 1038 1303 L 936 1178 C 910 1199 884 1218 858 1235 C 832 1251 805 1265 778 1277 C 750 1288 721 1296 691 1302 C 661 1308 628 1311 592 1311 C 542 1311 500 1305 465 1294 C 429 1282 400 1267 378 1247 C 356 1227 339 1205 329 1180 C 318 1154 313 1128 313 1100 C 313 1070 317 1043 326 1019 C 334 995 351 971 376 949 C 400 927 435 904 479 882 C 523 860 581 836 653 811 C 732 782 798 753 852 724 C 905 695 948 664 980 630 C 1012 596 1034 559 1048 518 C 1062 477 1069 430 1069 377 Z M 692 1526 L 520 1526 L 268 1853 L 401 1853 L 608 1642 L 815 1853 L 944 1853 L 692 1526 Z" unicode="Š" />
<glyph horiz-adv-x="956" d="M 809 983 L 723 870 C 677 906 634 931 595 945 C 556 959 509 967 455 967 C 398 967 354 954 323 929 C 291 904 276 872 276 834 C 276 811 279 791 287 774 C 295 757 308 741 326 726 C 344 710 369 695 400 679 C 430 663 468 645 514 625 C 564 601 610 579 650 559 C 690 538 723 515 751 490 C 778 464 799 435 814 402 C 828 369 836 329 836 281 C 836 228 825 182 804 144 C 783 106 755 74 721 50 C 686 25 647 7 603 -5 C 559 -17 513 -23 467 -23 C 392 -23 323 -10 260 15 C 196 40 139 73 88 115 L 178 227 C 221 189 267 159 317 139 C 366 119 417 109 471 109 C 545 109 599 123 635 152 C 670 181 688 222 688 274 C 688 296 683 316 675 334 C 666 352 652 369 632 386 C 612 403 586 420 554 437 C 522 454 482 473 434 494 C 380 516 333 538 295 560 C 257 581 225 604 201 628 C 176 652 158 680 146 711 C 134 742 129 779 129 823 C 129 863 137 901 154 935 C 170 969 194 998 224 1022 C 254 1046 289 1064 330 1078 C 371 1091 416 1098 465 1098 C 539 1098 604 1087 661 1066 C 718 1044 767 1017 809 983 Z M 564 1219 L 392 1219 L 140 1546 L 273 1546 L 480 1335 L 687 1546 L 816 1546 L 564 1219 Z" unicode="š" />
<glyph horiz-adv-x="1204" d="" unicode="Ţ" />
<glyph horiz-adv-x="762" d="" unicode="ţ" />
<glyph horiz-adv-x="1204" d="" unicode="Ť" />
<glyph horiz-adv-x="762" d="" unicode="ť" />
<glyph horiz-adv-x="1204" d="" unicode="Ŧ" />
<glyph horiz-adv-x="762" d="" unicode="ŧ" />
<glyph horiz-adv-x="1389" d="" unicode="Ũ" />
<glyph horiz-adv-x="1161" d="" unicode="ũ" />
<glyph horiz-adv-x="1389" d="" unicode="Ū" />
<glyph horiz-adv-x="1161" d="" unicode="ū" />
<glyph horiz-adv-x="1389" d="" unicode="Ŭ" />
<glyph horiz-adv-x="1161" d="" unicode="ŭ" />
<glyph horiz-adv-x="1389" d="" unicode="Ů" />
<glyph horiz-adv-x="1161" d="" unicode="ů" />
<glyph horiz-adv-x="1389" d="" unicode="Ű" />
<glyph horiz-adv-x="1161" d="" unicode="ű" />
<glyph horiz-adv-x="1389" d="" unicode="Ų" />
<glyph horiz-adv-x="1161" d="" unicode="ų" />
<glyph horiz-adv-x="1753" d="" unicode="Ŵ" />
<glyph horiz-adv-x="1495" d="" unicode="ŵ" />
<glyph horiz-adv-x="1335" d="" unicode="Ŷ" />
<glyph horiz-adv-x="1087" d="" unicode="ŷ" />
<glyph horiz-adv-x="1335" d="M 1239 1434 L 748 569 L 748 0 L 588 0 L 588 567 L 96 1434 L 279 1434 L 669 731 L 1061 1434 L 1239 1434 Z M 977 1635 C 977 1619 974 1605 968 1591 C 962 1577 954 1565 944 1555 C 934 1545 922 1537 908 1531 C 894 1525 880 1522 865 1522 C 849 1522 835 1525 821 1531 C 807 1537 795 1545 785 1555 C 775 1565 767 1577 761 1591 C 755 1605 752 1619 752 1635 C 752 1650 755 1664 761 1678 C 767 1692 775 1704 785 1715 C 795 1725 807 1734 821 1740 C 835 1746 849 1749 865 1749 C 880 1749 894 1746 908 1740 C 922 1734 934 1725 944 1715 C 954 1704 962 1692 968 1678 C 974 1664 977 1650 977 1635 Z M 580 1635 C 580 1619 577 1605 571 1591 C 565 1577 557 1565 547 1555 C 537 1545 525 1537 511 1531 C 497 1525 483 1522 469 1522 C 453 1522 438 1525 424 1531 C 410 1537 398 1545 388 1555 C 378 1565 370 1577 364 1591 C 358 1605 355 1619 355 1635 C 355 1650 358 1664 364 1678 C 370 1692 378 1704 388 1715 C 398 1725 410 1734 424 1740 C 438 1746 453 1749 469 1749 C 483 1749 497 1746 511 1740 C 525 1734 537 1725 547 1715 C 557 1704 565 1692 571 1678 C 577 1664 580 1650 580 1635 Z" unicode="Ÿ" />
<glyph horiz-adv-x="1286" d="" unicode="Ź" />
<glyph horiz-adv-x="1008" d="" unicode="ź" />
<glyph horiz-adv-x="1286" d="" unicode="Ż" />
<glyph horiz-adv-x="1008" d="" unicode="ż" />
<glyph horiz-adv-x="1286" d="M 1149 0 L 125 0 L 125 139 L 973 1294 L 166 1294 L 166 1434 L 1149 1434 L 1149 1294 L 301 139 L 1149 139 L 1149 0 Z M 729 1526 L 557 1526 L 305 1853 L 438 1853 L 645 1642 L 852 1853 L 981 1853 L 729 1526 Z" unicode="Ž" />
<glyph horiz-adv-x="1008" d="M 111 0 L 111 113 L 698 946 L 158 946 L 158 1075 L 872 1075 L 872 963 L 285 129 L 872 129 L 872 0 L 111 0 Z M 591 1219 L 419 1219 L 167 1546 L 300 1546 L 507 1335 L 714 1546 L 843 1546 L 591 1219 Z" unicode="ž" />
<glyph horiz-adv-x="729" d="" unicode="ſ" />
<glyph horiz-adv-x="1270" d="M 1108 1292 C 1089 1299 1063 1305 1029 1310 C 995 1314 960 1317 922 1317 C 864 1317 817 1305 783 1281 C 748 1257 725 1217 713 1161 L 694 1075 L 1016 1075 L 989 946 L 668 946 L 465 0 L 311 0 L 514 946 L 264 946 L 291 1075 L 541 1075 L 557 1155 C 568 1210 585 1257 607 1295 C 629 1333 656 1364 688 1388 C 720 1412 758 1429 800 1440 C 842 1450 890 1456 942 1456 C 985 1456 1024 1454 1058 1450 C 1092 1446 1119 1442 1139 1438 L 1108 1292 Z" unicode="ƒ" />
<glyph horiz-adv-x="750" d="" unicode="↓" />
<glyph horiz-adv-x="1577" d="" unicode="↔" />
<glyph horiz-adv-x="936" d="M 63 0 L -104 0 L 872 1434 L 1040 1434 L 63 0 Z" unicode="⁄" />
<glyph horiz-adv-x="2234" d="" unicode="№" />
<glyph horiz-adv-x="1389" d="" unicode="Ǻ" />
<glyph horiz-adv-x="1104" d="" unicode="ǻ" />
<glyph horiz-adv-x="2044" d="" unicode="Ǽ" />
<glyph horiz-adv-x="1716" d="" unicode="ǽ" />
<glyph horiz-adv-x="1444" d="" unicode="Ǿ" />
<glyph horiz-adv-x="1159" d="" unicode="ǿ" />
<glyph horiz-adv-x="1159" d="" unicode="∂" />
<glyph horiz-adv-x="1405" d="" unicode="∆" />
<glyph horiz-adv-x="1384" d="" unicode="∏" />
<glyph horiz-adv-x="1264" d="" unicode="∑" />
<glyph horiz-adv-x="1182" d="" unicode="−" />
<glyph horiz-adv-x="936" d="M 63 0 L -104 0 L 872 1434 L 1040 1434 L 63 0 Z" unicode="∕" />
<glyph horiz-adv-x="1212" d="" unicode="Ș" />
<glyph horiz-adv-x="956" d="" unicode="ș" />
<glyph horiz-adv-x="1204" d="" unicode="Ț" />
<glyph horiz-adv-x="762" d="" unicode="ț" />
<glyph horiz-adv-x="1939" d="" unicode="∞" />
<glyph horiz-adv-x="805" d="" unicode="∫" />
<glyph horiz-adv-x="1270" d="" unicode="≈" />
<glyph horiz-adv-x="1270" d="" unicode="≠" />
<glyph horiz-adv-x="1270" d="" unicode="≤" />
<glyph horiz-adv-x="1270" d="" unicode="≥" />
<glyph horiz-adv-x="1024" d="M 717 1219 L 510 1430 L 303 1219 L 174 1219 L 426 1546 L 598 1546 L 850 1219 L 717 1219 Z" unicode="ˆ" />
<glyph horiz-adv-x="1024" d="M 598 1219 L 426 1219 L 174 1546 L 307 1546 L 514 1335 L 721 1546 L 850 1546 L 598 1219 Z" unicode="ˇ" />
<glyph horiz-adv-x="1024" d="M 233 1266 L 233 1409 L 791 1409 L 791 1266 L 233 1266 Z" unicode="ˉ" />
<glyph horiz-adv-x="1024" d="" unicode="˘" />
<glyph horiz-adv-x="1024" d="" unicode="˙" />
<glyph horiz-adv-x="1024" d="M 752 1466 C 752 1432 746 1401 734 1372 C 722 1343 705 1318 684 1296 C 662 1274 637 1257 608 1245 C 578 1233 546 1227 512 1227 C 477 1227 445 1233 416 1245 C 386 1257 361 1274 340 1296 C 318 1318 302 1343 290 1372 C 278 1401 272 1432 272 1466 C 272 1499 278 1530 290 1559 C 302 1588 318 1613 340 1635 C 361 1656 386 1673 416 1685 C 445 1697 477 1704 512 1704 C 546 1704 578 1697 608 1685 C 637 1673 662 1656 684 1635 C 705 1613 722 1588 734 1559 C 746 1530 752 1499 752 1466 Z M 655 1466 C 655 1486 651 1506 645 1524 C 638 1542 628 1557 616 1570 C 604 1583 589 1593 571 1601 C 553 1608 534 1612 512 1612 C 490 1612 470 1608 452 1601 C 434 1593 419 1583 407 1570 C 395 1557 385 1542 379 1524 C 372 1506 369 1486 369 1466 C 369 1444 372 1425 379 1407 C 385 1389 395 1373 407 1360 C 419 1347 434 1337 452 1330 C 470 1322 490 1319 512 1319 C 534 1319 553 1322 571 1330 C 589 1337 604 1347 616 1360 C 628 1373 638 1389 645 1407 C 651 1425 655 1444 655 1466 Z" unicode="˚" />
<glyph horiz-adv-x="1024" d="" unicode="˛" />
<glyph horiz-adv-x="1024" d="M 877 1491 C 877 1445 871 1406 860 1373 C 848 1339 833 1312 814 1290 C 794 1268 772 1251 747 1241 C 721 1230 695 1225 668 1225 C 640 1225 614 1229 590 1237 C 566 1245 541 1258 516 1277 C 491 1296 472 1310 460 1320 C 448 1329 438 1336 432 1340 C 417 1350 404 1357 392 1361 C 380 1365 368 1368 354 1368 C 332 1368 314 1357 302 1336 C 289 1314 280 1279 274 1231 L 147 1231 C 147 1276 152 1315 164 1349 C 175 1382 190 1410 210 1432 C 229 1454 251 1470 277 1481 C 302 1491 328 1497 356 1497 C 383 1497 409 1493 433 1485 C 457 1477 482 1463 507 1444 C 532 1425 551 1411 563 1402 C 575 1392 585 1386 592 1382 C 606 1372 619 1364 631 1360 C 643 1356 656 1354 670 1354 C 691 1354 708 1364 721 1386 C 733 1408 743 1443 750 1491 L 877 1491 Z" unicode="˜" />
<glyph horiz-adv-x="1024" d="" unicode="˝" />
<glyph horiz-adv-x="1223" d="M 1075 1376 C 1075 1361 1072 1347 1066 1334 C 1060 1321 1053 1310 1043 1300 C 1033 1290 1022 1282 1009 1276 C 996 1270 983 1268 969 1268 C 953 1268 938 1270 924 1276 C 910 1282 898 1290 888 1300 C 878 1310 870 1321 864 1334 C 858 1347 856 1361 856 1376 C 856 1391 858 1405 864 1419 C 870 1433 878 1445 888 1455 C 898 1465 910 1472 924 1478 C 938 1484 953 1487 969 1487 C 983 1487 996 1484 1009 1478 C 1022 1472 1033 1465 1043 1455 C 1053 1445 1060 1433 1066 1419 C 1072 1405 1075 1391 1075 1376 Z M 633 1323 C 615 1331 596 1337 576 1341 C 555 1345 532 1348 508 1348 C 469 1348 441 1338 423 1320 C 405 1301 397 1273 397 1235 L 397 1075 L 608 1075 L 608 946 L 397 946 L 397 0 L 244 0 L 244 946 L 96 946 L 96 1075 L 244 1075 L 244 1223 C 244 1271 250 1311 262 1345 C 274 1378 292 1405 314 1426 C 336 1447 363 1462 395 1472 C 426 1482 460 1487 498 1487 C 528 1487 554 1485 574 1482 C 594 1479 614 1474 633 1468 L 633 1323 Z M 889 0 L 889 1075 L 1042 1075 L 1042 0 L 889 0 Z" unicode="ﬁ" />
<glyph horiz-adv-x="1223" d="M 889 0 L 889 1407 L 1042 1493 L 1042 0 L 889 0 Z M 633 1323 C 615 1331 596 1337 576 1341 C 555 1345 532 1348 508 1348 C 469 1348 441 1338 423 1320 C 405 1301 397 1273 397 1235 L 397 1075 L 608 1075 L 608 946 L 397 946 L 397 0 L 244 0 L 244 946 L 96 946 L 96 1075 L 244 1075 L 244 1223 C 244 1271 250 1311 262 1345 C 274 1378 292 1405 314 1426 C 336 1447 363 1462 395 1472 C 426 1482 460 1487 498 1487 C 528 1487 554 1485 574 1482 C 594 1479 614 1474 633 1468 L 633 1323 Z" unicode="ﬂ" />
<glyph horiz-adv-x="1024" d="" unicode="΄" />
<glyph horiz-adv-x="1188" d="" unicode="΅" />
<glyph horiz-adv-x="1389" d="" unicode="Ά" />
<glyph horiz-adv-x="1202" d="" unicode="Έ" />
<glyph horiz-adv-x="1409" d="" unicode="Ή" />
<glyph horiz-adv-x="557" d="" unicode="Ί" />
<glyph horiz-adv-x="1444" d="" unicode="Ό" />
<glyph horiz-adv-x="1335" d="" unicode="Ύ" />
<glyph horiz-adv-x="1483" d="" unicode="Ώ" />
<glyph horiz-adv-x="514" d="" unicode="ΐ" />
<glyph horiz-adv-x="1389" d="" unicode="Α" />
<glyph horiz-adv-x="1282" d="" unicode="Β" />
<glyph horiz-adv-x="1071" d="" unicode="Γ" />
<glyph horiz-adv-x="1405" d="" unicode="Δ" />
<glyph horiz-adv-x="1202" d="" unicode="Ε" />
<glyph horiz-adv-x="1286" d="" unicode="Ζ" />
<glyph horiz-adv-x="1409" d="" unicode="Η" />
<glyph horiz-adv-x="1468" d="" unicode="Θ" />
<glyph horiz-adv-x="557" d="" unicode="Ι" />
<glyph horiz-adv-x="1315" d="" unicode="Κ" />
<glyph horiz-adv-x="1364" d="" unicode="Λ" />
<glyph horiz-adv-x="1614" d="" unicode="Μ" />
<glyph horiz-adv-x="1409" d="" unicode="Ν" />
<glyph horiz-adv-x="1237" d="" unicode="Ξ" />
<glyph horiz-adv-x="1444" d="" unicode="Ο" />
<glyph horiz-adv-x="1384" d="" unicode="Π" />
<glyph horiz-adv-x="1266" d="" unicode="Ρ" />
<glyph horiz-adv-x="1264" d="" unicode="Σ" />
<glyph horiz-adv-x="1204" d="" unicode="Τ" />
<glyph horiz-adv-x="1335" d="" unicode="Υ" />
<glyph horiz-adv-x="1640" d="" unicode="Φ" />
<glyph horiz-adv-x="1294" d="" unicode="Χ" />
<glyph horiz-adv-x="1452" d="" unicode="Ψ" />
<glyph horiz-adv-x="1483" d="" unicode="Ω" />
<glyph horiz-adv-x="557" d="" unicode="Ϊ" />
<glyph horiz-adv-x="1335" d="" unicode="Ϋ" />
<glyph horiz-adv-x="1145" d="" unicode="ά" />
<glyph horiz-adv-x="1049" d="" unicode="έ" />
<glyph horiz-adv-x="1161" d="" unicode="ή" />
<glyph horiz-adv-x="514" d="" unicode="ί" />
<glyph horiz-adv-x="1155" d="" unicode="ΰ" />
<glyph horiz-adv-x="1145" d="" unicode="α" />
<glyph horiz-adv-x="1145" d="" unicode="β" />
<glyph horiz-adv-x="1044" d="" unicode="γ" />
<glyph horiz-adv-x="1157" d="" unicode="δ" />
<glyph horiz-adv-x="1049" d="" unicode="ε" />
<glyph horiz-adv-x="991" d="" unicode="ζ" />
<glyph horiz-adv-x="1161" d="" unicode="η" />
<glyph horiz-adv-x="1176" d="" unicode="θ" />
<glyph horiz-adv-x="514" d="" unicode="ι" />
<glyph horiz-adv-x="1075" d="" unicode="κ" />
<glyph horiz-adv-x="1096" d="" unicode="λ" />
<glyph horiz-adv-x="1167" d="" unicode="μ" />
<glyph horiz-adv-x="1069" d="" unicode="ν" />
<glyph horiz-adv-x="997" d="" unicode="ξ" />
<glyph horiz-adv-x="1159" d="" unicode="ο" />
<glyph horiz-adv-x="1233" d="" unicode="π" />
<glyph horiz-adv-x="1108" d="" unicode="ρ" />
<glyph horiz-adv-x="1014" d="" unicode="ς" />
<glyph horiz-adv-x="1190" d="" unicode="σ" />
<glyph horiz-adv-x="979" d="" unicode="τ" />
<glyph horiz-adv-x="1155" d="" unicode="υ" />
<glyph horiz-adv-x="1430" d="" unicode="φ" />
<glyph horiz-adv-x="1077" d="" unicode="χ" />
<glyph horiz-adv-x="1448" d="" unicode="ψ" />
<glyph horiz-adv-x="1491" d="" unicode="ω" />
<glyph horiz-adv-x="514" d="" unicode="ϊ" />
<glyph horiz-adv-x="1155" d="" unicode="ϋ" />
<glyph horiz-adv-x="1159" d="" unicode="ό" />
<glyph horiz-adv-x="1155" d="" unicode="ύ" />
<glyph horiz-adv-x="1491" d="" unicode="ώ" />
<glyph horiz-adv-x="1202" d="" unicode="Ё" />
<glyph horiz-adv-x="1628" d="" unicode="Ђ" />
<glyph horiz-adv-x="1122" d="" unicode="Ѓ" />
<glyph horiz-adv-x="1286" d="" unicode="Є" />
<glyph horiz-adv-x="1212" d="" unicode="Ѕ" />
<glyph horiz-adv-x="557" d="" unicode="І" />
<glyph horiz-adv-x="557" d="" unicode="Ї" />
<glyph horiz-adv-x="1184" d="" unicode="Ј" />
<glyph horiz-adv-x="2056" d="" unicode="Љ" />
<glyph horiz-adv-x="2142" d="" unicode="Њ" />
<glyph horiz-adv-x="1628" d="" unicode="Ћ" />
<glyph horiz-adv-x="1315" d="" unicode="Ќ" />
<glyph horiz-adv-x="1247" d="" unicode="Ў" />
<glyph horiz-adv-x="1409" d="" unicode="Џ" />
<glyph horiz-adv-x="1389" d="" unicode="А" />
<glyph horiz-adv-x="1305" d="" unicode="Б" />
<glyph horiz-adv-x="1296" d="" unicode="В" />
<glyph horiz-adv-x="1122" d="" unicode="Г" />
<glyph horiz-adv-x="1339" d="" unicode="Д" />
<glyph horiz-adv-x="1202" d="" unicode="Е" />
<glyph horiz-adv-x="2032" d="" unicode="Ж" />
<glyph horiz-adv-x="1112" d="" unicode="З" />
<glyph horiz-adv-x="1409" d="" unicode="И" />
<glyph horiz-adv-x="1409" d="" unicode="Й" />
<glyph horiz-adv-x="1315" d="" unicode="К" />
<glyph horiz-adv-x="1329" d="" unicode="Л" />
<glyph horiz-adv-x="1614" d="" unicode="М" />
<glyph horiz-adv-x="1409" d="" unicode="Н" />
<glyph horiz-adv-x="1444" d="" unicode="О" />
<glyph horiz-adv-x="1409" d="" unicode="П" />
<glyph horiz-adv-x="1266" d="" unicode="Р" />
<glyph horiz-adv-x="1286" d="" unicode="С" />
<glyph horiz-adv-x="1204" d="" unicode="Т" />
<glyph horiz-adv-x="1247" d="" unicode="У" />
<glyph horiz-adv-x="1806" d="" unicode="Ф" />
<glyph horiz-adv-x="1294" d="" unicode="Х" />
<glyph horiz-adv-x="1409" d="" unicode="Ц" />
<glyph horiz-adv-x="1370" d="" unicode="Ч" />
<glyph horiz-adv-x="1933" d="" unicode="Ш" />
<glyph horiz-adv-x="1933" d="" unicode="Щ" />
<glyph horiz-adv-x="1440" d="" unicode="Ъ" />
<glyph horiz-adv-x="1769" d="" unicode="Ы" />
<glyph horiz-adv-x="1309" d="" unicode="Ь" />
<glyph horiz-adv-x="1286" d="" unicode="Э" />
<glyph horiz-adv-x="1939" d="" unicode="Ю" />
<glyph horiz-adv-x="1321" d="" unicode="Я" />
<glyph horiz-adv-x="1104" d="" unicode="а" />
<glyph horiz-adv-x="1124" d="" unicode="б" />
<glyph horiz-adv-x="1063" d="" unicode="в" />
<glyph horiz-adv-x="844" d="" unicode="г" />
<glyph horiz-adv-x="1061" d="" unicode="д" />
<glyph horiz-adv-x="1106" d="" unicode="е" />
<glyph horiz-adv-x="1575" d="" unicode="ж" />
<glyph horiz-adv-x="913" d="" unicode="з" />
<glyph horiz-adv-x="1161" d="" unicode="и" />
<glyph horiz-adv-x="1161" d="" unicode="й" />
<glyph horiz-adv-x="1034" d="" unicode="к" />
<glyph horiz-adv-x="1090" d="" unicode="л" />
<glyph horiz-adv-x="1337" d="" unicode="м" />
<glyph horiz-adv-x="1161" d="" unicode="н" />
<glyph horiz-adv-x="1159" d="" unicode="о" />
<glyph horiz-adv-x="1161" d="" unicode="п" />
<glyph horiz-adv-x="1145" d="" unicode="р" />
<glyph horiz-adv-x="1014" d="" unicode="с" />
<glyph horiz-adv-x="891" d="" unicode="т" />
<glyph horiz-adv-x="1087" d="" unicode="у" />
<glyph horiz-adv-x="1632" d="" unicode="ф" />
<glyph horiz-adv-x="1032" d="" unicode="х" />
<glyph horiz-adv-x="1161" d="" unicode="ц" />
<glyph horiz-adv-x="1051" d="" unicode="ч" />
<glyph horiz-adv-x="1737" d="" unicode="ш" />
<glyph horiz-adv-x="1737" d="" unicode="щ" />
<glyph horiz-adv-x="1149" d="" unicode="ъ" />
<glyph horiz-adv-x="1516" d="" unicode="ы" />
<glyph horiz-adv-x="1063" d="" unicode="ь" />
<glyph horiz-adv-x="1014" d="" unicode="э" />
<glyph horiz-adv-x="1577" d="" unicode="ю" />
<glyph horiz-adv-x="1104" d="" unicode="я" />
<glyph horiz-adv-x="1106" d="" unicode="ё" />
<glyph horiz-adv-x="1161" d="" unicode="ђ" />
<glyph horiz-adv-x="862" d="" unicode="ѓ" />
<glyph horiz-adv-x="1014" d="" unicode="є" />
<glyph horiz-adv-x="956" d="" unicode="ѕ" />
<glyph horiz-adv-x="514" d="" unicode="і" />
<glyph horiz-adv-x="514" d="" unicode="ї" />
<glyph horiz-adv-x="514" d="" unicode="ј" />
<glyph horiz-adv-x="1665" d="" unicode="љ" />
<glyph horiz-adv-x="1751" d="" unicode="њ" />
<glyph horiz-adv-x="1161" d="" unicode="ћ" />
<glyph horiz-adv-x="1034" d="" unicode="ќ" />
<glyph horiz-adv-x="1087" d="" unicode="ў" />
<glyph horiz-adv-x="1161" d="" unicode="џ" />
<glyph horiz-adv-x="1122" d="" unicode="Ґ" />
<glyph horiz-adv-x="918" d="" unicode="ґ" />
<glyph horiz-adv-x="492" d="M 377 752 C 377 734 373 717 366 701 C 359 685 350 671 338 659 C 326 647 312 638 296 631 C 280 624 263 621 246 621 C 228 621 211 624 195 631 C 179 638 165 647 153 659 C 141 671 132 685 125 701 C 118 717 115 734 115 752 C 115 770 118 787 125 803 C 132 819 141 833 153 846 C 165 858 179 868 195 876 C 211 883 228 887 246 887 C 263 887 280 883 296 876 C 312 868 326 858 338 846 C 350 833 359 819 366 803 C 373 787 377 770 377 752 Z" unicode="∙" />
<glyph horiz-adv-x="1188" d="" unicode="√" />
<glyph horiz-adv-x="1174" d="M 657 815 L 657 -205 L 516 -205 L 516 815 L 113 815 L 113 950 L 516 950 L 516 1434 L 657 1434 L 657 950 L 1061 950 L 1061 815 L 657 815 Z" unicode="†" />
<glyph horiz-adv-x="1174" d="M 657 279 L 657 -205 L 516 -205 L 516 279 L 113 279 L 113 412 L 516 412 L 516 817 L 113 817 L 113 950 L 516 950 L 516 1434 L 657 1434 L 657 950 L 1061 950 L 1061 817 L 657 817 L 657 412 L 1061 412 L 1061 279 L 657 279 Z" unicode="‡" />
<glyph horiz-adv-x="766" d="M 602 750 C 602 720 596 691 585 665 C 573 638 558 615 538 595 C 518 575 494 559 468 547 C 441 535 413 530 383 530 C 353 530 324 535 298 547 C 271 559 248 575 228 595 C 208 615 192 638 181 665 C 169 691 164 720 164 750 C 164 780 169 808 181 835 C 192 862 208 886 228 906 C 248 926 271 943 298 955 C 324 967 353 973 383 973 C 413 973 441 967 468 955 C 494 943 518 926 538 906 C 558 886 573 862 585 835 C 596 808 602 780 602 750 Z" unicode="•" />
<glyph horiz-adv-x="1270" d="M 729 -23 C 663 -23 602 -11 548 12 C 493 36 445 70 404 116 C 362 161 328 217 301 284 C 273 350 254 426 242 512 L 84 512 L 84 639 L 229 639 C 227 651 227 679 227 723 C 227 766 227 796 229 813 L 84 813 L 84 940 L 244 940 C 274 1112 331 1241 417 1327 C 503 1413 609 1456 735 1456 C 783 1456 826 1451 864 1441 C 902 1431 936 1415 967 1395 C 997 1375 1025 1349 1051 1318 C 1076 1287 1101 1251 1126 1210 L 1006 1128 C 984 1162 964 1192 946 1216 C 928 1240 908 1260 888 1275 C 868 1289 845 1300 820 1307 C 794 1313 765 1317 731 1317 C 691 1317 654 1310 619 1296 C 583 1282 551 1259 522 1229 C 493 1199 468 1160 446 1112 C 424 1064 408 1007 397 940 L 895 940 L 895 813 L 383 813 C 381 797 381 782 381 767 C 381 751 381 735 381 719 C 381 704 381 690 381 677 C 381 664 381 651 383 639 L 895 639 L 895 512 L 395 512 C 407 428 426 360 452 308 C 478 256 508 216 540 188 C 572 160 606 141 640 131 C 674 121 706 117 735 117 C 769 117 800 120 826 128 C 852 136 876 147 898 163 C 920 179 940 199 960 223 C 980 247 1000 275 1022 307 L 1133 229 C 1108 191 1082 156 1056 125 C 1030 94 1001 68 970 46 C 938 24 903 7 864 -5 C 824 -17 779 -23 729 -23 Z" unicode="€" />
<glyph horiz-adv-x="1475" d="M 1360 109 C 1360 91 1356 74 1349 58 C 1341 42 1332 28 1320 16 C 1308 4 1294 -5 1278 -12 C 1262 -19 1246 -23 1229 -23 C 1211 -23 1194 -19 1178 -12 C 1162 -5 1148 4 1136 16 C 1124 28 1115 42 1108 58 C 1101 74 1098 91 1098 109 C 1098 127 1101 144 1108 160 C 1115 176 1124 190 1136 203 C 1148 215 1162 225 1178 233 C 1194 240 1211 244 1229 244 C 1246 244 1262 240 1278 233 C 1294 225 1308 215 1320 203 C 1332 190 1341 176 1349 160 C 1356 144 1360 127 1360 109 Z M 868 109 C 868 91 864 74 857 58 C 850 42 841 28 829 16 C 817 4 803 -5 787 -12 C 771 -19 754 -23 737 -23 C 719 -23 702 -19 686 -12 C 670 -5 657 4 645 16 C 633 28 623 42 616 58 C 609 74 606 91 606 109 C 606 127 609 144 616 160 C 623 176 633 190 645 203 C 657 215 670 225 686 233 C 702 240 719 244 737 244 C 754 244 771 240 787 233 C 803 225 817 215 829 203 C 841 190 850 176 857 160 C 864 144 868 127 868 109 Z M 377 109 C 377 91 373 74 366 58 C 358 42 349 28 337 16 C 325 4 311 -5 295 -12 C 279 -19 263 -23 246 -23 C 228 -23 211 -19 195 -12 C 179 -5 165 4 153 16 C 141 28 132 42 125 58 C 118 74 115 91 115 109 C 115 127 118 144 125 160 C 132 176 141 190 153 203 C 165 215 179 225 195 233 C 211 240 228 244 246 244 C 263 244 279 240 295 233 C 311 225 325 215 337 203 C 349 190 358 176 366 160 C 373 144 377 127 377 109 Z" unicode="…" />
<glyph horiz-adv-x="1126" d="" unicode="◊" />
<glyph horiz-adv-x="1638" d="" unicode="" />
<glyph horiz-adv-x="1104" d="" unicode="ℓ" />
<glyph horiz-adv-x="1753" d="" unicode="Ẁ" />
<glyph horiz-adv-x="1495" d="" unicode="ẁ" />
<glyph horiz-adv-x="1753" d="" unicode="Ẃ" />
<glyph horiz-adv-x="1495" d="" unicode="ẃ" />
<glyph horiz-adv-x="1753" d="" unicode="Ẅ" />
<glyph horiz-adv-x="1495" d="" unicode="ẅ" />
<glyph horiz-adv-x="2755" d="M 614 0 L 465 0 L 1356 1434 L 1505 1434 L 614 0 Z M 1849 424 C 1849 358 1841 298 1825 243 C 1809 188 1786 141 1756 102 C 1726 62 1691 32 1650 10 C 1608 -12 1563 -23 1513 -23 C 1463 -23 1417 -12 1377 9 C 1336 31 1301 61 1273 100 C 1245 139 1223 186 1207 240 C 1191 294 1184 354 1184 420 C 1184 486 1191 547 1207 602 C 1223 657 1245 704 1274 744 C 1303 783 1338 813 1379 835 C 1420 857 1466 868 1518 868 C 1570 868 1616 857 1657 835 C 1698 813 1733 783 1761 744 C 1789 705 1811 658 1826 604 C 1841 549 1849 489 1849 424 Z M 1708 420 C 1708 466 1703 510 1694 550 C 1685 590 1672 624 1656 653 C 1639 681 1619 704 1595 720 C 1571 736 1545 745 1516 745 C 1459 745 1413 715 1378 657 C 1342 599 1325 521 1325 424 C 1325 376 1329 333 1338 294 C 1347 254 1360 220 1377 191 C 1393 162 1413 140 1437 124 C 1461 108 1488 100 1518 100 C 1547 100 1573 108 1597 126 C 1621 143 1641 166 1657 195 C 1673 224 1686 258 1695 297 C 1703 335 1708 376 1708 420 Z M 2662 424 C 2662 358 2654 298 2638 243 C 2622 188 2599 141 2569 102 C 2539 62 2504 32 2463 10 C 2421 -12 2376 -23 2326 -23 C 2276 -23 2230 -12 2190 9 C 2149 31 2114 61 2086 100 C 2058 139 2036 186 2020 240 C 2004 294 1997 354 1997 420 C 1997 486 2004 547 2020 602 C 2036 657 2058 704 2087 744 C 2116 783 2151 813 2192 835 C 2233 857 2279 868 2331 868 C 2383 868 2429 857 2470 835 C 2511 813 2546 783 2574 744 C 2602 705 2624 658 2639 604 C 2654 549 2662 489 2662 424 Z M 2521 420 C 2521 466 2516 510 2507 550 C 2498 590 2485 624 2469 653 C 2452 681 2432 704 2408 720 C 2384 736 2358 745 2329 745 C 2272 745 2226 715 2191 657 C 2155 599 2138 521 2138 424 C 2138 376 2142 333 2151 294 C 2160 254 2173 220 2190 191 C 2206 162 2226 140 2250 124 C 2274 108 2301 100 2331 100 C 2360 100 2386 108 2410 126 C 2434 143 2454 166 2470 195 C 2486 224 2499 258 2508 297 C 2516 335 2521 376 2521 420 Z M 788 1012 C 788 946 780 886 764 831 C 748 776 725 729 695 690 C 665 650 630 620 589 598 C 548 576 503 565 453 565 C 403 565 357 575 317 597 C 276 618 241 648 213 687 C 184 726 162 773 146 827 C 130 881 123 942 123 1008 C 123 1074 130 1135 146 1190 C 162 1245 184 1292 213 1332 C 242 1371 277 1401 318 1423 C 359 1445 405 1456 457 1456 C 509 1456 555 1445 596 1423 C 637 1401 672 1371 700 1332 C 728 1293 750 1246 765 1192 C 780 1137 788 1077 788 1012 Z M 647 1008 C 647 1054 642 1098 633 1138 C 624 1178 611 1212 595 1241 C 578 1269 558 1292 534 1308 C 510 1324 484 1333 455 1333 C 397 1333 350 1303 316 1245 C 281 1186 264 1108 264 1012 C 264 964 268 921 277 881 C 286 841 299 807 316 779 C 332 750 352 728 376 712 C 400 696 427 688 457 688 C 486 688 512 696 536 714 C 560 731 580 754 596 783 C 612 812 625 846 634 885 C 642 923 647 964 647 1008 Z" unicode="‰" />
<glyph horiz-adv-x="1561" d="M 381 1348 L 381 616 L 283 616 L 283 1348 L 45 1348 L 45 1434 L 618 1434 L 618 1348 L 381 1348 Z M 1376 616 L 1376 1227 L 1112 594 L 854 1231 L 854 616 L 762 616 L 762 1434 L 868 1434 L 1115 807 L 1364 1434 L 1468 1434 L 1468 616 L 1376 616 Z" unicode="™" />
<glyph horiz-adv-x="1483" d="" unicode="Ω" />
<glyph horiz-adv-x="1335" d="" unicode="Ỳ" />
<glyph horiz-adv-x="1087" d="" unicode="ỳ" />
<glyph horiz-adv-x="1427" d="" unicode="℮" />
<glyph horiz-adv-x="743" d="M 477 0 L 61 537 L 477 1075 L 651 1075 L 236 539 L 651 0 L 477 0 Z" unicode="‹" />
<glyph horiz-adv-x="743" d="M 266 0 L 92 0 L 508 537 L 92 1075 L 266 1075 L 682 539 L 266 0 Z" unicode="›" />
</font>
</defs>
</svg>
